/* XPM */
static char *bc7cb9baf091498ab3ba251098841200hqaQYiTYe20PNbOx[] = {
/* columns rows colors chars-per-pixel */
"64 64 231 2 ",
"   c #3E373E",
".  c #47353E",
"X  c #57393E",
"o  c #582A3C",
"O  c #78293A",
"+  c #673939",
"@  c #6D303C",
"#  c #48413F",
"$  c #5B4538",
"%  c #79532F",
"&  c #6B4636",
"*  c #754A34",
"=  c #655437",
"-  c #785237",
";  c #7C442D",
":  c #1C2E4D",
">  c #1B2D55",
",  c #282E4E",
"<  c #2A3149",
"1  c #3D3D41",
"2  c #31314C",
"3  c #393646",
"4  c #242E54",
"5  c #2C2D55",
"6  c #2A2D5A",
"7  c #282A5A",
"8  c #342C55",
"9  c #3B2B55",
"0  c #38295A",
"q  c #2C3155",
"w  c #2B3559",
"e  c #353252",
"r  c #34385A",
"t  c #1E2E64",
"y  c #1E2E6B",
"u  c #152E63",
"i  c #1E326D",
"p  c #1A366A",
"a  c #1E3571",
"s  c #1D3B73",
"d  c #163C74",
"f  c #2C2B65",
"g  c #242E6C",
"h  c #2B2D6A",
"j  c #242D64",
"k  c #342B66",
"l  c #3B2A64",
"z  c #322D69",
"x  c #3C2B65",
"c  c #2C3464",
"v  c #2C3A64",
"b  c #23316E",
"n  c #2B326C",
"m  c #263B6E",
"M  c #2B3A6C",
"N  c #233465",
"B  c #32336A",
"V  c #343664",
"C  c #223370",
"Z  c #233A72",
"A  c #2B3C71",
"S  c #5E1F56",
"D  c #4C1C4A",
"F  c #681C4D",
"G  c #741C4E",
"H  c #7C194D",
"J  c #7B1948",
"K  c #651E56",
"L  c #6C1D55",
"P  c #641F58",
"I  c #6B1E58",
"U  c #7E1750",
"Y  c #741B54",
"T  c #7B1952",
"R  c #47274D",
"E  c #433642",
"W  c #463843",
"Q  c #4C2554",
"!  c #45265D",
"~  c #4C255E",
"^  c #452857",
"/  c #542355",
"(  c #5C2155",
")  c #54245D",
"_  c #5C225B",
"`  c #5C2B55",
"'  c #52354B",
"]  c #682546",
"[  c #662152",
"{  c #622059",
"}  c #792546",
"|  c #442761",
" . c #4A2760",
".. c #422963",
"X. c #492862",
"o. c #502660",
"O. c #394152",
"+. c #1A4276",
"@. c #164678",
"#. c #194478",
"$. c #134C7A",
"%. c #184876",
"&. c #0E557D",
"*. c #0B5A7E",
"=. c #10517C",
"-. c #1D5572",
";. c #174874",
":. c #2D4465",
">. c #26496B",
",. c #205371",
"<. c #224E70",
"1. c #414242",
"2. c #48424B",
"3. c #574847",
"4. c #474858",
"5. c #564D51",
"6. c #525350",
"7. c #624D42",
"8. c #B50F3F",
"9. c #BB0F3C",
"0. c #AD153F",
"q. c #AA193E",
"w. c #B4123E",
"e. c #BC123B",
"r. c #BB1B3A",
"t. c #B71A39",
"y. c #BB1E2F",
"u. c #992B31",
"i. c #BA252E",
"p. c #B8312C",
"a. c #AA2733",
"s. c #B72B2D",
"d. c #961A3D",
"f. c #C51537",
"g. c #CB1636",
"h. c #C51B36",
"j. c #CD1B34",
"k. c #C31339",
"l. c #C21939",
"z. c #C91438",
"x. c #D21C33",
"c. c #D11735",
"v. c #C10F3B",
"b. c #C62A2E",
"n. c #CB2C29",
"m. c #C4272D",
"M. c #D5252E",
"N. c #D9262E",
"B. c #D42B2D",
"V. c #DC2C2C",
"C. c #CB332B",
"Z. c #DC322B",
"A. c #DB382A",
"S. c #C42233",
"D. c #CB2233",
"F. c #D32231",
"G. c #D32A31",
"H. c #D92131",
"J. c #DB3830",
"K. c #E02F2B",
"L. c #E2342A",
"P. c #E53B29",
"I. c #A85D1D",
"U. c #AD631E",
"Y. c #AE691F",
"T. c #B46C1E",
"R. c #BB6D1B",
"E. c #B76719",
"W. c #BC701B",
"Q. c #BB7B1D",
"!. c #B6731F",
"~. c #85492B",
"^. c #984F28",
"/. c #975726",
"(. c #935B2E",
"). c #A75A24",
"_. c #B25C26",
"`. c #9B672C",
"'. c #A96622",
"]. c #A97224",
"[. c #B67925",
"{. c #C16C16",
"}. c #CC7A14",
"|. c #C47C19",
" X c #C77617",
".X c #D47D11",
"XX c #D97F12",
"oX c #E34428",
"OX c #E74828",
"+X c #84164E",
"@X c #8C154C",
"#X c #83194D",
"$X c #8B194A",
"%X c #861A44",
"&X c #9D1246",
"*X c #93134A",
"=X c #9B1248",
"-X c #961746",
";X c #841750",
":X c #811851",
">X c #881650",
",X c #A40F45",
"<X c #AB0E43",
"1X c #A00F48",
"2X c #B20E41",
"3X c #A41244",
"4X c #AC1141",
"5X c #A31743",
"6X c #B11140",
"7X c #CD8518",
"8X c #CD8717",
"9X c #D58313",
"0X c #D98311",
"qX c #D58915",
"wX c #DA8C12",
"eX c #DC9212",
"rX c #D49515",
"tX c #DC880F",
"yX c #E48D0E",
"uX c #E0840F",
"iX c #E6940E",
"pX c #E9950D",
"aX c #EB9B0D",
"sX c #E69B0F",
"dX c #E18910",
"fX c #E29710",
"gX c #EDA20D",
"hX c #F1A30C",
"jX c #C28120",
"kX c #0A5D80",
"lX c #0A6182",
/* pixels */
"s $.*.*.%._ <Xe.*X) g b b n n f ) *Xw.j.x.4X@X( q 8 G w.V.N.e.<X<Xe.V.M.-Xq q 9 / #X4Xg.g.4XT ~ l z b b g g ) ,X9.<XT M *.kX=.s ",
"$.&.*.=.n K 8.e.*XP l b b h h g l P *Xe.N.G.t.H ^ q Q -Xr.M.k.2X<Xl.L.D.#Xq 9 L @Xw.f.f.w.@X) h g b b g g l I 3X9.8.+X..$.*.*.$.",
"*.*.&.s z K ,X9.8.*XY | k l h C b h ) $XD.V.F.4XY 9 8 K 5XM.N.e.e.Z.P.t.F 5 ( 3Xk.g.g.w.@X_ h b b b h | ) T &X8.v.2XT l +.&.*.*.",
"&.=.+.g h ~ @X<X8.<X=XY { { | h b g h ) 5XM.V.h.=XQ q ^ -XG.L.g.h.OXJ.$X8 8 H 9.g.j.e.*X{ k b b g k ) L +X,X2X8.2X*X) n s @.&.*.",
"s n k z h h | L +X*X+XY T :XI | g g g k L 0.V.N.6XK 5 5 H S.L.j.h.oXG.H 5 8 T w.g.z.&XY | g b h | P Y T +X*X@X+XU P l b n ..n @.",
" .{ K ) k b g k ~ l l  .I :XY ) h b b h ) -XV.V.w.Y 5 5 G D.P.j.D.P.D.#X5 6 S &Xj.z.*XK ..b b k { Y Y P _ ~ | l k h g h _ T I | ",
":X3X3X+X_ z b g g b b h | I Y _ h g h ~ K 5XV.G.=XK 9 Q -XV.L.h.l.Z.D.+X9 4 9 H w.g.6X:X_ h i z { Y I  .h g g b b b h ) @X<X<X@X",
"@X8.9.<X+X| g b b b b b k I Y ) h h | Y 5XM.N.t.G 8 9 T t.P.L.w.q.M.G.5X( 4 4 ! $Xe.e.3XT | g b .._ ) k b b y g g g | #X8.9.<X+X",
"K @X8.9.*X) g b C C b b k _ { ..h l L =Xl.M.r.J 8 5 / 5XN.P.G.=X+Xt.L.G.$X^ q j ~ +Xw.9.=XK k g h  ._ ..b C b g b h ~ +X8.3XT ) ",
"l K 3X8.=X) g C C C b b h ) ) f h ) -Xf.j.e.$X9 4 9 #XD.L.V.3XY _ &XN.K.h.-X( f h ) *X9.2X+X~ g g l _ | g b b i b g | #X,X+X~ h ",
"h | T @X;X~ g C C C b b g l l g h I e.j.e.*X/ q 9 L q.V.L.h.+X~ | #Xr.V.L.D.=X) g z P &Xe.3X{ g b k ) l g b b b b g | Y +XI k g ",
"C h ~ P Y ) z b b b n h b n g g h Y k.f.&X_ f k ) @Xh.L.V.w.L h z K 3Xj.V.V.r.Y k b ..#Xk.6XT h g k l h g g g b g g ! L Y ~ h g ",
"C g z _ +XT ) k z z x k g n b g h L k.z.@Xl g h _ 3Xx.V.D.=X) Z a ..+Xe.N.N.e.T k C z Y k.e.:Xz b z z b h ..l h h | { Y L | g b ",
"C b h _ *X=XT I _ ) ) l g n b b b ) e.z.*X) h b ..T t.N.h.+X..#.$.n T e.N.F.3XL h C k Y 9.4XI n C h h g k ) )  ._ Y :X;XI k b C ",
"b b g | T *X*X;XL ) ! h b b b C a z @Xe.3XT ) h b l H l.l.T m &.&.n T l.x.t.Y l b b | +X2X@X| b b b h g g f | _ I :X>XY | b b n ",
"k h b h | _ L K ) k h b b b g b s C ~ @X2X4X+X~ b b  .&X8.U m *.&.B +Xz.l.T l g g z _ *X*X_ h b b b g n b g h k | _ P ) h b h ..",
"_ l g b b h h h h h l l k k h b a s n _ *X4X3XT ..C n L 2X*XM kX&.x -Xe.&X) n z ..) Y ;XK k s a b n .. ...h b g g h h h b b l _ ",
"+XI l g b g g g f ) :X:X:XY ~ h C s #.Z ~ I ;XT _ h s X.=X*XM *.=.X.&X4XI n n  ._ I { ) B #.+.b h ) T ;XT _ l h g b g b g l I *X",
"w.*X_ k h g h l _ @X2X2X<X=X:X) h s =.&.+.n ~ { { x +.n T +XV kX=.) 1X+Xl C n ) _ ) l Z =.&.+.h ~ @X<X<X<X*XY _ | g g b k _ *X8.",
"z.e.*XS k z l L *X8.9.4X*X*X=XT ~ n @.*.*.@.Z k ) k %.s ) U B *.=.) *XP C s b l | n s =.*.=.m  .H <X<X,X,X<X=XT { l b h ~ +X2Xk.",
"k.k.w.+XK ~ _ *Xe.e.4XT ) P +X>XL | m &.kX*.=.%.n m @.+...K B *.&...T ) s d a m Z @.*.kX&.s l Y &X=X+XI Y &X2X,X+X) l ) T <X9.k.",
",X8.9.6X=X+X@Xw.k.4XT | f l { Y Y _ l +.*.lXkX*.=.@.@.s l _ B kXkXA )  .n s +.$.=.*.lXlX&.m ~ T *XL ~ ..~ L =X<X,XT Y +X&X2X<X&X",
"T &X9.v.e.e.e.e.w.+X .b i h l ) P { ..s *.lXlXkX*.*.&.s n z +.kXlX@.z k m +.$.*.*.kXkX&.+.z { Y Y ~ h b b k _ @X<X,X4Xe.e.8.*XI ",
"~ T 3X9.k.k.9.<X+X) h a i b h l ) _ ..a =.*.kXkX*.*.=.s C s $.kXkX$.C b s $.&.&.&.*.&.d C | I P ~ z C a a C h _ +X=X3Xw.8.&XL l ",
"n l I @X4Xw.3X+X) f j c v v V V 0 ! k Z <.,.,.,.<.>.m s s +.<.-.-.>.v b s $.,.<.<.>.:.M V ` G / 0 V c v v c c k ) { L T +XY | C ",
"n g k ) L K / 0 6 q 3.'.T.T.T.'.+ e t r /.Y.T.!.T.T.(.>.$.4.'.'.Y.U.(.^ m 4.'.Y.T.T.T.T.R.{.^.$ U.U.U.U.U.U.- t j k | ~ ~ ..h h ",
"{ ~ l 0 8 5 4 4 e * rXgXaXaXaXaX7X* 4 1 }.aXaXgXgXgXjXN 6.rXaXaXaXpXiXW.7.5..XaXaXaXgXgXgXhX].= gXgXaXiXiXpX].5 > t j g h k ~ T ",
"6X3X+X/ 8 5 8 Q @ U.aXaX9X}.9XiXpXR.E 1.qXgXgXeXeXqX].1 /.aXaX9XE. XpXyX(.W I.9XeXaXaXaXeXfX].% aXaX0X}.}.}._.[ / 8 6 7 0 I *Xw.",
"g.k.t.5XG [ G %X@ R.aXwX~.E $ 9XpX7XW 1.9XaX|.# 3 3 <   E.aXaXT.3 & 0XpX].q R ' % 0XaXQ.1 W W % aXyX/.E E + u.-X-X#X[ [ H 0.z.z.",
"c.j.M.M.S.t.b.a.+ {.aXqX+ , O.9XpX7XW 1.wXaX|.3 : : > 3 I.iXaXQ.W . ; /.- $.m 0 & 9XaXQ., 7 R - aXyX^.R D ] u.b.b.m.i.i.S.j.g.k.",
"8.e.N.Z.Z.Z.A.p.+ R.aXqX+ , 1 .XaX7XE 1.eXpX X* & & 2 p 3.XXaXiX|.~.X r -.*.=.d $ .XpX!.q p t = aXtX^.O } } J a.n.n.n.B.M.j.w.<X",
"2X8.j.M.M.n.n.a.@ {.aXqX+ 2 1 }.aX8XW 1.wXaXiXwXfX|.W d 4.R.9XpXaX0XE.- %.*.&.d 3.9XyXT.e s p 7.aXpXwXeXwX_.F %Xy.i.y.h.l.w.<X<X",
"2X2Xz.F.M.B.n.u.@ {.pXqX+ 2 1 }.aXqXW 1.wXaXdX}.wXQ.e s s :.5.R.0XuXuX X- ;.kX&.6..XpX!.e s p 7.aXaX0XwX9X).J d.i.m.m.b.h.w.<X2X",
"e.z.H.V.Z.oXOXp.@ R.iXqX+ 2 1.}.aX7XE 1.wXpX|.. 3 3 : u +.>.v 3 $ E.uXyX'.O.*.&.5..XaXQ.2 p u = aXiX'.. o ] O p.A.A.oXoXoXB.t.w.",
"H.H.N.M.S.i.C.a.@ E.iXwX~.W # .XpX7XE 1.wXaX7XE < 3 2 , + ).(.3 : $ 0XyXU.r @.d 3..XaXQ.e f 7 = iXpX).D D D O p.C.b.i.s.C.A.V.F.",
"H.j.0.%X[ ( [ G ] {.aXiXR.~.% wXaX7XE 1.eXgXwX^.^.~.X 2 ; }.0X/.E = aXpXT.r s t 3..XaXQ.R S F % iXaXW.X 3 3 . ] #XH G G #Xq.D.M.",
"l.=XS 5 4 4 5 Q ] I.iXaXiX9XwXaXaX|.3 2.eXgXaXfXfXiX[.r & 0XpXfXrXeXgXyX`.w i y 3..XaX[.N k ^ * iXgXsXrXrXrX`.k / Q 5 4 9 K -Xw.",
"T Q 5 4 5 q 6 7 6 ' R.iXaXaXpXiX X~.w 4.9XyXpXaXaXpX[.m 2.R.0XaXaXpX.X/.e i a d 5..XyX[.N b y 3.tXaXaXgXgXpX`.t 7 8 8 5 5 5 / H ",
"! 8 9 Q L L ( ..b N 2.T.W.R.R.'.' 8 i O.T.W.W.R.R.R.(.M s 5.U.R.R.U.~.e g i s @.5.E.R.(.c z y 2.U.R.W.W.{.E.& t 9 T $XT ( ^ 8 8 ",
"f ^ I +X3X3X3XT l y b r r w w w j g g N w :.:.:.:.:.v C a s :.>.>.:.c h h b +.&.%.>.:.v n | l N r r r r r r 0 ) #X6X9.6X*XT ! j ",
"~ T 3Xe.f.f.f.6X:X .n a a a a h ..)  .n &.*.kXkXkXkX$.C h n $.kXkX%.l ..B +.&.lXkXkXkX&.Z ~ _ ~ h b a a i g ) *Xe.g.k.k.k.6X+X~ ",
"H 4Xf.g.e.w.r.e.4X+X) h b b h  .{ I  .s kXlXlXlXlXkX*.+.x | +.lXkXZ ) ) n $.kXlXlXlXlXkX$.x { { o.z C b g | #Xk.c.g.8.<Xe.k.4X+X",
"6Xk.g.w.@XY T -X4X4X*X_  . .~ L Y P B =.kXlXlXkX&.@.=.+.| { M kXkXB K ) Z =.*.&.&.kXlXlX*.Z ) I I ) k k ~ H w.z.k.3XT T 3Xe.k.w.",
"k.f.4X+XS l ..{ @Xw.w.3X+XT :X@X:X) s *.kX*.*.$.m n #.%.) Y B kX*...@X{ @.*.$.s @.&.*.kXkX$.B _ Y Y Y T -Xw.k.e.&XK k l I =Xk.g.",
"g.w.+X) k g g k _ +X3X2X2X6X4X*XP n $.*.*.$.m k X.B @.#._ T B *.&.) <X:XZ $.+.x B s $.&.*.&.+.k I @X1X<X8.e.0.+XK | g b ..Y 3Xf.",
"e.=XP l h g g g k ~ P T @X*X+XS k s $.$.s z ) { o.Z @.A T @XM *.&.) 9.=XX.s n  .) X.z Z @.&.$.m | T =X,X*X+XI | h g b b z ~ T &X",
"3XT ~ h b g g g g g h h z l k h b C s m | K Y I X.Z s ) =X@Xn &.=.) 8.4XP n b l ) { _  .k Z #.a g | _ P ~ l z g g g g g g h .._ ",
"Y ~ h b h h z z g b b b b g g b C b h ~ U *XT ) z C z T 2X+Xm &.=...&Xl.@X| b h | _ I L _ l i C b g h h g g g g g k l h b b g l ",
"..h b h ) _ { _ l h g b b b g b C g ~ +X&X*X_ h b g _ 4Xe.+Xn &.=.z $Xj.l.:Xl g h l I :XT ) g b b g g y y g g h l _ { ~ f g y g ",
"h g g k { Y Y L _ ~ l g b b g b g k T ,X@X{ l C b l $Xg.l.+XB =.$.z H h.N.t.I k n h _ +X3XT z b b g g y g l ....) I I { ~ h g g ",
"n g g l P Y Y { ) _ ~ l h h g g g ~ *X<XT l g C z L t.N.l.+Xx @.@.z T e.N.G.-X) z g ! H 9.5X~ b b g g g k ~ ~ .. ._ L I ) z g b ",
"n b f ) L L ) l h h h h k l h b z { =X<X;Xl b C l +Xh.K.j.@X) s s  .+Xe.K.V.0._ h b | +Xk.w.L h g g h h g h h g h l _ I ) k b b ",
"g g l P Y { k g b b b g z l h b z I 3X8.*X) g C l +Xh.L.G.4XY h z L 4Xj.K.F.3X) b z L 3Xz.e.Y g g f l k g g b b g g ~ I {  .h b ",
"g k _ T Y ) h g b b g g k ~ ..h h { *X8.4XT l C n ( q.N.L.D.&X) ) *Xj.L.N.w.H k h { &Xk.g.4XP g g l ) ..g b b b b b ..I Y { l g ",
"k ) T ;XY | g g C b g g k ) ) k h | Y &X8.3XT ~ f 8 G t.Z.L.t.T +Xw.N.L.h.H 8 0 ) *Xk.g.k.*X| g g l ) | g b b b b g ..Y @X;XP l ",
"_ T *X*XY l b b C C b b k _ L ) k l  .K 3Xk.4XH ^ q ^ $XS.P.G.3X4XD.L.F.=XQ 5 / $Xe.g.e.*X_ g g k  .~ k C b i b b g l T 1X3X+X{ ",
"Y *X,X*XK h b b b b b g k _ Y L l h h | T w.f.4XL 9 5 ( 5XZ.Z.e.e.L.N.4XF 4 9 H 6Xg.g.4XL k b z  .)  .h b b b b b g k L =X<X,X@X",
"Y *X*XT ~ g b b b b g h ! Y :XY | g b n ~ -Xj.j.-X/ q ^ @Xh.L.F.x.P.G.$X8 5 P 3Xk.x.k.@X| g b k _ { _ l g b g g g g h ~ Y +X*XT ",
"..) P ) l h h k k z l ~ I >X;XY | g b b | @Xf.H.w.I 8 8 H l.L.V.N.L.D.J 4 8 T 6Xg.c.e.+X..C b z _ I I ) l f l | l h n h k ~ ) ..",
"s b z k z k ) Y Y _ _ P T T L ~ h b g k S &Xj.H.w.L 8 5 G j.L.F.F.L.D.G 4 8 +Xz.x.x.e.@X .b b g ..{ L I _ ) I :XY ) h b b b s @.",
"&.&.@.b l ) T &X=X;XY L P ~ l h b g l _ U w.x.j.3X( 5 8 #XG.V.e.t.V.F.*X^ 5 L w.x.H.j.4XT l b g g k ) P I T *X<X,X+X) h s @.&.*.",
"*.*.&.%.k _ =X2X,X;XK ~ k h g b h k _ +X6Xj.x.w.H 9 8 K 3XM.F.8.4Xj.N.w.L 5 Q +Xw.x.H.z.&XP k b b g h z l ) U 3X9.3XT x $.&.*.*.",
"+.&.*.&.m { ,X8.,XT | h b b b h | _ +Xe.g.x.e.+X8 8 ( *Xl.j.e.2X<Xe.N.j.=X/ 9 ( $Xe.j.j.e.-X{ z b b b b g h ) *X9.2XT M &.*.$.s ",
"C @.*.kX%._ 3X2X=X_ k h b C C k o.L =Xz.g.k.=XS 5 8 L w.c.z.2X2X<X2Xg.x.e.Y 9 8 _ +Xw.c.g.6X;X~ g b b b g g l T <X3X_ #.kXkX#.C "
};
