/* XPM */
static char *_3beddc3d3fe4d3280a485a7fc61f07aEyqmWLDK3TCJTiKL[] = {
/* columns rows colors chars-per-pixel */
"64 64 255 2 ",
"   c #030E3E",
".  c #04103E",
"X  c #2C1E3E",
"o  c #59383D",
"O  c #5B253D",
"+  c #682A3C",
"@  c #65363C",
"#  c #77313A",
"$  c #691F36",
"%  c #754439",
"&  c #040F47",
"*  c #041145",
"=  c #04124C",
"-  c #0A114D",
";  c #190E5C",
":  c #041353",
">  c #0B1154",
",  c #04145B",
"<  c #0A125B",
"1  c #041A5D",
"2  c #09195E",
"3  c #131252",
"4  c #281956",
"5  c #301A4A",
"6  c #39234D",
"7  c #1A0F67",
"8  c #041563",
"9  c #0B1264",
"0  c #041A65",
"q  c #04166B",
"w  c #0B136B",
"e  c #041A6C",
"r  c #0A1B6B",
"t  c #131162",
"y  c #12126B",
"u  c #1A146C",
"i  c #051673",
"p  c #0B1473",
"a  c #041A74",
"s  c #041B7B",
"d  c #0B167B",
"f  c #131373",
"g  c #14137B",
"h  c #1A117C",
"j  c #1B1075",
"k  c #1A0F76",
"l  c #290D69",
"z  c #280E77",
"x  c #360D79",
"c  c #241179",
"v  c #30126A",
"b  c #05236A",
"n  c #042373",
"m  c #04227C",
"M  c #042B7A",
"N  c #0C2C7C",
"B  c #34236D",
"V  c #4D1855",
"C  c #522C42",
"Z  c #482556",
"A  c #502E46",
"S  c #69304A",
"D  c #460A78",
"F  c #570B79",
"G  c #520F6A",
"H  c #6A0A78",
"J  c #700C6D",
"K  c #48296B",
"L  c #6B125A",
"P  c #734749",
"I  c #686A79",
"U  c #933C37",
"Y  c #DC183B",
"T  c #E61836",
"R  c #EB1B2D",
"E  c #F2373E",
"W  c #874735",
"Q  c #945334",
"!  c #984735",
"~  c #B0532E",
"^  c #C65A27",
"/  c #D15F3F",
"(  c #F25235",
")  c #CC6227",
"_  c #D76926",
"`  c #DB7525",
"'  c #C7792C",
"]  c #EF6F2F",
"[  c #961258",
"{  c #AC1055",
"}  c #870678",
"|  c #990779",
" . c #910C69",
".. c #BC0968",
"X. c #A8067B",
"o. c #B60576",
"O. c #AE106A",
"+. c #B93964",
"@. c #D61348",
"#. c #C91257",
"$. c #D21150",
"%. c #E61947",
"&. c #DD2557",
"*. c #E52647",
"=. c #E82E52",
"-. c #C80868",
";. c #D71766",
":. c #C10973",
">. c #D01167",
",. c #C22A68",
"<. c #834847",
"1. c #846C6D",
"2. c #955F6D",
"3. c #F35B42",
"4. c #EB4A48",
"5. c #D36445",
"6. c #E0554B",
"7. c #35A879",
"8. c #38967C",
"9. c #59927A",
"0. c #6F9476",
"q. c #4AA972",
"w. c #6FB069",
"e. c #E7891F",
"r. c #EE961E",
"t. c #F09A1E",
"y. c #FCAC1E",
"u. c #F8A31D",
"i. c #FDB41C",
"p. c #FDB91A",
"a. c #DC9337",
"s. c #E68724",
"d. c #F58825",
"f. c #EA9323",
"g. c #FA9B23",
"h. c #F59523",
"j. c #F09538",
"k. c #FCA321",
"l. c #FBAA22",
"z. c #F1A637",
"x. c #E9AD39",
"c. c #DEAF3A",
"v. c #A89E58",
"b. c #8DB45C",
"n. c #B2AF53",
"m. c #8E976C",
"M. c #A1A266",
"N. c #8BAA61",
"B. c #CA9445",
"V. c #E79645",
"C. c #D3A847",
"Z. c #E8A243",
"A. c #041D84",
"S. c #041E8B",
"D. c #0A1A87",
"F. c #1C1282",
"G. c #16158A",
"H. c #091C94",
"J. c #191897",
"K. c #2B0E84",
"L. c #280F89",
"P. c #370D87",
"I. c #241184",
"U. c #2C118C",
"Y. c #271189",
"T. c #370E95",
"R. c #271397",
"E. c #341199",
"W. c #31108E",
"Q. c #042383",
"!. c #04228C",
"~. c #042A88",
"^. c #053689",
"/. c #042293",
"(. c #042B93",
"). c #05249B",
"_. c #042A9C",
"`. c #0A259C",
"'. c #043592",
"]. c #053C94",
"[. c #05389A",
"{. c #13348C",
"}. c #1B1BA5",
"|. c #2A18A6",
" X c #3715A8",
".X c #2F1AAE",
"XX c #052BA4",
"oX c #0727A5",
"OX c #1924A9",
"+X c #0533A4",
"@X c #053CA5",
"#X c #0434AB",
"$X c #0836AA",
"%X c #0F33B2",
"&X c #2325AB",
"*X c #302C9D",
"=X c #460B86",
"-X c #580A88",
";X c #490C99",
":X c #5B0A9B",
">X c #570996",
",X c #481294",
"<X c #660989",
"1X c #770789",
"2X c #64069C",
"3X c #670896",
"4X c #770698",
"5X c #7D1699",
"6X c #490DA5",
"7X c #570BA5",
"8X c #4A15A9",
"9X c #6607A3",
"0X c #7504A2",
"qX c #5F2B97",
"wX c #09488D",
"eX c #064C9B",
"rX c #064895",
"tX c #07599A",
"yX c #155697",
"uX c #144B8D",
"iX c #245890",
"pX c #086899",
"aX c #097798",
"sX c #187796",
"dX c #136C92",
"fX c #2E6F8D",
"gX c #054CA4",
"hX c #0546A9",
"jX c #0653A4",
"kX c #065BA4",
"lX c #0558AB",
"zX c #0548B3",
"xX c #0A4BB1",
"cX c #0668A5",
"vX c #0774A3",
"bX c #1062AA",
"nX c #564F8F",
"mX c #84068C",
"MX c #890688",
"NX c #970587",
"BX c #830594",
"VX c #880493",
"CX c #8F168B",
"ZX c #A40584",
"AX c #843A84",
"SX c #0D988B",
"DX c #189789",
"FX c #0A8895",
"GX c #168594",
"HX c #0D9192",
"JX c #0E8C8D",
"KX c #2B9286",
"LX c #19A384",
"PX c #22A182",
"IX c #499081",
/* pixels */
"w i A.)./.!./.!.!.!.).XXXXoXA.=   = s i 8 : 0 [.lXcX$XJ.g : : k h : = 9 J.hXcXhXm , : 8 i i : * = q /.XXXX/.!.S.S.H./././.s i q ",
"p s /.!.e , = = : , a (.XXXX/.e * = e A.A.e = r eXaXlX$XS., , x x , , D.+XlXlX'.0 : 0 s A.a = * 0 A.XXXX/.8 = = : , 8 a S./.A.q ",
"S./.!.a , : , , = * = e !.).).!.0 = = e /./.0 : M pXvXgX_.q < H H < 8 !.hXvXjXm : e A.A.e : * , !._._.Q.e = & > 9 : = : q A./.i ",
"/.S.e = < y h I.j y > : , a S./.A., * : Q.XX!., b tXHXpX_.e ;  . .l 0 (.tXFXrX0 : Q.).a = * 0 A./.A.0 = : , f Y.U.Y.y , , e ).S.",
"/.e , 9 Y.;X:X2X2X6XY.p = = 0 a s 8 . = s XX_.a 0 wXJXpX_.a v { { G , Q.pXHXwX8 , ).).0 * = s S.s , = = q G.E.:X3X2X;Xg , , /.).",
"/., : f ;X4X4X0X0X6X XR.p : : = : = * : Q.+X+XQ.0 wXFXpX(.p L Y T L 9 Q.dXSXrX8 0 _.XXA.: = , 8 , : e A.H.}. X:X3X4X4XT.w = a ).",
"/.= > U.4XBX2X;XE.R.J.J.`./.s , = * : e /.+X+XQ.0 wXSXdXA.v { R R [ u Q.dXSXeX0 e _.XXoXa : = = , s ).XXoXH.J.R.T.2XVX2XI.& , ).",
"!.* - T.VX4XY.w < , : , a /./.S.a e A.).XX+X(.e n dXSXtXs G Y Y Y #.G s tXHXpXn : Q.XXoXoXH.A.S./.)./.A.s , : : 9 P.VX4XW.& : (.",
"!.* - =XVX3Xh = * : 8 : = : e !.).).XXXXXX!.a r wXGXaX^.l [ T -...T [ z ^.GXGXwXe e !.oXoXoXoXoX/.A.q : , , , = = z MX4XU.* : /.",
"/.: - x VX4Xg = , Q.(.'.M r , : e A./.Q.0 , n wXaXFXrXa L Y @.NXNX@.@.L Q.dXPXpX'.r 0 A././.S.s 8 , 0 b Q./.!.8 - z mX2Xj * , /.",
").e * 7 4X4XI., a _.hXlXkXrX^.b 1 , , , 1 n wXGXSXpX~.v { T -.4X4X#.R { x wXKXDXpXwXn 0 , 1 0 b b {.rXtXgX+X_.e - P.4XT.< * e S.",
"XX!., < ,X3X>Xw e [.kXaXHXDXKXfXiXuX{.{.wXtXaXSXaX^.w L Y $.NX7X9XX.Y @.H {.pXDXLXDXdXyXuXuXiXfXI 9.KXJXpXhX/.e > =X>Xk = : s S.",
")./.A.: u 3X4XK.e '.cXHX7.w.n.M.m.m.0.9.KXDXSXJXeXQ.v [ T -.4X X.X4X#.R { z ^.dXPXq.q.9.0.m.M.n.C.C.b.7.HXjXQ.8 j 3X;X9 , s H.H.",
"A././., > P.4X:Xg n tXDXw.c.z.j.V.V.C.n.b.q.DXpX'.e G $.T X.8X%X%X8X| T $.G a ].sXq.b.n.C.Z.Z.Z.z.z.c.w.DXeXs 9 =X4Xc = 8 S.S.S.",
"q s /.a = t >X1XP.r rXGXb.z.d.] 3.3.3.] B.N.KXjXQ.w G @.$.4X&XzXzX.XmX@.T H 0 Q.tXIXM.a.] 3.3.4.( d.x.b.DXrXe u 3X:X; = A.S.a , ",
"= , s A., < P.BX3Xf ^.sXw.z.( E &.>.;.&.=.6.I @X!.g H $.#.2XOXlXkX&XmX@.T J 9 a [.nX2.4.=.;.>.>.&.( x.w.DXM 9 =X1XP.- = A.a =   ",
", = 8 a 8 < K.4XBXP.b yX0.z.( *.o.4XVXNX:.;.O.qXH.d =X....7X%XcXcX%X4X@.@.F q A.OX5Xo.:.X.NXBXNX>.( x.q.pXb y <XmXK.= : i , * * ",
"s : * : : : z 4XVX-Xr uX9.C.( *.NX6X XE.;XmXo.mXE.D.c  ...6X$XvXaX$X3X#. .c q Y.:XNXNX9XT.E.E.4X#.( C.7.rX1 f 1XMXY.= * : * = q ",
"H.w * . * > x NXNX=X2 ].sXN.] *.MXR.D.i f K.3XNX1XG.9 G X.;X+XvXaX$X<XX.H y a ,XBXMX,XR.d d R.MX@.( v.KXrX, g mXX.W.9 & * & i A.",
"J.R.f 9 9 j -Xo.| K.1 '.aX8.5.*.| U.8 8 q w I.<X4XY., l 1X-X_.pXpXoX3XNXD , g >X1XP.f 8 : 9 =Xo.*./ 9.SXrX, h NXo.>XG.p < w D.H.",
"J.R.E.U.U.=XmXo.MXu 1 rXpXGX1.&.-.F > 0 A.s q F.;XU.8 7 <X-X(.tXtXoX<XVXx q G.E.j 9 0 a : t 1X-.=.1.KXSXeX1 u 1Xo.VX;XE.R.R.R.H.",
"q G.6X2X4XNXo.MX=X< n jXvXcXbXqXo.} t , s /.S.A.g G.i u -X-X!.gXjXoX>X3Xz i D.d a s S.A.0 x MXX.AXfXFXSXpXn > x MXNXVX4X2X;XG.q ",
", w W.2XNXX.} =Xy r rXvXvXlXhX%X8X>XY.0 , A.).).A.s i f K.K.S.@X@X`.R.T.h i i s /.).S.q u -XBX8XhXxXcXHXFXrXe w =X4XBXVX:XU.9 , ",
"8 : y K.<X-Xc 8 0 ^.pXaXgX'.!.!.G.U.R.d 8 8 S.(.)./.A.i p p s )./.A.d g d A.S.!.S.A.a w K.<X;XJ.!._.@XcXHXcX(.e w K.W.R.F.< , a ",
"_.a : < y w , e ^.cXvXgX~.e q 8 : ; K K B 6 Z B D.A.s u Z Z Z v q 8 4 Z K B g i 4 A Z K P.W.Y.w 8 q Q.[.pXaXkX'.n q i 9 , , m _.",
"$X(.n e r b M rXkXcXgX~.0 8 w 9 4 # ) _ ^ ~ ) ~ A ; , C ^ ) ^ # : , + ^ _ ^ C : # ) ` ~ 6 q w y f 7 < 8 ~.tXvXlXhX_.Q.b n ~.+X#X",
"$X$X@X[.@XgXcXlXgX[.m 8 y c K.4 U s.k.k.k.y.k.l.s.S : o s.l.r.W > : @ s.y.e.@ = Q f.i.s.C < c =X>X<XF v 9 m ].lXlXzXzXzXzX@X$XXX",
"_.+X@XhXgXlXlX[.s 0 9 x <X1X<XV ^ h.u.s._ ` h.y.u.~ 3 o f.p.u.W = = % s.i.r.@ = Q t.p.e.C u -XmXZX-.-.} x 9 8 m [.@XhXxXhX$X_.!.",
"a A.!.(.(.(.~.e 8 7 F } X.NX-XZ _ u.u.^ O + ~ h.g.~ 5 o s.i.u.W - & % s.p.r.@ = Q t.p.e.A h >X3XMXo.-.-.| D l t q s Q.~.(.!.s q ",
", , , 8 8 q y 7 x H X.X.mX;XF.Z _ y.u.~ 5 = 6 W Q @ 3 o s.i.u.W = = % f.p.r.@ = Q t.p.e.A D.OX}.|.:XmXo.-.o.H D u 9 , , 8 , 8 , ",
"= : , < t z =XH | o.X.2X XOX!.6 ) u.y.` U O 5 = : : = o s.y.u.W = = % f.p.r.@ = Q t.p.e.A /.#X#X#XOX X3XX.o.:.| <X=Xj , : : : = ",
"= 9 F.P.=X1XNX:.>.o.1X X%X%X#Xc U s.k.g.d._ ! + 6 3 = o s.y.u.W = = % f.p.r.@ = Q t.p.e.A (.xXxXzX#X%X.X3XNX-.-.:.NX<X=XK.F.w * ",
"  , c =X<XMXX.o.$.o.MX6XOX#X#X_.B ! ` h.k.g.d._ ~ S : o s.i.u.W = = % s.p.r.@ = Q t.p.e.A (.zXzXzXzX#X|.:XNX-.-.-.NX1X-XP.F.w & ",
": : < t l D F H O.-...NX:X|.XX).S.4 # ~ _ d.k.k.d.~ 5 o s.i.u.W = = % s.i.r.@ = Q t.p.e.A !.#X#X#X#X|.<X| ..o.| H D l < , 8 8 : ",
"q q a e q 8 t l D } o.-.X.1XW.D.S.A.q 4 + W ' y.u._ + o s.y.u.W = = % s.i.e.@ = Q t.p.e.A A.).(.).E.1Xo.-.| F z y q q q e s i 8 ",
"i A./.)._.~.m 8 < l F X.-.:.} V S P P 4 : > S g.y.` # o s.y.u.W = = % s.i.r.@ = Q t.p.s.A 9 d i D.1Xo.o.1Xx 9 8 s /._._._._.!.s ",
"/._.+X@XhXhXhX[.m e t D J | } S _ g.s.! # + Q g.y.` + C ` y.u.~ + O Q f.i.e.@ = Q r.i.s.! % <.<.S } } -Xc 0 e ~.@XhXhXzXzX$XXX).",
"XX+X@X@X@XhXlXlXlX].n < ; l v S ` k.k.] _ _ ` k.u.^ V C ` l.y.s.` ) ` h.k.` O = Q f.i.h.` s.g.d.~ V z 7 , s '.gXjXhXhX@X@X@XXXXX",
"XX_.Q.m m m ^.eXcXcXgXM 1 : = 6 ~ f.k.g.g.k.k.k.] U 3 5 W s.y.i.l.k.g.g.] U 5 = Q t.i.i.l.l.i.y.^ 5 : 0 M rXjXhX[.~.n e m !.).).",
"/.a , : , : , n '.lXcXlX[.Q.0 > 6 W ` g.g.d.d.) # 6 a i 4 W ` h.g.d.d._ U 4 8 e Q s.h.h.h.h.h.h.^ X , ~.gXlXgXM 0 : : , , , a S.",
"8 , < u z c y 8 0 ~.jXvXlXxX@X^.m u S % % % S Z w A./.S.d 4 S P P P S S 4 a !./.K P P % % P <.P S u ~.hXcXgX~., 7 x D P.K.7 : 8 ",
": t =X-X1X1XH z , 8 ^.cXvXcXlXxX*X=X; = = q s s q e e g ,XK.i A.A.i c K.y 0 a a s s a : & t F =X{.eXgXcXcX~., 9 =XMXNX3X;XW.t = ",
"w P.2X>X3X4XNX1Xz : b jXFXFXsXnXCX1X7 : e A.s 0 0 q 8 c 3X-XS.+X+XS.=X>Xu 0 q 0 q s A.a = t 1X5XnXsXFXaXgX0 : z MXo.NX>XE.E.Y.w ",
"J.;XT.F.L.;XmXZX<Xy 1 rXFXGXI ,.:.<X9 , e e q g Y.G.i z 4X-X/.eXjX/.-X1Xl a D.G.g i i a : 9 -XX.+.1.PXFX].1 y <XX.mXP.G.g J.R.U.",
"}.R.d 0 9 c -XmXmXc 1 ].GX0.5.*.X.W.q , q f P.<X;XG.d D NX-X).tXpX`.<XNXx 0 H. X;XW.d 0 : 9 W.X.*.5.9.GX'., F.4XX.=Xp 8 : w G.R.",
"H.p : = : < z 4X4XI.1 ^.KXv.] @.4XR.D.d I.-XNXBXT.i f <XZX;X_.tXpX_.<XX.F w a E.7X4X-XL.p G.R.MX&.( v.KX^., h 3XNXP.: *   * 8 D.",
"i = * , 8 * 7 4X3Xf 0 eXKXC.( #.9X X;X>X1XX.ZX8XG.0 c 1XZX;XXXpXpXoX-Xo.} j 8 G. XBXo.MX>X;X6X4X>.( C.8.]., F.3XmXK.= & , : = , ",
": * , s a = l 4X>X9 b yX9.x.( &.NXNXZXo.>.;.CX&XA.9 =X| X.6XXXtXpXOX3X-.X.K., a {.qX,.;.:.ZXVXNX>.( a.q.tX1 f >X1XW.> : A.s : * ",
": : s A., < P.4Xc , n iXN.z.( E =.=.=.=.4.+.nX$Xs 9 F ....2XOXlXkXOX<X#.$.D , 0 ].iX2.6.=.=.>.;.%.( j.q.dXb < U.4X>Xf : A.S.8   ",
"q A.S.a : l :X>X9 , ^.sXN.z.d.] ] ] ] d.B.m.fXhXs 8 F #.$.VX.XzXhXOX1X@.%.G 8 n eXsX0.B.] ] 3.3.( ] c.q.aX^., f :X2XW.< s S.A.q ",
"/.).S.8 > P.2Xz : e eXGXq.n.x.Z.Z.Z.C.n.w.7.JXjXQ., G #.%.X.7X%X%X XMX@.$.F a ~.tXDXq.N.n.C.C.Z.z.z.n.7.aX[.0 < U.:X;X9 8 S.).S.",
"oX).s = ; >X;Xy , !.hXaXDXq.0.m.m.0.0.9.q.PXSXaX[.e v { T -.4X.X&X9XO.T { x m ].aXLXSXPXIX9.0.m.M.v.w.DXaXhXa , y ;X:Xh : e ).).",
").S., - z :XU.= e _.@XlXcXpXyXyXyXuX{.uXuXdXJXHXpX^.y L T $.NX8X6XMX$.T J d ^.dXJXaXtXrX].].uXiXfXfXsXaXlX@X/.a , U.2XT.> : !.oX",
"/.e * 3 T.:Xg = a )._.@X@X[.'.n 1 1 1 1 0 M eXGXHXtXs v { T -.4X4X..T { x ~.dXHXpX].n 0 0 0 0 1 b M '.[.@X+X!.q : F.3X;Xp : s ).",
"A.= - c :X>Xp * 8 a a s e 0 0 a !.!.).!.a , b rXFXaX'.r L @.@.o.o.@.@.H D.wXFXaX'.a q s !././.!.e , , e a Q.a 0 : F.4X2Xg * , /.",
"A.* - K.4X2Xg = * = = = : 0 S.).XXXXXXXX).!.8 b pXJXpX~.v { T $.@.T O.x ^.aXFXrXe 8 !.XXXXXXoX)./.!.0 = = = = = = I.BX4XW.* = S.",
"S.* > U.4X2XR.p : = = 8 s )./.A.s s A./.XXXX!.0 ^.sXDXrXp G #.T R { D d tXHXtXn 0 /.XXXX_.S.a e s /./.a 8 = = : 9 U.BX0XW.= : S.",
"S.= , F.2X0X9X XR.J.G.H./.!.e : = = : s ).XXXXa n dXLXpXs v [ R R [ I.~.aXHXrXe m XXXX).a , = * = a !.).)./.D.d R.6X0X9Xh = , S.",
"/.q = y ;X0X0X9X7X6X XR.q : = , , : * , Q.XXXXs n tXSXaX(.w G @.@.H A.[.aXFX[.0 Q.XX).s : = 8 a , = 8 s /.oX}.|.6X9X9X;X9 = a /.",
").A.= > U.;X7X7X7X|.J.p = = 8 s S.e * : s XXXXs e eXFXpXXXa l |  .l A.@XaXaX[.e s oX).a = = a S.A.8 = = e S.J. X6X6XE.g : : S./.",
"S.H.q * - u h h g p < = : e A./.S.8 * , A.)./.a b eXaXkXXXs 9 =X-Xp A.#XkXvXhXe e /.).a = = 8 A././.a : = = w g F.g 9 : : a S.s ",
"i /./.a : = = = : = : 8 A././.A.0 = * e /.S.e , n jXcXhX).a , P.=X0 s oXhXcXjXm , a S.A.8 = = e /.)._.).e = * = = = = : s H.S.q ",
"q s /./.s , = = : 0 A.).)./.s 0 : * 8 s S.a : 0 '.lXzXXXH.q , K.K., i ).$XlXlX@Xa , a s s 8 * * e S.).XX).A.e , , , e !.).S.q 8 ",
"9 q s /./.S.H.S.H.).oX)./.A.q * * : a a , : 8 !.hXgX$XH.p : : g h : , D.oXhXlXzX+Xa : , 0 8 *   = q A.).XXoX)./.).).).oXS.q , 8 "
};
