/* XPM */
static char *rcp59526856115755261[] = {
/* columns rows colors chars-per-pixel */
"64 64 206 2 ",
"   c #2C221D",
".  c #2F291F",
"X  c #35261D",
"o  c #3A261D",
"O  c #31291F",
"+  c #3D2A1D",
"@  c #2D2621",
"#  c #2E2A23",
"$  c #2D2F2A",
"%  c #302620",
"&  c #332C22",
"*  c #3C2D23",
"=  c #342D29",
"-  c #2F3425",
";  c #2F342C",
":  c #343325",
">  c #3D3324",
",  c #323B26",
"<  c #3B3A26",
"1  c #31362C",
"2  c #3B352A",
"3  c #333B2C",
"4  c #3B3B2C",
"5  c #2E3533",
"6  c #2E3936",
"7  c #2E3C3B",
"8  c #313334",
"9  c #3A3730",
"0  c #323B32",
"q  c #3B3B31",
"w  c #313D3B",
"e  c #3C3F3F",
"r  c #45261D",
"t  c #4C271C",
"y  c #432B1F",
"u  c #4B2A1E",
"i  c #53271B",
"p  c #532A1D",
"a  c #5A2B1B",
"s  c #46301F",
"d  c #49311F",
"f  c #53341F",
"g  c #5F321C",
"h  c #652C1C",
"j  c #6B2E1C",
"k  c #722F1D",
"l  c #65331C",
"z  c #6B341B",
"x  c #6B3A1C",
"c  c #74311E",
"v  c #7C331E",
"b  c #723B1E",
"n  c #7A3C1D",
"m  c #432D21",
"M  c #4B2B21",
"N  c #443324",
"B  c #4A3322",
"V  c #463B24",
"C  c #4C3B25",
"Z  c #42362A",
"A  c #4A3529",
"S  c #433B2A",
"D  c #4C3D29",
"F  c #543423",
"G  c #5B3722",
"H  c #533923",
"J  c #5B3A22",
"K  c #503228",
"L  c #513F28",
"P  c #433D32",
"I  c #483E32",
"U  c #603522",
"Y  c #633C23",
"T  c #693F23",
"R  c #7B3C21",
"E  c #3C4126",
"W  c #37412C",
"Q  c #3E432C",
"!  c #344134",
"~  c #3C4433",
"^  c #3E4830",
"/  c #35453B",
"(  c #3B433A",
")  c #37483A",
"_  c #38483A",
"`  c #6C421E",
"'  c #75441F",
"]  c #7C481E",
"[  c #434326",
"{  c #4B4527",
"}  c #4E4C27",
"|  c #42442B",
" . c #4B412C",
".. c #454C2D",
"X. c #4C4C2A",
"o. c #5B4226",
"O. c #564A27",
"+. c #54422A",
"@. c #5A4228",
"#. c #544C28",
"$. c #5B4A2A",
"%. c #4F512C",
"&. c #52522B",
"*. c #5C522D",
"=. c #444336",
"-. c #444B33",
";. c #494D36",
":. c #44433D",
">. c #4B4538",
",. c #444D39",
"<. c #484E38",
"1. c #544531",
"2. c #584C34",
"3. c #5C4C34",
"4. c #514F3E",
"5. c #4F5139",
"6. c #515137",
"7. c #5A5334",
"8. c #5B513C",
"9. c #654224",
"0. c #6A4425",
"q. c #6A4A22",
"w. c #6A4925",
"e. c #624C2A",
"r. c #774823",
"t. c #744E29",
"y. c #63522B",
"u. c #67562A",
"i. c #6A532B",
"p. c #795527",
"a. c #7B532A",
"s. c #745C2C",
"d. c #624D34",
"f. c #665332",
"g. c #6A5234",
"h. c #6B5933",
"j. c #605738",
"k. c #6D5C39",
"l. c #755E33",
"z. c #725D3C",
"x. c #795F3B",
"c. c #6E6231",
"v. c #766332",
"b. c #76613B",
"n. c #7D623A",
"m. c #3C3F40",
"M. c #344443",
"N. c #344545",
"B. c #3C4341",
"V. c #364949",
"C. c #384848",
"Z. c #394C4C",
"A. c #384C4D",
"S. c #444C45",
"D. c #44514B",
"F. c #565445",
"G. c #6D5E41",
"H. c #746141",
"J. c #80371F",
"K. c #823D1D",
"L. c #823D21",
"P. c #83451D",
"I. c #85481E",
"U. c #8E4D1D",
"Y. c #914E1E",
"T. c #94521F",
"R. c #9A561D",
"E. c #9E591E",
"W. c #A15B1E",
"Q. c #AB631F",
"!. c #B1671F",
"~. c #854221",
"^. c #894622",
"/. c #864B23",
"(. c #8F4E25",
"). c #814F28",
"_. c #914C24",
"`. c #875020",
"'. c #8B5424",
"]. c #835B2F",
"[. c #8C5F2F",
"{. c #925227",
"}. c #9B5C25",
"|. c #965A2A",
" X c #8A662E",
".X c #9B622B",
"XX c #886731",
"oX c #81663F",
"OX c #936130",
"+X c #9D6B34",
"@X c #A76A28",
"#X c #A26E35",
"$X c #A97638",
"%X c #AE7A3A",
"&X c #B17C39",
"*X c #836740",
"=X c #886E45",
"-X c #897048",
";X c #94774A",
":X c #95794C",
">X c #9E8050",
",X c #A68655",
"<X c #AE8E5A",
"1X c #AF905C",
"2X c #B1915D",
"3X c #BB975C",
/* pixels */
"y B H H H H H H H H H H H H H H H H H H H H H H H H H H H H H H H H H H H H H H H H H H H H H H H H H H H H H H H H H H H H H + ",
"y + + + + + + + + + + + + + + + + + + + + + + + + + + + + + + + + + + + + + + + + + + + + + + + + + + + + + + + + + + + + + + + ",
"B +                                                                                                                         + y ",
"B +                                                                                                                         + s ",
"s +   l n n l         : Q ^ Q : r j c t                     6 N.V.V.6 @                 r h c c t                 2 D  .<   + m ",
"s +   z K.K.z = q q 2 4 ^ -.Q : r k c p           + m y o   6 Z.Z.Z.w @                 r j v c i         5 w w 5 2 D  .<   o m ",
"s +   '.@X@X'.2 :.:.9 +.i.l.i.V p ^.(.g         X d J J y   6 Z.Z.Z.7 @                 f '..X.Xx       @ 6 N.N.6 2 D  .< . + B ",
"s +   z P.P.z 2 :.:.4 4 -.;...: r c c p         X Y a.a.f   1.G.G.G.1..     > { X.{ N r p b L.L.a       @ w 8.8.0 2 S S 2 . + s ",
"s +   z K.K.z 9.].].w.| -.-.^ : r k c p # - , , : d Y J y   w D.D.D.w @     > } &.X.V y i j v c i       @ 6 M.M.6 2 D  .< . + s ",
"s +   z }.}.z Z >.>.Z 4 -.-.^ : r k c i # - W , : d J H y   6 Z.Z.Z.7 H ' ` 9.i.s.i.H y i j v c p # : : $ 6 N.N.6 2  . .S . + s ",
"s +   z I.P.z 2 :.:.9 4 -.-.^ : r c c p & V $.O.V y J J y   6 G.H.G.7 ' W.R.q.#.*.O.C y i j v c p : W , : 6 N.N.6 2 D  .< . + y ",
"s +   z K.K.z 2 :.:.9 4 -.-.^ : r k c p # < [ E > d J H y   6 D.D.D.7 r.!.Q.q.X.&.} C y i j v c p : W , : 6 N.N.6 2 D  .<   o m ",
"s +   z K.K.z 2 :.:.9 4 -.-.^ : r k c p # - , , : d J H y   6 Z.Z.Z.7 ' W.R.q.y.s.*.C y i j v c p , W , - 6 N.N.6 2 D  .< . + m ",
"s +   z K.K.z 2 :.:.9 4 -.-.Q : r k c p . - , , : y J H y   6 Z.Z.Z.7 ' Q.E.q.#.u.#.V y i j v c p , y.#.: 6 N.N.6 2  . .< . + s ",
"s +   l K.K.z 2 :.:.9 4 -.-.Q : r k c p # - , , : d J H y   6 Z.Z.Z.7 ' Q.W.q.} &.X.V y i j v c p , } | : 6 N.N.6 2  . .< . + s ",
"s +   l K.K.z 2 :.:.9 4 -.-.^ : r k c p # - , , : d J H +   6 Z.Z.Z.7 ' Q.W.q.X.&.X.V r i j v c p , W , 1 6 N.N.6 2  . .S . + s ",
"B +   l K.K.z 2 :.:.9 4 -.h...: r R ^.p # - , , : d J J y   6 Z.Z.Z.7 r.Q.W.q.X.&.X.V y p j {./.p , W , : 6 N.N.6 2 D  .S . + s ",
"s +   l K.K.z C d.d.+.4 -.7...: r v L.p # - , , : H 9.9.d   6 Z.Z.Z.7 ' W.R.q.X.&.X.V y i j {./.p , W W : 6 B.B.6 2 D  .S . + s ",
"s +   l K.K.z H g.g.@.4 ^ -.Q : r k c p # - , , : J t.r.f   6 Z.Z.Z.7 ' W.R.q.X.&.} V y i j v c p , W , : 6 4.4.w <  . .S . + y ",
"y y + g b x l Z I I Z S [ | [ > y l z p > < < < < B H H s + 9 :.:.:.q T `.I.o.{ O.{ C m p l b z f < 4 4 : 4 ( ( 4 Z D D S * y y ",
"y s s d d d d d d d s s s d d d d s d d d d d d d d d d s d s s s d d s s s d d d d d d d d d d d d d d d d d d d d d s s d s y ",
"y + X o X o o X o X o o o X o o o X X X X X X X X o o o o o X X X X X X X o o X o X X X X X X X X X X X X X X X X X X X X X + m ",
"B +                                                                                                                         * A ",
"B +     @ @ @ @                       # # # # @         & * * &             X X X             . % & O .                     + A ",
"B +   1 ) ) ) 0 #           X r r r = M.Z.Z.V.6       X *.c.c.*..         > C @.C &         . E ....E O             * m * @ * A ",
"B +   4 ;.<.<.Q &   @ % % . t c v c K M.Z.Z.V.6       X y.v.v.y..         > H o.C &         O E X.X.E O             OX&X#X* * A ",
"B +   o.l.v.l.e.*   < ..| : u c v c K B.Z.Z.C.w       X p. X Xp.X   X X X C w.a.0.*   @ @ @ * w.XXXXw.+             OX&X#X* * A ",
"B +   1 ) _ ) 0 #   < ..| : u c J.c U d.H.H.k.D       X *.c.c.*.. x U.Y.P.C D L D & $ w N./ 1 E ....E %   y F F r o [.$X+X* * A ",
"B +   1 _ ,._ 0 #   C e.$.N p (..X(.G M.Z.Z.V.6       X *.c.c.*.. b T.R.I.H L o.D & $ w N.M.1 E X.X.E &   y F F y o o.s.e.& * A ",
"B +   1 ,.b.5.0 #   < ..| : u k v c A M.Z.Z.V.6 - 3 3 : *.c.c.*.. `.@X@X}.H w.a.+.& $ w N.M.1 [ XXXX[ & X G ).).G o OX%X#X= * A ",
"B +   1 ) ) ) 0 * u S ..| : u k v c A M.Z.Z.V.6 - 3 3 : *.c.c.*.. x Y.T.P.H D @.D & $ w N./ 1 E ....E & X y F F y o OX&X#X> * A ",
"B +   1 ) _ _ 0 m p S ..| : u c v c K M.D.F.V.w V e.e.V *.c.c.*.@ x Y.T.P.H D @.D & $ w N./ 1 E ....E & X y F F y o OX&X#X> * A ",
"B +   1 ) _ ) 0 m p S ..| : u c v k K M.Z.Z.V.6 : 3 , : *.c.c.*.. x }.@XU.C D @.D & $ w N./ 1 E ....E & X y F F y o OX&X#X> * A ",
"B +   1 ) _ ) 0 m p S ..| : u k v k K M.Z.Z.V.6 - , 3 : *.c.c.*.. x U.Y.P.H D @.D & $ w N./ 1 E ....E & . y T T y o OX&X#X> * A ",
"B +   ; ) _ _ 0 B x { ..| : u k v k A M.Z.Z.V.6 - , 3 : *.c.c.*.@ x U.Y.P.H D @.D & $ w V.M.1 E ....E & X m F F m o OX&X#X> * A ",
"B +   ; ) _ _ 0 m p S ..| : u c v c A M.Z.Z.V.6 - 3 , : *.c.c.*.# x Y.T.P.H D @.D : $ 7 V.M.1 E ....E & O m F F m o OX&X#XN * A ",
"B +   ; ) _ _ 0 m p S ..| : u k v k A M.Z.Z.V.6 - 3 3 : *.c.c.*.# x Y.T.P.H D @.D : > d.z.f.{ E ....E : O y F F m o OX&X#XN * A ",
"B +   ; ) _ _ 0 m p S ..| : u k v k A M.Z.Z.V.6 : 3 3 : y.XXXX*.# x U.Y.P.C D @.D : 1 ( S.( 4 E ....E : X y F F m o OX&X#XN * A ",
"B +   1 ) ) ) 0 m p S ..| : u R |.R K M.Z.Z.V.6 : 3 3 : *.v.v.*.# x U.Y.P.H D @.D : ; w N.M.1 E ....E : % y F F m + OX$X+XN * A ",
"B +   ; j.k.k.=.m p S ..| : u v ^.v A M.Z.Z.V.6 - 3 3 : *.c.c.*.# x U.Y.P.H L @.D : ; w N.M.1 E ....E : O y F F m o OX%X#XN * A ",
"B +   1 ,.,.,.0 m p S ..| : u c v c A M.Z.Z.V.6 - 3 3 : *.c.c.*.% ' E.W.U.H D @.D : ; w N./ 1 E ....E : % m F F m + OX%X#XN * A ",
"y s * S S S S S B F C  .V N d l z l F P =.=.=.4 > S S N +.e.e.+.> x ] ] ' H H H C N 2 Z P P S V { { V N > B H H B y t.].a.A B B ",
"y s B B d d B B B B B B B d d d d d d d d B d d d d d d d B d B d d d d d d d d d d d d d B d B B B B d B B B B B B B B B B B m ",
"y + X X X X X X X X X X X X X X X X X X X X X X X X X X X X X X X X X X X X X X X X X X X X X X X X X X X X X X X X X X X X * m ",
"B +                     @ # # # .                           @ # # @                           @ # # # @                 . . * B ",
"B +   D 3.2.+.*   . .   $ 0 0 0 $                           ; 0 ! 1                         # w Z.V.N.5         & : 2 2 & . * B ",
"B +   oX<X<X;XD         $ 0 0 0 $   X + y y + X             ; ! ! 1         X o o o X       # w F.F.S.5         4 -.;.<.4 @ * B ",
"B + . x.,X>X=XD         : 4 =.4 &   X s J J B +   # = = #   : ~ =.4         u k v k t       # w F.F.S.5         S 7.7.7. .% + B ",
"B +   g.-X=Xz.N X o o o V $.f.$.N   + f w.w.J s . 8 e e 1   S 2.3.D O O & & p v L.v p X o X = 7 Z.Z.M.5         L f.h.h.+.% + B ",
"B +   oX<X<X;XD a v v j N 0 ! 0 $   + Y [. Xt.H @ 8 :.:.1   1 ! ! 1 E &.&.X.J ~._.L.h u F M * 7 Z.Z.M.5 @ % @ @ 4 -.;.;.q @ + B ",
"B +   oX<X<X;XD g L.L.b N 0 ! 0 $ @ X s J J B + @ P 3.3.Z . 1 ! ! 1 E &.&.X.H c v k a G 0.Y A 7 Z.Z.N.6 4 =.=.4 4 -.6.;.q @ + B ",
"B +   oX3X3X:XD r..X.X'.D 0 ! 0 ; 1 : s J J H y @ 8 e e 1 . 1 ! ! 1 E &.&.X.G c v k a Y r.T A 7 Z.Z.N.w 4 >.>.4 4 ;.n.7.q @ * B ",
"B +   *X2X<X:XD a c v j N 0 ! 0 1 1 : s J J H y @ 8 e e 8 . 1 ! ~ 1 [ *.*.&.G c v k i u F M * w Z.Z.N.0 +.d.d.D 4 -.;.;.q % * B ",
"B +   oX1X<X:XD a c v j N 0 ! 0 1 1 : s J J H y @ 5 m.e 8 . ; -.6.1 [ u.s.y.G c R k i u F M * w Z.Z.N.w 4 =.=.4 q <.;.;.q @ * B ",
"B +   oX1X<X:XD a v J.j N 0 ! 0 ; 1 : s J J H y @ 8 e e 1 @ 1 ! ! 1 E &.&.X.H c v k i M F M * w Z.Z.N.w 9 =.=.4 q -.<.;.q @ * B ",
"B +   oX1X<X:XD a (..Xb N 0 ! 0 1 1 : B J J H y @ 8 m.e 8 . 1 ! ! 1 E &.&.X.H c R k i M F M * w Z.Z.N.w q =.=.4 q -.<.<.q # * B ",
"B +   oX1X<X:XD a v v j > 0 ! 0 1 1 : s J J H y @ 8 B.e 8 . 1 ! ! 1 E &.&.X.H c v k i M F M * w Z.Z.M.8 9 =.=.9 q -.<.<.q @ * B ",
"B +   n.<X<X;XD a c v j N 0 ! 0 1 1 : B J J H y @ 8 B.e 8 . 1 ! ! 1 E &.&.X.H c v k i M F M * w Z.Z.N.8 q =.=.9 q -.<.<.q @ * B ",
"B +   1.b.z.3.> a c v j Y a.XXa.D 1 < 9.OXOXa.J @ 8 B.e 8 . 1 ! ! 1 E &.&.X.H R {.R i M F M * w V.V.M.8 q =.=.9 q 7.n.z.q # * B ",
"B +   *X2X2X:XD a c v j N 0 ! 0 1 1 : B 9.9.H s @ 8 e e 8 @ 1 ! ! 1 E %.&.X.H c L.c i M F M * ( z.z.8.0 9 =.=.9 q ;.6.5.q @ * B ",
"B +   oX2X2X:XD a c v j N 0 0 0 ; 1 : s J J B + @ 8 e e 8 @ 1 ! ! 1 E %.&.X.H c c k i M F M * w Z.Z.M.w 9 =.=.9 9 -.,.,.q % * B ",
"y H H H H H H H H H H H H H H H H H H H H H H H H H H H H H H H H H H H H H H H H H H H H H H H H H H H H H H H H H H H H H H m ",
"y + + + + + + + + + + + + + + + + + + + + + + + + + + + + + + + + + + + + + + + + + + + + + + + + + + + + + + + + + + + + + + * ",
"B +                                                                                                               . . @ @ @ % m "
};
