/* XPM */
static char *rcp13322996115758902[] = {
/* columns rows colors chars-per-pixel */
"64 64 228 2 ",
"   c #2D1F1B",
".  c #2E211C",
"X  c #2E2C1F",
"o  c #34231C",
"O  c #3A261C",
"+  c #3D291D",
"@  c #2E2522",
"#  c #2D2A25",
"$  c #2F2E2B",
"%  c #352D24",
"&  c #392C24",
"*  c #312C2B",
"=  c #2D3325",
"-  c #273927",
";  c #2E3C26",
":  c #2C352A",
">  c #273A28",
",  c #2D3B2A",
"<  c #323224",
"1  c #3C3525",
"2  c #323B27",
"3  c #3A3A27",
"4  c #32322A",
"5  c #3B362E",
"6  c #313D28",
"7  c #3E3C2A",
"8  c #2F3434",
"9  c #2F3C38",
"0  c #323633",
"q  c #333935",
"w  c #3A3B35",
"e  c #3A3936",
"r  c #333C3B",
"t  c #402617",
"y  c #412419",
"u  c #4D271C",
"i  c #442B1E",
"p  c #492E1F",
"a  c #522D1B",
"s  c #5E2A1A",
"d  c #43321F",
"f  c #4D331E",
"g  c #51321E",
"h  c #59361D",
"j  c #5A381C",
"k  c #622917",
"l  c #6A2A17",
"z  c #622B19",
"x  c #6A2C19",
"c  c #752E18",
"v  c #772E18",
"b  c #68381D",
"n  c #763219",
"m  c #7C321B",
"M  c #763B1E",
"N  c #7B3A1C",
"B  c #462E20",
"V  c #4D2D20",
"C  c #532E20",
"Z  c #453325",
"A  c #4C3521",
"S  c #4A3C27",
"D  c #413D29",
"F  c #553521",
"G  c #5B3623",
"H  c #543C24",
"J  c #5B3922",
"K  c #5A3629",
"L  c #523B2A",
"P  c #5D392A",
"I  c #463D32",
"U  c #613725",
"Y  c #653D22",
"T  c #6A3E21",
"R  c #6A3F29",
"E  c #733E21",
"W  c #7A3C22",
"Q  c #2E412F",
"!  c #344426",
"~  c #384727",
"^  c #344926",
"/  c #3A442D",
"(  c #354C2C",
")  c #3B4A2C",
"_  c #2F4430",
"`  c #364736",
"'  c #3D4C33",
"]  c #37413C",
"[  c #39443C",
"{  c #364C3F",
"}  c #3D5331",
"|  c #3E553A",
" . c #73431E",
".. c #47472A",
"X. c #4B452A",
"o. c #544326",
"O. c #54422B",
"+. c #5A4628",
"@. c #43522C",
"#. c #4E532A",
"$. c #59572A",
"%. c #474838",
"&. c #544433",
"*. c #574A35",
"=. c #4D5432",
"-. c #415B34",
";. c #475839",
":. c #455B3C",
">. c #585537",
",. c #654523",
"<. c #6C4123",
"1. c #654823",
"2. c #6B4A25",
"3. c #67482B",
"4. c #6E4D2D",
"5. c #724223",
"6. c #774927",
"7. c #7A4923",
"8. c #68542B",
"9. c #785628",
"0. c #6A4E36",
"q. c #645739",
"w. c #765A36",
"e. c #4B633E",
"r. c #5A633C",
"t. c #6F632F",
"y. c #6E6D2E",
"u. c #776829",
"i. c #716F2E",
"p. c #76742E",
"a. c #67663A",
"s. c #7A6536",
"d. c #7D7A30",
"f. c #7A723D",
"g. c #374445",
"h. c #394443",
"j. c #354F41",
"k. c #3B4947",
"l. c #3C454E",
"z. c #364B49",
"x. c #3A4949",
"c. c #385041",
"v. c #3F4A55",
"b. c #474A47",
"n. c #4B5548",
"m. c #59574A",
"M. c #404B55",
"N. c #494F50",
"B. c #425C55",
"V. c #4E555A",
"C. c #665A44",
"Z. c #645E52",
"A. c #5B6A41",
"S. c #5F7448",
"D. c #476454",
"F. c #486454",
"G. c #566752",
"H. c #676849",
"J. c #76694B",
"K. c #617549",
"L. c #747549",
"P. c #666053",
"I. c #786B54",
"U. c #495761",
"Y. c #4A5862",
"T. c #84341C",
"R. c #8A351C",
"E. c #853D1B",
"W. c #8B3A1C",
"Q. c #90371D",
"!. c #91391D",
"~. c #873A21",
"^. c #953A21",
"/. c #983922",
"(. c #86451E",
"). c #88421F",
"_. c #95431D",
"`. c #9B491E",
"'. c #9E511D",
"]. c #A34F1E",
"[. c #A5561E",
"{. c #814624",
"}. c #834D21",
"|. c #8E4820",
" X c #984421",
".X c #9A4B21",
"XX c #89582A",
"oX c #965A27",
"OX c #845A33",
"+X c #A55723",
"@X c #AC5325",
"#X c #86682B",
"$X c #99642A",
"%X c #8E6734",
"&X c #936B36",
"*X c #877637",
"=X c #96753B",
"-X c #A7682A",
";X c #B66923",
":X c #B26E2B",
">X c #A5722D",
",X c #B9732B",
"<X c #A67536",
"1X c #B57C35",
"2X c #C27E32",
"3X c #836D46",
"4X c #956D43",
"5X c #857345",
"6X c #987744",
"7X c #9B7B45",
"8X c #A37742",
"9X c #AF8134",
"0X c #C78C3D",
"qX c #D08C39",
"wX c #8E8347",
"eX c #A88447",
"rX c #B98645",
"tX c #B0864D",
"yX c #B58F59",
"uX c #AE9A63",
"iX c #BC9762",
"pX c #BFA068",
"aX c #C38C4C",
"sX c #C29A62",
"dX c #C3A36B",
"fX c #C8A36D",
"gX c #C6A86F",
"hX c #C6A970",
/* pixels */
"i Y Y Y T Y Y T Y Y Y Y Y Y Y Y Y Y Y Y T Y Y T T T T Y T T Y T T <.T <.T T T T T T T T T T T T T T T T T T T T T T T T Y Y Y i ",
"i p p p p p p p p p p p p p p p p p p p p p p p p p p p p p p p p p f p p p p p p p p B p p p p p p f p p p p p p p p p p p p i ",
"f + o . . . . o o o o . . . . o o o o o   . . o o o . . . o o o .   . . . o . . . . . . . . o . . . . o . . . . o . . . . o + f ",
"g +   # q r 4 .         .       O h Y g O     < ;.;.~ X . .               . 5 g.g.:             1 m.m.1                     + g ",
"f +   $ ] h.0 s T.R.v O   w.uXyX3.J <.h 5 r r ` e.e.) # . . . g $X1X>X5.  . e z.z.8           . 7 Z.Z.7 .     : k.k.: .     + g ",
"g + . 6.<X<XOXx Q.!.v + = 3XfXsX%X$X1XoX&.h.g.*.6X6X8.d x n x M :XqX2X}.  O 0.3XJ.+.i F V + O o 9.eXeX9.o     4.eXeX4..     + g ",
"f +   Z *.*.I z ;X;XE.+ > s.aX1X6.,.2.Y +.q.q.>.a.a.@.H .X@X+X{.9.#X9.+.  o %.n.n.I B P K i O   X.C.C.X.= 2 = %.G.G.I .     + g ",
"g +   $ r ] 8 z !._.m g H &XsXyX4.J <.h D b.b.>.=X7X8.A W. X^.(.-X9X:X7.  . e z.z.q h -XoXa O   7 m.Z.7 ; ^ ; 9 B.B.q .     + g ",
"g +   * ] h.0 z R.!.v i 2 5XfXsX4.J <.h 5 g.g.%.r.r.@.H .X@X+X.X:XqX2X}.  . e n.n.q V <.R i O   7 Z.Z.D 2.$X2.r 7X7Xq .     + g ",
"g +   * ] h.0 z ;X;XE.+ > 3XfXsX4.<.>XY 5 g.g.` e.e.) A W.]. X|.:XqX2X}.  . e z.z.q B P K i O   7 J.I.7 ..$...r H.H.9 .     + g ",
"g +   * ] ] 0 z `.].m + > 3XfXsX4.Y XXJ 5 h.g.` e.e.) A m /.R.).:XqX2X}.  . e n.n.q B P K i O   7 eXrXS ; ^ ; 9 B.B.9       + g ",
"g +   $ ] ] 0 s W.!.v + > 5XfXiX4.J <.h 5 h.g.` e.e.) A T./.R.).:XqX2X}.  o e x.x.0 B P K i O   7 J.3X7 ; ^ ; 9 B.B.9 .   . + g ",
"g +   $ ] h.0 s R.!.v + > 3XfXsX4.J <.F 5 g.g.` e.e.) A T./.R.(.:XqX2X}.  . e z.z.0 B P K i O   7 Z.Z.7 ; ^ ; 9 B.B.q . . . + g ",
"g +   $ ] ] 0 s W.!.v + > 3XfXiX4.J <.F 5 g.g.` e.e.) A T./.R.(.:XqX2X}.  o e z.z.0 B P K i O . 7 Z.P.7 ; ^ ; 9 B.B.q .   . + f ",
"g +   $ ] ] 8 s R.!.v + > 3XfXiX4.J <.h 5 g.g.` e.e.) A T./.R.).:XqX2X}.  @ e z.z.0 B P K i O . 7 Z.P.7 ; ^ ; 9 B.B.q .   . + g ",
"g + . * ] ] 0 s R.!.v + > s.aXrX2.J <.F 5 g.g.` e.e.) A T./.~.{.-X&X$X}.  @ e z.z.0 g oXXXp O . 7 Z.P.7 ; ^ ; r B.B.q .     + g ",
"g +   A 3.8.H k R.W.v + > s.sXyX4.<.>XY 5 g.g.` e.e.) A T.;X~.).-X1X>X}.  o e z.z.q V 6.6.p O . 7 Z.Z.7 ; ^ ; 3.7X7X3..   . + g ",
"g + . 1 &.*.S z [.[.N + > 3XfXiX4.Y XXJ I n.n.%.e.e.) A T.@X~.).:XqX2X}.  O *.H.C.&.B P K i O . 7 3X5XD ; ^ ; &.J.J.&.. . . + g ",
"g + . * ] ] 0 s '.[.N + - 3XdXiX4.J <.h I b.b.%.e.e.) A T.^.T.(.:XqX2X}.. O &.C.C.I B P K i O . D 3X3XD ; ^ ; r B.B.r . . . i g ",
"p h f A O.O.S b M N b F S w.4X4X2.Y <.Y L &.&.O.$.>.+.J W ~.W 7.oX-X$X7.F F L *.&.L J Y Y F h g H 0.0.o.X.o.H L >.>.L f f f h p ",
"i g F F F F F F F F F F F F F F F F F F F F F F F F F F F F F F J J J F F F F J F F F F F F F F F F F F F F F F F F F F F F F i ",
"p i O O O O O O O O O O O O O O O O O O O O O O O O O O O O O O O O O O O + O O O O O O O O O O O O O O O O O O O O O O O O i p ",
"f +             @ < 2 < .             .   % D ..7 % . @ * e 0 @         o y p p O   .   . % 4 * # @   .   .                 + g ",
"g +   y u u y o 2 } -.) @ . . O p p i O o ..A.K.A.D . * l.U.v.0 . . . . o h E T f . . . . 0 [ [ 4 # t u u y . .   @ < = @ . + g ",
"g + . l T.R.v o X.t.s.$.& . . p 5.{.T u t +.*XwX*Xo.. & C.I.C.I X < < @ % j E T f . . . o +.w.w.o.# M  X Xn o . . ; ( ( ; . + g ",
"g + . N ].+XE.O o.s.*X8.D 0 0 Y oX-XXXj t 1.*XwX*Xo.. B C.I.C.X.! ) ~ ; <  .oXoXb . . . o 3.s.s.+.# M .X.XN o . . o.t.t.+.o + g ",
"g + . l R.R.v o 2 } -.) ] k.h.3.oX:XoXb t X.A.K.A.D . * l.U.M.e o.$.$.D 2 7.+XoXb @ = $ @ q ] ] 4 # x  X_.n 1 ..1 +.s.s.1.o + g ",
"g + . l `.`.n o 2 } ;.) e b.%.H 5.{.E a t +.f.5Xf.X.. * l.U.M.%.9.#X#Xo.4 j E b f : _ _ : q q.q.0 # M ].+XN =.A.=.6 ( ( 6 . + g ",
"g + . l +X;XN o 2 @.u.) X.q.*.J 5.{.E a t 2.=XeX=X+.. * l.Y.M.r ! $.@.6 4 h E T f : _ _ = q =X&X0 # z R.R.l =.A.=.6 ( ( 6 . + g ",
"g + . l R.R.v o 2 } | ) r k.h.L 5.{.T a t X.A.K.A.D . * l.U.M.r ! u.#.6 4 h E T f : _ _ : q q.q.0 # z R.R.l =.A.=.6 @.$.6 . + g ",
"g +   l R.R.v o 2 } -.) ] k.h.L E {.T a t X.A.K.A.D . * l.U.M.r ! ) ~ 2 4 j E T g D @.@.3 q =X=X0 # z R.R.l =.A.=.6 @.$.! . + g ",
"g +   l R.R.v o 2 } -.) r k.h.L 5.{.T a t X.A.K.A.D . * l.U.M.r ! ) ~ 6 4 j E T h 2.#X9.o.0 ] ] 4 # z R.R.l =.A.=.6 ( ( 6 . + g ",
"g + . l R.R.v o 2 } -.) ] k.h.L 5.{.T a t X.A.K.A.D . * l.Y.M.r ! ) ~ 2 4 h E T g : _ Q = 0 [ ] 0 # z R.R.l =.A.=.6 ( ( 6 . + g ",
"g + . l R.R.v O 2 } -.) ] k.h.L E {.T a t X.A.K.A.D . * l.U.M.r ! ) ~ 6 4 b }.{.j : _ _ : 0 [ ] 4 # z R.R.l #.A.=.6 ( ( ! . + g ",
"g + . l _.`.n o 2 } -.) ] k.h.L }.oX7.h t X.A.S.A.D . * l.U.M.r ! ) ~ 2 1 }.:X-X .: _ _ : 0 [ ] 0 # z R.R.l =.A.=.6 ( ( 6 . + g ",
"g + . l ,X,XN o 3 =.r.@.] k.h.4.-X,X-Xb t X.A.eXA.D . * b.V.N.e ~ #.@.6 4 h E T f : _ _ = I %.%.5 # z R.W.x =.A.=./ #.#./ . + g ",
"g + . l R.R.v o <.>X1XXX%.k.h.L E 7.b a t X.A.L.A.D . Z w.=XOXO.$.<X#X, 4 j E T f : _ _ < XX1X1X6.# z  X+Xx =.A.=.6.>X<X9.o + g ",
"g + . l R.R.v o 2 } -.) ] k.h.L E 7.T a t X.A.K.A.D . * l.U.M.r ! ^ ~ 6 4 h E T f : _ _ : q h.h.0 # z R.R.l #.A.=.6 ( ( ! . + g ",
"f p O x T.T.n + 3 @.@.) e b.[ L T 5.T g i X.r.H.r.S O & b.V.N.e ~ ) ~ 3 1 h E T g 3 / / 2 e %.[ 5 % x T.T.x #.r.=.~ ) ) ~ O p f ",
"i Y T <.Y Y Y T T T T Y b T T Y Y Y T T <.T T T T <.5.5.5.5.5.5.5.5.5.5.5.5.5.5.5.5.5.5.5.5.5.5.<.5.<.<.<.<.<.<.<.<.<.<.<.<.T i ",
"i p p p B B p p B B B B B B B B p p p p B p B B B B B p B B B B B B B B B B B B B B B B B B B B B B B B B B p p p p p p p p p p ",
"f +   . . . . .                         . . . . . . .   . . . .   . o . . . . . . . . . . o . . . . . .         .         . + g ",
"g + . / :.:.' .   . . . . . . . . . . . . . . . . o o o . . . . o V U F i . . . . . @ c.D.D.{ 8 . . . . . . .     k T.T.l o + g ",
"g + . / :.:.' @ i F G V % q ] 0 @ . . X.y.p.y.#.f v R.m a . . . o C Y G i . . . . . @ c.F.F.{ 8 . . . ; ( ( ; .   k T.R.x o + g ",
"g + . XX<X<XXX+ i F G V % 9.,XXXf . . X.i.d.y.#.f v R.m a , Q , Z }.,X-Xb . Z tXdXpX8XoX0X0XXX0 . . . ; ( ( ; . . k T.T.l o + g ",
"g + . ..:.:.%.o b oX-X7.Z e %.e % . . ..y.d.y.#.o.oX;X-X<., _ , % F Y G p . Z tXhXdX7X{ G.G.{ 8 . . . 2.>X>X6.o . (.;X;X(.o + g ",
"g + . / :.:.' o p U Y F % q ] 0 C v m 7.>X9X>X9.f m W.T.a , _ , % V U F i . & q.L.L.q.j.F.F.{ 8 r g.r 3 @.@.3 . . z W.W.x o + g ",
"g + . / r.s.' o i G G V % w.<X*.C m m ,.i.*Xi.#.f m R.m a , _ , % Y :XoXi . Z tXdXpX6X;.0X0X{ 8 r z.r , ( ( ; . . k T.T.l o + g ",
"g + . / :.:.' o i G G V % e [ q C m m ,.i.d.y.#.f m R.m b 6.XX9.h C Y G i . Z tXgXdX6Xj.G.G.{ 8 r k.r , ( ( ; . . k _.'.l o + g ",
"g + . / :.:.' . i F K V % q ] 0 Y .X.X9.i.d.y.#.f n R.m a 7 ) ~ & V U F i . Z tXgXdX6Xj.F.D.{ 8 r k.r , ( ( ; .   k R.W.l o + g ",
"f +   / :.:.' o i F G V % q ] 0 F E.W.2.i.d.y.#.f n R.m a , _ , % V U F i . Z tXgXdX6Xj.F.F.{ 8 r k.r , ( ( ; . . k T.T.l o + g ",
"g + . / :.:.' . i F K V % q ] 0 C m m 1.i.d.y.#.f n R.m a , _ , % V U F i . Z tXgXdX6Xj.D.D.{ 8 r k.r , ( ( ; . . k T.T.l o + g ",
"g + . / :.:.' o i F G V % q ] 0 C m m 1.i.d.y.#.f n R.m a , _ , % V U F i . Z tXgXdX6Xj.D.F.j.0 r k.r , ( ( ; . . k T.T.l o + g ",
"g + . / :.:.' o i F G V % q ] 0 C m m 1.i.d.y.#.f n R.m a , _ , % V U F i . Z tXgXdX6Xj.F.D.j.0 r k.r , ( ( ; . . k T.T.l o + g ",
"g + . / ;.:.' o i F G V % q ] 0 C m m 1.i.d.y.#.f v '.m a , _ , % V U F i   Z tXgXdX6Xj.F.F.{ 0 r k.r , ( ( ; . . k T.T.l o + g ",
"g + . / r.a.' o i F G V % q ] 0 C m m ,.i.9Xy.#.f n _.m a , _ , 1 5.oXoXh . & s.wX5Xt.j.F.D.{ 0 r k.r 1.#X#X1.o . M +X+X(.o + g ",
"g + . / :.e.' . i F G V % 8.%X&.C m m 1.y.*Xy.#.f n R.m a , _ , < G 6.T p . Z 7XuXuX5X;.eXeX{ 8 r k.r X.$.$.X.. . b _._.n o + g ",
"g + . / :.:.' . i F G V % %.>.e C m m 1.i.d.y.#.f m T.m a , _ , % C G G i . Z tXhXdX6Xc.L.L.{ 8 r k.r , ( ( ; . . k T.T.l o + g ",
"p h f o.+.*.+.A F Y Y G F L L L Y E E <.8.9.8.1.Y M M M Y H o.o.H Y T Y J F Y %X4X4XOX&.>.>.&.L &.&.O.H +.+.o.F F b N M b g h p ",
"i F F F F F F F F F F F F F F F F F F F F F F F F F h F F F F F F F F F F F F F F F F F F F F F F F F F F F F F F F F F F F F i ",
"p i O O O O O O o o O O O O O O O O o O O O O O O O O O O O O O O O O O O O O O O O O O O O O O O O O O O O O O O O O O O O + f ",
"g +                                                                                                                         + f ",
"g + O o o o o o o o o o o o O o o o o o o o o o o o o o o O o o o o O o o o o O o O O O o o o o o O o O o o o o O O O O o o + f ",
"f + + + + + + + + + + + + + + + + + + + + + + + + + + + + + + + + + + + + + + + + + + + + + + + + + + + + + + + + + + + + + + f "
};
