/* XPM */
static char *dc94baa188b34e6df89772587867dc29K5DbFrKewOTCHpBo[] = {
/* columns rows colors chars-per-pixel */
"64 64 227 2 ",
"   c #12161D",
".  c #141A1C",
"X  c #1A1B1D",
"o  c #0E141B",
"O  c #2A1F1A",
"+  c #241D1C",
"@  c #1A201E",
"#  c #2D211B",
"$  c #262A1D",
"%  c #36241C",
"&  c #30321E",
"*  c #151A22",
"=  c #191E25",
"-  c #141C28",
";  c #111F31",
":  c #1D222C",
">  c #1D2321",
",  c #162435",
"<  c #1D2532",
"1  c #1D2A3B",
"2  c #1A2738",
"3  c #252C24",
"4  c #2A2D25",
"5  c #23252D",
"6  c #292528",
"7  c #352A25",
"8  c #352A28",
"9  c #2D342A",
"0  c #2A3127",
"q  c #363924",
"w  c #3A3C25",
"e  c #32352D",
"r  c #333A2E",
"t  c #383925",
"y  c #212731",
"u  c #242A33",
"i  c #292C33",
"p  c #232D3A",
"a  c #292E39",
"s  c #2B343C",
"d  c #2B373E",
"f  c #383836",
"g  c #302F34",
"h  c #442A1E",
"j  c #56371E",
"k  c #6B3D1E",
"l  c #65391D",
"z  c #703F1E",
"x  c #4B3627",
"c  c #553422",
"v  c #5C3C22",
"b  c #573A28",
"n  c #423D3D",
"m  c #453B35",
"M  c #452C23",
"N  c #653C26",
"B  c #793E23",
"V  c #3E412A",
"C  c #3B4233",
"Z  c #3D4238",
"A  c #73411F",
"S  c #43452B",
"D  c #46492D",
"F  c #4A4C2F",
"G  c #5D422E",
"H  c #414537",
"J  c #4B4E30",
"K  c #4B423C",
"L  c #454A3B",
"P  c #4A4D3D",
"I  c #42453B",
"U  c #4E5031",
"Y  c #4C513E",
"T  c #535534",
"R  c #5F4331",
"E  c #664329",
"W  c #7B4024",
"Q  c #75442F",
"!  c #684A34",
"~  c #754B34",
"^  c #7B553C",
"/  c #7B583B",
"(  c #1F3246",
")  c #1C2E43",
"_  c #212F41",
"`  c #243345",
"'  c #233549",
"]  c #2A394D",
"[  c #2B3745",
"{  c #313C4C",
"}  c #343B43",
"|  c #2C3D52",
" . c #243A51",
".. c #343F50",
"X. c #423F41",
"o. c #2E4157",
"O. c #334254",
"+. c #32455B",
"@. c #35485E",
"#. c #3B485B",
"$. c #38414F",
"%. c #364C63",
"&. c #3A4D64",
"*. c #374E68",
"=. c #3C526B",
"-. c #3C5067",
";. c #3E5671",
":. c #494545",
">. c #544E49",
",. c #554C46",
"<. c #4E5341",
"1. c #515542",
"2. c #555A45",
"3. c #585C47",
"4. c #5B534D",
"5. c #5A5C4A",
"6. c #57534A",
"7. c #5D5753",
"8. c #4B4950",
"9. c #67564A",
"0. c #795945",
"q. c #635A54",
"w. c #6A5D54",
"e. c #645C57",
"r. c #674F44",
"t. c #5D614B",
"y. c #696353",
"u. c #42556C",
"i. c #42536A",
"p. c #455972",
"a. c #4A5C75",
"s. c #4C5F79",
"d. c #4E617C",
"f. c #51647E",
"g. c #8E3C32",
"h. c #923E33",
"j. c #8A392F",
"k. c #8A4527",
"l. c #9C4E2A",
"z. c #974C27",
"x. c #8B5B25",
"c. c #9D512A",
"v. c #955926",
"b. c #964536",
"n. c #8B5B3C",
"m. c #865838",
"M. c #98543D",
"N. c #8F4033",
"B. c #A44D2A",
"V. c #A94D2B",
"C. c #A4522B",
"Z. c #AB552B",
"A. c #AD582B",
"S. c #A35227",
"D. c #B2552D",
"F. c #B35A2C",
"G. c #BB5E2D",
"H. c #B9552E",
"J. c #AA5337",
"K. c #9B6527",
"L. c #976326",
"P. c #8C613D",
"I. c #98633B",
"U. c #BD612E",
"Y. c #AA732C",
"T. c #B4792F",
"R. c #B3782E",
"E. c #AB6C3B",
"W. c #A3673C",
"Q. c #B3723E",
"!. c #B97838",
"~. c #AB6F35",
"^. c #C15F2F",
"/. c #C2622E",
"(. c #C8682F",
"). c #C86331",
"_. c #C97A33",
"`. c #865D42",
"'. c #9C5841",
"]. c #A45B42",
"[. c #A75A42",
"{. c #8F6142",
"}. c #946342",
"|. c #9C6944",
" X c #A46B43",
".X c #AA6948",
"XX c #AD734D",
"oX c #A9744A",
"OX c #B47541",
"+X c #BA7642",
"@X c #BC7944",
"#X c #B5774C",
"$X c #AD7350",
"%X c #B47954",
"&X c #BA7C54",
"*X c #B57753",
"=X c #B16849",
"-X c #C37D45",
";X c #C57E49",
":X c #C17E56",
">X c #BD8233",
",X c #CB8737",
"<X c #D38D39",
"1X c #D28638",
"2X c #D5933A",
"3X c #DA943C",
"4X c #DC993C",
"5X c #CF9038",
"6X c #E19D3D",
"7X c #E4A23F",
"8X c #BE8258",
"9X c #C6814A",
"0X c #CB844B",
"qX c #C98247",
"wX c #C48459",
"eX c #E5A340",
"rX c #526682",
"tX c #566985",
"yX c #556985",
"uX c #596B87",
"iX c #576B88",
"pX c #596D8A",
"aX c #5A6D8A",
"sX c #5D718E",
"dX c #576B88",
"fX c #607390",
"gX c #60738F",
/* pixels */
"h O # O + O O # O # # # O # O O O # # # # O O O # O # O O O O O 7 yXaXyXyXsXrXyXyXyXaXrXyXaXf.yXsXaXrXaXd.f.sXd.d.yXaXs.rXaXaXd.",
"C.l.A.l.B k.k.z.z.l.Z.C.k.C.l.C.C.D.D.C.C.k.C.C.z.k.z.k.z.l.k.B b f.rXaXyXyXaXaXf.yXyXaXrXyXaXsXf.aXaXyXsXaXsXf.sXyXs.rXaXaXiXrX",
"C.Z.A.A.l.D.^.G./.F.A.^.F.).).).G.Z.C.D.Z.G.^.F.G.Z.Z.D.C.F.G.B.c uXaXaXyXfXfXyXyXrXsXfXsXaXsXiXuXsXaXfXfXfXyXyXfXfXyXyXyXrXa.a.",
"+ # h h h N A.F.D.D.D.C.F.A.G.F.Z.Z.F.F.G.D.F./.G././.G.G.Z.G.S.M aXaXsXsXyXfXsXaXgXfXyXaXsXaXsXaXaXaXaXaXaXyXsXaXsXrXs.rXi.i.u.",
"W l B l.B % # # M 8 6 6 6 8 c c k.k.C.C.l.l.C.F.C.F.Z.Z.A.A.c.B M f.a.d.yXyXyXaXfXfXyXaXaXaXaXaXfXaXf.yXyXaXrXrXf.i.$.} a y [ [ ",
"C.C.F.G.A.Z.C.C.l.k.B k.k.N h # 6 6 7 7 M % 6 6 6 O + O 6 8 f g g [ } #.a.uXf.f.rXa.uXrXf.uXa.yXf.a.p.p.#.{ [ : : : i O.@.i.p.u.",
"c.G.Z.A.G.A././././.G.F.F.F.G.F.C.C.C.A.C.Z.c.Z.Z.C.C.A.C.C.C.c.M u.$.y : < : : < < y y < y : : : < u u i y O.&.i.i.a.yXrXaXrXrX",
"Z.F.G.D./.D.G.F.G.F.F.G.Z.F.G.G./.D.U./.G././.G./.G./.G./.Z./.F.c rXyXa.i.s.u.d.f.f.f.f.p.f.f.f.f.f.rXrXf.u.d.rXd.aXf.aXyXsXaXiX",
"l.F.U./.Z.W W B W W W W W W W B G.G.F.U.G.U.G.D.G.U./.U.U.G.F.c.c yXrXsXsXrXyXf.rXyXyXd.yXaXp.p.sXf.aXsXrXyXaXaXaXaXaXf.yXsXf.yX",
"C.G.D./.z.6 5 5 5 5 5 5 5 5 5 + k.D.D.Z.% + + + + + + + % Z.D.l.c f.yXsXrX[ u u y y u y s [ u : f.yXyXd.d.yXyXf.yXf.rXf.f.rXaXyX",
"A.Z./.G.z.X : *     : * * * = X z.A.A.C.X * < < < < : o O C.C.F.c rXsXf.rXi     * : 5 *   * = = d.iXsXyXyXd.yXaXyXf.aXrXyXsXyXa.",
"Z.G././.c.X u *     u *   * : X z.G.G.D.+ y p u y : =   % F.F.Z.c yXyXaXd.s * * * s : = = * 5 = s.sXrXsXyXyXd.f.yXaXyXyXsXyXaXa.",
"z.F.D./.l.X u * = * u * * * y X c.U.A.D.+ < : = : : =   % D.G.l.N rXaXaXuXs * = * s = = * * u : yXfXsXyXyXyXyXaXyXaXiXsXfXaXrXd.",
"z.G./.F.k.X u *     u       y X l.D.U.D.X = * * *   *   # Z./.F.v f.sXrXyXp     * i *     * y = uXaXaXaXrXiXyXyXyXrXuXf.yXyXyXyX",
"Z.D.U.C.B   :       :       y X z.A.G.C.X * *       * o # F.F.F.N uXyXuXyXa     * u     * * y = rXrXaXaXaXyXd.yXiXyXyXrXaXaXaXd.",
"Z.G.G.G.N   =       =       * X c.G.F.C.X             o % F.G.S.N yXaXsXyXy       :         = = d.aXsXf.f.yXaXyXf.yXsXsXyXf.rXyX",
"C.G.F.U.k.6 s u i g f i i i i 6 z.F.Z.Z.h h % % O O O O % A.F.S.c rXrXsXrX: : : : y : = = = : = rXsXgXyXyXsXuXd.rXsXaXd.f.f.rXd.",
"z.F.U.Z.Z.z.c.k.c.c.Z.c.A.A.z.z.C.C.A.D.C.A.z.A.A.Z.C.C.A.C.l.z.c f.rXyXaXa.d.a.d.d.p.p.p.s.u.u.rXrXyXsXaXrXyXaXsXaXf.s.yXyXaXp.",
"Z././.F.Z.G.G.Z.F.F.F.l.Z.Z.G.S.F.F.A.A.U.F.C.G./.F.U.C.S.F.A.Z.c a.sXsXyXrXiXsXsXiXaXaXaXsXiXsXaXrXaXiXyXd.yXsXiXyXyXyXyXyXyXp.",
"Z.G.S.S.A.S.l.Z.Z.A.A.z.z.Z.A.A.C.Z.Z.z.C.c.C.Z.Z.F.F.c.l.C.F.S.c f.sXyXyXsXaXrXyXsXsXyXyXyXyXsXiXyXyXaXrXaXyXf.aXyXrXaXaXrXf.d.",
"k k k z A k j A A A l k k k k A k k A l k k k l k k l l k k k k h f.yXaXyXsXyXuXaXaXrXaXsXsXyXaXrXsXsXrXyXaXyXyXyXrXyXaXrXyXyXd.",
"x.x.x.K.L.K.L.K.K.K.L.K.x.x.L.K.K.K.L.K.K.L.K.K.L.K.x.x.L.K.K.K.x.8.s.rXf.yXaXaXrXaXyXaXyXf.yXyXd.yXyXd.yXyXaXyXyXyXd.rXrXaXd.yX",
",X5X3X3X2X2X2X2X3X2X2X2X5X<X2X2X2X2X,X2X2X2X4X4X,X2X3X2X,X5X,X,X>X:.d.yXyXaXyXaXd.f.aXd.d.yXrXrXyXsXyXrXrXd.rXd.d.yXyXrXrXrXiXrX",
"2X4XA.V.(.2X3XH.(.4XF.Z.U.6X7X2XZ.Z._.4X/.D._.4X4XD.D.G.2XZ.B.A.!.:.d.aXaXaXaXf.yXf.iXyXyXrXyXd.yXaXf.rXaXrXrXyXyXrXaXrXrXrXrXaX",
"3X2Xl._.V.,XF._.Z.<XC.,XZ.<X7X3XB._.D.,XZ.1XD.<X6X2X_.H.3XB.,X2XT.} a.rXiXf.aXyXyXaXaXaXd.yXaXyXuXrXrXaXsXaXrXyXyXaXrXrXrXaXd.yX",
"4X<XB.V./.2XZ.1XD.<XC.V.G.4XeX4XZ.<XA.<XZ.<XD.3X4X4XH.1X2XB.D.<XR.f u.yXrXyXrXyXsXyXyXyXrXf.yXrXf.yXyXf.yXrXd.rXaXsXaXrXd.yXrXyX",
"4X3XZ.1XH.3XB.B.V.<XZ.1XH.4X4X4XC.,XZ.,XC.<XV.<X4XD.,X4X4XV.1X4X>Xi +.d.s.rXs.yXrXyXrXsXiXyXd.s.rXyXiXrXa.a.yXd.rXd.yXyXyXyXs.s.",
"2X<XS.C.B.3XA.1XG.1XA.4XV.<X7X6XB.Z.<X6XG.D._.2X6XB.B.D.4XB.B.F.!.x 4 f n f f X.n n n n f n n :.n n X.:.f f X.f f n n f :.:.f e ",
",X3X,X1X,X2X3X4X2X4X2X2X2X6X4X4X,X<X2X7X<X1X6X6X5X,X,X!.2X<X1X_.R.c 8 m K m m m n m m m K K K m K K K K K K K K K m m m m m m m ",
"T.Y.T.T.T.R.Y.Y.R.R.Y.Y.R.T.R.T.Y.Y.Y.R.R.T.T.Y.Y.Y.Y.Y.Y.T.>XY.L.b m ,.>.>.>.,.,.>.,.q.,.>.6.:.,.>.4.,.,.4.>.6.4.,.,.>.>.,.,.n ",
"E E E E E E v N E v v v c E E E v v v j N N v j v v j v v N v v c 7 n q.q.4.4.,.,.e.7.4.4.e.q.q.4.q.4.4.q.4.6.6.6.q.7.,.4.e.7.K ",
"m.W. X XOXW.n. X.X X X|. X XI.I. XI.W.I.m.I.W.W.W.W.W.I.M.I.I.I.m.# I 7.7.7.e.4.e.e.e.7.e.e.e.e.7.e.q.e.q.q.e.e.q.q.w.w.w.e.>.L ",
"E.+X;X0X-X-X-X-X;X0X0X@X;X;X;X;X;X+X;X0X+X+X+X-X+X-X-XQ.@X-XOX-XE.7 :.7.4.e.e.4.w.e.4.4.4.4.7.6.q.q.q.q.6.4.4.q.w.q.q.q.w.w.6.H ",
"@X+X0X0X9X-X9X9X+X@X@X9X0X0X;X9X-X;X-X@X-XE.+X@X+X;X;X+X-XQ.@XOXW.% I 4.7.e.y.e.e.w.w.4.4.4.w.w.w.4.q.6.,.q.q.4.w.y.w.q.y.w.>.H ",
"Q.@X0X-XqX0X9X0X-X-X@X0X0X9X0X;X0X0X-X9X0X-X0X0X0X0X;X0X;X+X-X-XW.# n 7.e.>.i i i u i u i i u i i d q.P 0 r r e r r f r r ,.q.P ",
"Q.+X-XQ.x 8 7 7 8 7 7 7 7 7 7 7 7 8 E.@X-X-XE.8 7 7 7 7 7 7 8 OXQ.# Z 6.7.:.: < p ] ] ` ` ' ` 1 2 : >.L .           .   . e 6.L ",
"Q.Q.!.@X= ; 2 , , , , , , , , 2 ; = Q.@XQ.0XW.* ; , , , , , = +XE.# Z 4.e.>.u +.-.=.=.;.=.;.;.%.o.p 4.L . > X > X X . >   0 1.L ",
"Q.-X_.+X5 p | ] ] ` ] p ' | ] +.] 5 E.-X-XqXOX5 ` ` | | | ` 5 +XE.% :.e.e.4.y -.*.+.+.%.@.%.*.+.| u w.P . 3 3 r 4 9 0 9 . 9 4.P ",
"@X-XqXQ.5 ` | | ' 1 | p ` ] | ] | 5 E.-X+XqX@Xu ' | o.o.| ' 5 OXOX# K 4.6.6.y %.=.=.=.@.%.=.@.&.o.y 4.<.X 3 3 C 0 C 0 9 . r 1.P ",
"Q.@XqXOX5 _ | | ` p | p ` | ] ` ` 5 E.-XQ.-XOX5 1 ` ` ' ` 1 5 @XE.# K q.q.,.5 @.%.@.+.| | @.+.| ] : q.L . 3 3 C 0 C 9 r . r <.P ",
"Q.qXqXOX5 1 ] ] ] _ ] _ ' | | ` ` 5 Q.!.-XqXOXu ' ] ] ] ] _ u OXE.# H 3.5.<.5 =.p.;.%.=.=.=.;.&.+.s 5.P . 3 3 C 9 C 9 9 . r 1.L ",
"Q.-X-X@X5 , 1 2 1 , 2 2 1 1 1 2 2 5 OX-XqX-XOX5 ' | | | | ' u +XQ.# H <.1.<.p ` ` ` ` ` ` ` ] ` ` u 5.P . 3 3 C 9 C 9 r . r 4.P ",
"@XqXqX@XP.P.P.}. XI.I.|.|.}.|.I.I.I.-X@X+X-XOX5 ] | ] o.| ` 5 +XE.# L 2.3.1.Z f Z Z C Z H <.P <.L H 2.H X 3 3 Z 9 C 0 r . 9 P P ",
"Q.@X0X@XqX0X0X0X0X0X0X0X-X0X0X0X0X@XQ.-XQ.+XE.u ] o.| | o.' u OXW.% Y t.3.<.1.t.1.t.2.2.t.t.3.t.t.t.3.P X 0 0 C 0 C 0 e . r P L ",
"OX-X9X0X0X9X@X9X-X0X9X0X0X0X9X-X-XOXQ.qX@X-XOX5 ` | | | ] ` u @XE.% P t.t.1.1.2.2.3.2.3.t.2.t.t.2.3.3.1.@ 0 9 C 0 r 9 r . r L H ",
"Q.E.I.W.I.m.m.I.m.P./ I.I.n.n.m./ m.m.I.@X0X@Xi ' | | | | ` 5 OXE.% L 3.2.2.t.3.<.2.t.<.2.1.2.3.t.t.3.L X 9 0 C e r 9 r . r L H ",
"E G b R G x x b b x x b b x x x x x x b OX0X+Xi | | | | o.` 5 +XE.# H 3.1.3.1.2.1.1.1.1.2.t.2.t.3.3.3.H . 9 3 C r Z e r . e P H ",
"! / n./ / / P./ ^ / / / / / ~ / ~ ~ ! ~ +X@X Xu | | | O.O.` 5 OXE.# H 1.t.2.1.<.P L P 1.2.t.3.3.1.1.2.L X 9 3 C 3 r e r . r H H ",
"P.oX#X#X#XoX#XoXoXoXoXoXoXXX|.oX X|.P.m.@X-XOXu ' o.+.| | ] u OXQ.# r Y 3.1.Y Y <.P <.1.<.1.Y 2.t.3.Y L @ e 3 C 0 r e 9 . 9 H C ",
"G G R ! ! ! ! R R ! ! R ! ! ! R ! b b x E ! E 8 g g g g g g 8 E E 7 6 e e e f f H e f f e e e r f e 4 4 6 4 4 4 4 4 4 3 6 4 e 4 ",
"~ ^ ^ 0.^ 0.`.`.^ ^ `.0.`.^ `.0.`.^ `.`.^ `./ }.}.n.m.{.P.{.n.m.R i s { ` ] ..O.O.{ { { [ ..{ [ [ ] ] [ { { { [ { { [ [ { [ [ [ ",
"XX%X].%X].&X].M.*X].].&X[.M.*X=X].%X].M.&X.X&X[.*X[.&X.X:X[.[.&X`.u o.*.-.;.;.=.*.=.=.=.*.=.*.=.*.=.=.=.%.*.%.@.=.*.=.*.*.+.%.@.",
"XX$Xh.b.g.XXh.].$Xh.].M.g.].XXb.].M.j.M.].h.XXg.XXb.*XN.XX].h.XXn.u +.&.=.=.=.=.&.=.;.;.*.=.=.=.*.-.;.=.%.=.=.-.=.*.;.;.;.=.%.+.",
"XX*Xb.M.b.$Xb.'.XXb.M.'.b.8X&Xb.M.h.b.&Xb.b.*XJ.M.N.M.N..X8XJ.%X`.5 o.=.&.d s d } d } [ d d } [ d d d s s [ [ d d [ } } } %.=.O.",
"oX%Xb..Xg..Xg.'.$Xh.M.M.j.M.XXN.M.h.j.M.].h.XXJ.].j.M.h..XM.b.&Xn.y | %.%.$ q w q q q & q q q q q q q w w q q q q q q & $ O.*.@.",
".X*X=X*X=XXX=X&X:X.X&X[.[.[.#X=XwX=X[.[.*X=X:X=XwX=X%X].*X.X].*Xm.5 | %.+.3 t V t t w t w V w w V S V V V V V V w w t q 3 O.&.&.",
".XoX0.r.9.r.9.r.9.9.r.r.9.r.9.9.9.9.9.r.! 9.9.0.*XwX&X&X8X8X8X8X`.s %.=.%.3 w D D S D S S D D S S S S S S S V S S S S w 3 @.=.+.",
" XoXp 1 ' ' ( '  .` ` ` ) ( ' ( 2 ' ' ) ( ' ) u oXwXwXwXwXwXwXwX|.s %.*.&.4 w J J J F D D F D D S D S D D D D F D D J w 3 &.=.@.",
"XX%X} O.=.&.%.&.=.@.&.=.-.&.&.@.` @.&.=.&.&.+.} %X X`.m.}.}.'.*X}.u o.=.*.4 w J D D S D F S S F D S D S S S D D D D J V 4 @.;.&.",
"XX$X} %.u.&.=.p.&.=.u.u.p.&.=.%.` @.=.-.&.=.%.} %XN v N b N N %X`.a o.*.%.4 V U F D D F F D F F J D D F D S S J U F F S 4 +.&.@.",
".XoXd &.p.u.u.=.=.p.u.&.=.=.u.@.` O.&.&.=.u.+.d $XE N E N Q N %X{.s o.%.*.3 V J S D J D S F S S D D S S S S D S S D D w 4 &.=.@.",
"XX$Xd o.%.=.%.+.*.*.+.@.+.%.*.%.` +.&.&.&.&.] d oXE b b Q N N %X`.a +.=.*.0 V U T T U F F U F U J F D F F U J J D F D w 4 =.u.&.",
"XX%XK :.>.:.n :.:.:.:.>.:.:.>.8.f :.8.:.:.:.} f oXN N b N b b &X|.a +.=.%.4 w D U F S D D D F D S V S D F S S F S S V w 4 &.=.+.",
".X*Xn.}.n.m.n.n.n.n.n.n.n.}.}.n.m.^ m.n.m.~ ~ ^ XX~ Q Q ~ ~ Q *X}.i +.=.*.4 S T T J J T T J T U U U T T T U U T T J U S 4 @.=.&."
};
