/* XPM */
static char *e5dcf7a65d834faec20c4f2b4b160b01MNfY2M01WWJCza64[] = {
/* columns rows colors chars-per-pixel */
"64 64 190 2 ",
"   c #0E0E0F",
".  c #0E0F10",
"X  c #100F11",
"o  c #0F1012",
"O  c #131314",
"+  c #1A1514",
"@  c #161619",
"#  c #191718",
"$  c #17181B",
"%  c #191A1D",
"&  c #2F1B14",
"*  c #241F1C",
"=  c #291F1A",
"-  c #351C14",
";  c #21211F",
":  c #2B211C",
">  c #3A221A",
",  c #1D1E22",
"<  c #201D20",
"1  c #1F2026",
"2  c #1F2128",
"3  c #212125",
"4  c #2B2523",
"5  c #2E2B26",
"6  c #24252B",
"7  c #2A272B",
"8  c #27282F",
"9  c #2A2A2E",
"0  c #342724",
"q  c #352825",
"w  c #392A25",
"e  c #302D2D",
"r  c #34322D",
"t  c #39352E",
"y  c #272930",
"u  c #2C2C31",
"i  c #312F34",
"p  c #343234",
"a  c #3B3731",
"s  c #3D3A33",
"d  c #343439",
"f  c #3E3B3A",
"g  c #46261B",
"h  c #4E2A1D",
"j  c #522C1E",
"k  c #432A23",
"l  c #4C2E22",
"z  c #472F29",
"x  c #522E21",
"c  c #4E3126",
"v  c #44332E",
"b  c #4C332C",
"n  c #4E392E",
"m  c #543125",
"M  c #5B3426",
"N  c #53352D",
"B  c #5C362B",
"V  c #533C2D",
"C  c #5C3B2D",
"Z  c #4C3531",
"A  c #413D36",
"S  c #4D3930",
"D  c #423E3A",
"F  c #583931",
"G  c #633625",
"H  c #683724",
"J  c #663826",
"K  c #6A3926",
"L  c #623728",
"P  c #643A2B",
"I  c #6C3B2C",
"U  c #793D27",
"Y  c #733F2C",
"T  c #5E402D",
"R  c #45413B",
"E  c #49453F",
"W  c #554233",
"Q  c #5C4534",
"!  c #5F4836",
"~  c #524A3F",
"^  c #5B483C",
"/  c #64442E",
"(  c #6A452E",
")  c #67482F",
"_  c #76402D",
"`  c #7C412C",
"'  c #654632",
"]  c #684732",
"[  c #624934",
"{  c #6B4A33",
"}  c #634B38",
"|  c #694C39",
" . c #734E34",
".. c #714F39",
"X. c #775137",
"o. c #7C5236",
"O. c #765139",
"+. c #7C5439",
"@. c #7E583E",
"#. c #3F4F4F",
"$. c #3F5254",
"%. c #454241",
"&. c #4B4741",
"*. c #4E4943",
"=. c #4E4B49",
"-. c #514C45",
";. c #534F49",
":. c #4A524F",
">. c #5E5144",
",. c #56514B",
"<. c #5A544D",
"1. c #435152",
"2. c #4E5551",
"3. c #5C5750",
"4. c #515854",
"5. c #5E5952",
"6. c #615446",
"7. c #6B5644",
"8. c #6F5846",
"9. c #62574A",
"0. c #63594B",
"q. c #6B5848",
"w. c #765C47",
"e. c #7B5C44",
"r. c #7D5D4E",
"t. c #615C55",
"y. c #695D52",
"u. c #645F58",
"i. c #7C5F52",
"p. c #66615B",
"a. c #6A645E",
"s. c #7D6357",
"d. c #72675F",
"f. c #6C6661",
"g. c #6E6963",
"h. c #706760",
"j. c #736B64",
"k. c #786E66",
"l. c #776F68",
"z. c #786F68",
"x. c #777069",
"c. c #7B736C",
"v. c #7E7770",
"b. c #7F7871",
"n. c #84432B",
"m. c #8B462B",
"M. c #8E482C",
"N. c #91472B",
"B. c #934A2C",
"V. c #984E2E",
"C. c #804530",
"Z. c #994F30",
"A. c #815437",
"S. c #835639",
"D. c #85593B",
"F. c #8C5C3C",
"G. c #9B5231",
"H. c #905F3D",
"J. c #8F603E",
"K. c #93613E",
"L. c #845D41",
"P. c #8A5E41",
"I. c #876042",
"U. c #8D6141",
"Y. c #956440",
"T. c #996641",
"R. c #996945",
"E. c #836454",
"W. c #856658",
"Q. c #896A5B",
"!. c #827B74",
"~. c #847C75",
"^. c #867D76",
"/. c #8A7F75",
"(. c #867F78",
"). c #897F78",
"_. c #8F8177",
"`. c #878079",
"'. c #89817A",
"]. c #8B837B",
"[. c #8C847C",
"{. c #8E857D",
"}. c #908177",
"|. c #92867B",
" X c #90867E",
".X c #988B7F",
"XX c #958C82",
"oX c #9A8D82",
"OX c #9B9186",
"+X c #A19487",
/* pixels */
"* ; ; ; ; ; ; ; ; ; ; ; ; ; ; ; 3 3 ; ; ; ; ; ; ; ; ; 3 3 3 ; ; 3 ; %  XXX X{.{.{. X{.{.{.{.{.'.{.'.!.!.'.'.'.'.^.^.^.l.!.!.!.c.",
"l G m m G J J H G M M H H M M H H H M c b G J G m J H J m M H J J H G oXXX X^.^.'.{.{.'.'.'.^.!.'.'.'.^.'.^.!.v.^.^.^.c.!.^.^.v.",
"H M.n.n.M.N.N.N.M.n.n.B.B.n.n.N.B.N.n.` ` M.N.m.n.B.B.M.n.n.N.N.M.M.M.OXoX X!.^.).'.{.'.'.'.!.!.'.{.{.'.'.^.c.c.^.^.^.!.!.^.(.b.",
"H N.B.N.N.M.n.M.M.M.M.M.B.B.B.B.B.B.B.B.B.m.m.m.n.M.N.M.M.m.B.m.m.m.n.+XOX{.{.{.{.{.{.{.'.'.'.'.'.{.{.{.{.'.^.^.'.'.(.!.^.^.!.!.",
"4 b B.B.n.P 7 7 b N b v I n.M.N.C I ` _ Y P N v v v N B N b C C b Z b {.{.^.^.'.{.{.{.{.).!.).'.'.{.{.{.{.^.c.j.(.'.(.!.^.c.c.!.",
"G U 0 4 4 c n.N.w 4 4 3 4 4 4 4 4 4 4 4 4 4 L N.N.N.N.N.B.N.B.N.B.B.N..XXX X'.'.^.^.{.{.{.'.'.).'.^.^.^.^.^.^.^.^.^.c.-.-.*.&.E ",
"l G M M M K M.B.J M M M m m m k M M M M M M G G G P H G G P L L P P G |. X'.{.'.'.^.{.{.'.'.'.^.(.^.!.^.(.`.v.t.t.t.t.-.t.t.3.<.",
": x N.n.n.m.m.N.N.N.B.N.M.M.n.I B.B.N.B.B.B.P q w w w 0 4 4 q w w q 0 j.c.j.c.c.c.c.l.c.l.j.c.x.l.j.h.l.c.c.a.a A R *.3.c.b.v.c.",
"H M.n.b N B I M.M.M.M.M.M.M.M.M.n.n.n.Y _ M.B.N.N.N.B.m.I I m.B.B.B.M.q 4 4 4 : : 4 4 ; ; 4 5 5 4 4 4 : 4 5 a u.c.b.^.^.(.^.^.c.",
"H N.M.n.n.n.n.N.B.n.` n.N.B.N.N.B.N.M.n.m.M.B.N.N.B.B.B.B.M.M.M.m.B.m./.^.c.c.j.j.c.c.x.c.c.j.c.j.h.h.a.a.h.j.j.!.!.!.j.j.c.!.c.",
"J B.M.M.M.n.K > b k & - - - > Z - G M.M.M.n.I z - - - - - - U n.m.n.n..XXX{.'.^.^.c.p r p p r p p r r e u.j.j.h.v.c.j.h.c.!.!.!.",
"G m.M.M.M.n.P # 9 3 + + $ $ % i # x M.M.M.M.B 3 O X X O O o H m.M.m.n..XXX'.'.^.^.h.O @ $ # O % @ + @ @ 5.j.j.j.v.c.j.j.!.!.!.!.",
"c _ M.n.n.` P 9 9 9 6 6 p i u p u P V.V.V.B.m , 3 6 6 6 6 6 Y B.V.V.B..X X!.'.'.^.f.O , 3 ,   , O O 3 , a.!.!.!.!.!.!.!.^.!.!.!.",
"J B.B.P B B N + u 3 O O u , $ p O j B.M.m.V.j o 3 6 6 3 1 1 K n.n.n.n._.'.!.`.'.^.g.O , 1 %   , O O , , g.'.`.!.!.!.!.c.!.^.^.b.",
"H m.n.n.n.n.K + 9 3 o O u , $ p o j B.V.B.V.j O 6 3 1 3 6 1 K n.m.m.m._.{.^.c.c.v.j.@ , , , % , % % 6 6 f.^.^.(.`.^.!.v.c.b.^.v.",
"G m.n.n.n.n.U + 9 3 O O u , % p O j B.B.B.B.j @ 9 3 3 6 6 1 Y m.m.n.n.}.{.^.c.z.c.j.@ $ , , @ , % % , % a.!.!.^.!.!.c.c.c.!.^.v.",
"H M.n.n.n.n.n.# 9 6 + O u 3 % p + x M.M.B.M.h O 8 3 6 6 3 1 U B.M.n.n._.{.'.!.c.c.h.O O @ % . , O O % . a.!.!.^.z.j.j.j.^.^.!.v.",
"K V.B.V.M.M.m.i d d 9 3 d p p f u P V.V.B.M.h O 3 3 1 3 3 , M Y _ B.N.}.XX X!.^.!.g.+ O $ % O % O O % . p.!.!.^.c.v.^.j.^.^.!.b.",
"H n.` m.m.n.n.+ 9 3 O O u 3 % p + j B.B.n.n.h + 7 7 9 9 6 6 Y m.m.B.N.oXOX{.!.^.!.f.O % 3 , . $ $ @ % + p.!.!.(.^.^.^.c.c.v.!.v.",
"G n.n.M.M.m.m.h C N g g C m l F g K N.M.m.n.H k N N N N N N ` m.m.B.N.oXOX X!.c.c.g.a D %.%.s D f D D D j.!.!.c.^.^.^.!.c.v.!.c.",
"J B.B.m.m.M.N.V.V.B.m.M.N.N.M.m.B.m.m.M.V.B.m.M.B.m.m.M.V.B.m.n.n.B.N.|.XX{.!.j.j.j.x.c.v.!.^.c.c.c.c.!.!.!.c.h.c.!.!.!.^.!.!.c.",
"J B.V.I I ` m.B.V.n.P P n.m.M.B.V.n.` ` V.V.V.G.G.P P _ G.G.V.Z.V.V.n.}.).c.h.j.c.!.v.b.!.!.(.h.h.h.j.!.!.^.!.a.a.a.h.!.^.!.v.j.",
"G M.M.M.M.m.m.M.` C.n.m.M.B.M.n.B.B.B.M.B.B.M.M.M.n.m.M.B.B.m.m.M.V.B./.).c.c.z.c.(.'.!.!.c.j.h.h.j.v.^.^.c.h.h.v.c.c.j.j.c.!.j.",
"^ E.E.E.Q.Q.Q.Q.s.s.r.E.Q.Q.Q.i.E.E.E.E.E.Q.Q.Q.r.r.E.W.r.r.E.W.W.Q.Q.c.c.j.j.t.a.b.^.^.^.!.c.c.l.j.v.!.!.!.c.c.^.!.b.c.c.c.c.c.",
",.c.c.c.!.^.^.^.c.z.j.c.!.^.!.k.c.c.k.k.c.^.'.!.h.j.c.c.h.d.c.c.c.c.!.j.h.h.a.-.<.j.!.'.^.!.!.!.c.c.v.!.v.!.^.v.!.!.!.v.c.c.l.v.",
"-.h.h.z.c.c.c.c.j.h.h.z.c.z.j.a.h.h.h.h.h.c.v.c.a.a.h.h.a.a.h.j.l.l.j.a.a.a.g.u.<.t.^.^.c.h.!.!.!.!.c.v.h.j.!.c.v.v.!.b.(.^.^.!.",
"t A t A A R R R a A A D s a A R R A a A A a a a A t t a a t a t r t A A A R z.j.f.a.u.c.j.h.j.j.c.v.!.h.a.h.j.(.j.c.v.v.^.c.j.h.",
"v Q W W ! [ } [ ! Q W W ! ! [ } } ! Q Q [ [ [ [ ! ! Q Q ! [ Q Q [ [ Q ! Q W h.f.h.c.c.!.b.v.b.l.c.!.v.c.c.c.c.!.c.l.j.!.c.j.h.f.",
"V X.O. .+.S.D.S.D.+. . .+.S.S.+.D.+.X. .+.S.S.S.+.+.+.+.D.D.+.+.S.S.X.+...} a.h.c.!.!.v.!.!.!.v.!.!.c.c.v.c.c.c.c.j.h.!.c.j.h.a.",
"/ F.K.S.F.Y.Y.H.K.F.F.F.F.F.H.F.Y.H.F.F.F.F.H.H.F.H.H.K.Y.Y.F.F.F.F.F.F.S.O.a.c.^.!.j.j.l.j.l.(.(.!.c.c.c.c.c.v.h.h.j.(.(.c.j.a.",
"/ F.K.F.F.F.F.S.F.F.F.F.Y.Y.K.S.F.F.F.F.F.F.S.A.o.F.H.F.o.o.F.Y.R.R.F.F.F.D.r a a D *.R D R *.-.*.E A A R R A R *.-.-.*.*.E R a ",
"] F.S.S.S.F.F.S.S.S.S.S.S.F.H.F.F.F.F.F.F.D.F.F.F.F.F.F.D.F.F.F.K.Y.F.F.S.X.r E *.-.;.-.*.*.-.-.*.*.*.*.*.&.R &.*.-.,.-.-.-.*.E ",
"] H.F.F.F.F.F.F.F.F.D.F.F.F.H.F.F.F.F.K.H.F.F.H.F.F.F.F.F.F.F.F.F.H.F.F.S. .r ,.<.;.;.<.<.<.<.,.,.<.<.<.,.-.&.,.,.,.<.<.-.,.<.,.",
") H.H.K.H.H.K.Y.T.Y.K.Y.K.H.H.F.S.F.H.Y.H.H.H.F.F.F.F.F.H.F.D.F.F.F.F.F.D.+.A 3.3.,.-.3.3.t.p.t.t.t.t.t.3.<.<.p.u.u.u.u.,.3.u.t.",
") F.A.A.F.F.H.H.K.K.T.T.K.K.K.H.K.K.Y.Y.K.K.H.F.A.F.F.K.T.T.T.T.K.K.H.H.Y.U.E t.a.a.p.3.p.f.p.p.p.p.a.a.f.f.f.g.f.f.f.g.p.a.a.p.",
"] K.H.A.F.F.S.: 0 4 : : = = = = : T H.F.A.S.F.F.F.F.F. .= : : : = : =  .F.D.D 3.t.t.a.p.p.p.p.a.a.a.a.g.g.g.f.a.g.u.<.a.3.t.a.u.",
"] Y.Y.F.K.K.D.+ , , , % O @ % $ $ V K.H.D.D.F.F.F.H.K.{ . $ $ $ $ $ O ] F.D.R 3.u.p.a.a.p.p.a.t.t.t.t.%.%.D D f R s p f 3.p.a.t.",
"] Y.Y.Y.Y.Y.F.O 6 6 6 6 + , 6 3 , V K.K.H.F.F.F.A.H.K. .o , , , , , @ { Y.D.R t.a.f.a.p.p.p.p.<.3.3.t.$ % @ O + O @ % @ 3.a.a.5.",
") H.F.F.F.F.A.O % , , 6 , % , , , V K.H.F.F.F.F.F.F.S./   O O O O O , ..F.X.r <.t.p.j.p.p.t.,.t.a.g.j.$ , % + , O % 6 % ,.a.f.3.",
") K.K.S.S.F.o.+ 6 9 6 3 O % 8 9 9 S A.F.F.F.D.A.F.F.F.( . 3 , , , , 1 { H.F.5 *.3.p.a.p.p.p.t.p.p.p.u.@ 1 , % % , 6 8 $ *.u.a.3.",
"] Y.Y.K.F.F.A.+ , 6 6 , @ % 3 6 3 n A.S.S.H.H.F.F.F.F.( . 6 3 1 3 3 1 { K.J.s ,.t.p.*.R E *.<.a.t.3.<.+ , % + $ @ % , @ -.u.p.,.",
") Y.Y.Y.Y.K.A.+ , 3 3 3 % % 1 3 , n D.D.F.K.Y.K.F.F.S./ . 6 6 3 3 3 , { F.F.A 3.p.p.s D A D E f.t.3.<.@ % % O % O @ % @ ,.u.u.,.",
"] K.H.F.F.F.S.O 6 u u u @ , u u , V F.F.K.K.Y.K.D.A.o.C o 6 8 6 3 3 , { F.o.a 3.p.p.R 3.E r r a.a.p.p.@ , % % , @ % , $ 5.a.a.5.",
"/ H.H.A.F.F.F.< , , , , , , , , 1 n D.F.X.X.X.o.F.F.F.( o 3 3 6 6 1 , ] F.F.r E <.t.D 3.,.&.t a.u.u.f., , , , u 3 3 6 3 3.<.-.,.",
") K.K.K.K.K.F./ ] ' ] { { ] ] ] ] X.S.O.S.D.D.S.X.o.S.( O 3 6 6 6 1 , { F.+.r &.<.t.R R R s a a.a.p.p.&.*.*.*.=.;.,.,.*.5.3.<.;.",
"/ H.Y.Y.K.K.K.F.F.H.H.K.K.K.H.H.H.F.D.+.F.F.K.F.X.o.D.( O 1 6 6 6 6 1 { F.S.r -.3.u.;.*.E D a a.p.t.3.t.a.a.p.p.a.a.a.t.t.t.t.,.",
"/ H.K.K.F.F.F.F.F.H.H.P.U.F.F.H.F.F.F.F.U.F.K.Y.F.F.F.{ O 3 1 6 9 6 2 { F.F.f ,.t.a.p.f.u.,.A t.,.,.3.t.f.f.u.u.t.t.t.u.t.t.t.3.",
") F.S.S.F.F.F.F.F.H.D.1.1.1.,.K.1.1.1.1.1.D.F.F.F.F.H. .O 6 3 6 8 3 , { F.D.a -.3.u.5.p.3.-.D ,.<.t.f.t.t.t.t.,.t.t.p.g.p.a.f.t.",
"] K.F.F.S.S.F.F.F.F.@.#.e.<.,.K.I.I.L.e.1.@.F.F.S.S.F.{ O 8 8 6 6 6 6 ' S.+.a -.3.p.3.*.&.;.f.f.a.a.g.t.t.a.g.f.u.a.f.t.t.3.t.a.",
"] Y.H.K.F.F.F.F.F.F.D.<.U.9.,.Y.Y.Y.L.q.1.D.F.F.S.S.F.{ O 8 y 8 6 8 6 ' S.S.s ;.5.p.3.-.;.3.g.g.a.p.a.t.t.p.f.f.p.p.p.3.3.3.3.f.",
"] Y.Y.Y.K.H.K.F.F.F.F.F.F.6.,.K.Y.U.8.1.:.U.Y.K.F.F.F.) O 6 8 8 y 6 1 { F.F.D ,.t.p.u.p.a.a.a.a.u.t.3.3.t.p.p.p.a.t.<.3.3.3.t.g.",
"] K.H.A.A.S.F.F.F.F.@.$.1.>.+.F.K.9.1.2.D.F.F.H.H.H.H.{ @ , 6 8 y u 6 | F.F.D ,.<.<.u.p.p.a.a.a.u.t.p.j.j.f.p.3.a.a.a.u.p.3.<.3.",
"] Y.Y.F.F.F.S.F.K.w.<.L.e.D.F.H.K.9.,.e.F.H.H.F.+.S.F. .% 6 6 6 6 6 1 { F.D.R <.t.p.t.3.3.t.p.p.u.p.p.f.a.a.p.u.t.3.3.t.p.u.t.3.",
"] K.F.H.K.F.F.F.H.8.1.0.9.9.q.F.S.<.<.H.F.F.F.S.S.S.F.{ , u 8 6 6 6 1 { F.D.R <.u.a.a.p.t.u.f.a.p.u.t.5.u.p.p.p.3.3.t.t.u.u.u.3.",
"] F.S.H.K.K.H.H.F.7.:.4.4.2.<.F.+.<.9.H.F.H.D.+.F.F.D.| 6 d p p i 9 6 | L.D.R 3.u.a.g.g.a.p.j.f.p.u.t.,.t.p.p.p.3.t.a.u.t.u.u.3.",
"/ F.F.K.Y.K.H.F.S.A.A.K.K.H.F.F.S.F.F.F.H.H.D.S.P.y.t.u.j.g.f.p.t.5.<.<.t.t.u.p.p.a.t.a.a.p.g.a.a.a.a.,.u.p.p.f.a.a.a.a.t.t.t.3.",
"C S.A.F.Y.K.S.A.F.F.F.H.H.F.S.A.A.F.F.F.K.S.+.+.P.t.t.t.p.t.3.3.t.3.<.<.t.u.a.a.a.a.t.p.a.a.p.<.t.a.a.,.<.3.3.t.p.t.<.<.3.t.t.3.",
"/ F.F.F.K.H.F.F.K.F.D.D.F.F.F.F.F.F.D.D.D.F.F.D.e.t.t.t.<.<.3.3.3.<.<.<.<.3.t.p.a.p.p.t.u.p.p.3.t.u.u.3.,.,.<.<.u.t.3.3.t.3.,.,.",
"] K.Y.K.F.F.Y.Y.Y.F.D.D.F.F.F.F.F.F.S.S.S.F.L.w.w.u.p.u.<.3.5.t.t.<.t.t.3.<.<.t.u.p.a.u.t.t.p.u.t.5.t.t.<.<.<.3.t.5.3.t.t.<.-.-.",
") K.T.Y.F.F.Y.Y.Y.K.K.K.H.F.F.A.F.F.F.F.F.S.8.5.t.f.g.f.a.a.u.t.t.t.g.j.p.<.3.<.3.a.g.f.t.3.p.p.3.<.3.3.3.5.t.u.3.3.3.u.t.,.-.,.",
") H.K.K.Y.T.T.F.F.F.+.A.F.F.H.K.K.F.F.D.+.+.7.<.t.t.<.,.<.p.u.u.t.t.t.t.t.u.,.t.u.u.p.t.3.3.,.<.3.t.5.t.t.5.3.<.<.3.<.-.-.~ -.;.",
"] K.Y.H.K.K.K.F.H.H.K.K.F.F.H.H.+.+.S.D.6.6.>.<.f.u.t.3.t.a.3.<.<.,.3.t.3.<.3.t.t.t.<.,.<.3.3.3.5.3.3.t.<.<.<.<.-.,.<.,.3.<.,.-.",
") J.J.F.H.F.F.F.H.H.H.K.H.F.F.K.S.S.D.D.,.,.<.t.f.a.u.t.t.u.,.,.<.<.t.t.<.,.3.3.3.3.,.,.<.3.5.5.3.3.,.<.,.,.<.<.-.;.<.<.3.<.<.*.",
"C o. .D.D.S.A.A.A.X. .S.S. . .D.S.S.+.O.~ -.<.t.3.u.3.,.,.;.*.-.,.,.<.,.,.,.-.-.*.*.-.,.,.,.,.,.;.-.*.&.*.*.*.*.&.*.-.-.E &.*.R "
};
