/* XPM */
static char *_7dbe30bd04d4b788de7745c23f85392xM8Nee4ySJav4sv0[] = {
/* columns rows colors chars-per-pixel */
"64 64 71 1 ",
"  c #24241E",
". c #272620",
"X c #282721",
"o c #2C2B24",
"O c #302E28",
"+ c #35332C",
"@ c #38362F",
"# c #3D3A33",
"$ c #423E37",
"% c #413F38",
"& c #45423A",
"* c #4A463E",
"= c #52493F",
"- c #4B4740",
"; c #4D4943",
": c #534D45",
"> c #534E49",
", c #575047",
"< c #585047",
"1 c #56514B",
"2 c #5A544E",
"3 c #5C5651",
"4 c #5E5953",
"5 c #625C55",
"6 c #685E54",
"7 c #645E59",
"8 c #6B6053",
"9 c #66605A",
"0 c #6A645D",
"q c #70675E",
"w c #73685F",
"e c #6D6661",
"r c #6F6862",
"t c #736B65",
"y c #786F67",
"u c #756F68",
"i c #786F68",
"p c #77706A",
"a c #7B736C",
"s c #7C746D",
"d c #7D766F",
"f c #7D7670",
"g c #7F7972",
"h c #80776F",
"j c #807770",
"k c #807973",
"l c #847B72",
"z c #827B75",
"x c #837C74",
"c c #827C75",
"v c #857C75",
"b c #847C76",
"n c #887F77",
"m c #867F79",
"M c #877F79",
"N c #888077",
"B c #87807B",
"V c #88807A",
"C c #8B827B",
"Z c #8B837B",
"A c #8C847B",
"S c #8A837C",
"D c #8B837C",
"F c #8C857D",
"G c #90877E",
"H c #91887F",
"J c #8E8780",
"K c #8F8880",
"L c #908780",
"P c #918981",
"I c #938B83",
/* pixels */
"et099u70reuue34rut9uaaacdamafzbttuaaada99taaaap00ur7rttttpttce09",
"79trrueeruuur00tuutaaudgkcBzdadppadadfkuuuptuttterr0rttufuuugut0",
"47ttruuttpuuttupaadcduaagbVzaaddaafaafkaapuuteruuurrrupagappaaue",
"79990upaapppu0acBBBBfupppamaafmzddzupaaaautztrrufautrgzguffatuue",
"9r9ruppgzppuuuacBBmmfpkkapazddbmzduepzDmdaabuttukauupfattaffppuu",
"0pdkccpppuppaacdppbmbcBmbzzcbzabbdt0uppkdddmuagkzddfaappu009pgau",
"uzbkgmfpuuuupdbauubmmbkkzbbbzgakfprudfddaadmuagkzgkzfpppp900pkdt",
"aBmdaBzauuetudmdpucmbkdakbbbkddduttgcmzpppdbpdkkzzbbzdaaae90azde",
"tazzzzauuaupapBBzucmfpbpdcbmBBBmdpdcckpupdkzknVVbbkdbVbkpdkbbbbp",
"zVDcddzp09paadufzkzDfubzbmVcmbdputtbckadudVPNnnnkdkmnFDVmbzkkcbp",
"fVJbafkzf0dggftdzzzVgubakmVkmVkcaabFmzkVkbVPVAAbkkfddFFVDFFVVbbp",
"abDkafgmmrdkzgufzbbVkafudbVkbVVVffDJBbbFVVVPVFFlbkfdpVVnFFFFFVbp",
"azappazVVdagzzzzcmPVmbtupkFbbmPVdpdVmmmVFFVVVVblFbbLcbkhPFVbbGFd",
"dbpdbDkkzmDbatzzcbKVVDDmmVPmDFDBdabmmmBLGFAbVbbkVVVFVVbdVVVFJLPk",
"aztpgkddgbgpudkppzbDFFFVVFPmmVFFbkkbmmmFPGAbnVVnbbbVbFnhVmFFFVVd",
"azadgkdgzkdupkbapfzBDDVDDDDbbbDJVbbbzkkFFLGVmVVVbkbNnVbkVbVFFBbp",
"gbBczVkmVfffdjDbfdczmVzFVmbbckkFDVDkdddFFPPGVVVVbbbnnnblbbbbVVbu",
"dzddfbmmmDkkkkcBBmdkmDzcVDVFbkfgkzkkdgbFKFVnAnnFFFVndkbbluuycVbu",
"pzudzzzDPFFPFVFFVfuabDzzcbVJFFDcmVVDckbDVFGAFFAAFVVVbkhytkbckFFd",
"ucuazakDPFPJDmVFDbudbVbbbVFKJFDbBVDPDVbDDFFFFFFFGnbVVkkhpVVbhnVd",
"tbufktfVPPFVbbkVFDpbBbDVVFPPFDVmBVDPPFVFFFFAVGGGPnlnVbVGVFVbkkkp",
"dFFFFatkPVVFFVpbDFFVVDFVVVVFFFFFJPPbbbVHFFFFVFGFGGGGGGGFbbbbFVbd",
"dVuihVhknVHVAHbFPPVFFDFnbbdzVFPFFVVFbbVpjkkdkuttnVnhllnFVPVlVbhy",
"bKtikVVVVAGVAPVVFPFFFDkVVVkbbbVFAVbVbbktjkjp2>20rgblkkbNFPVkdbld",
"VPudbbFVVGGVFPVnVPPFVVdVGGVVbbbFFVkbVbatkbkd&#&79abbbbbbFPVkpcbk",
"dbbVAVbbVFGVAPVbVPPFVVdnFPPPPPFPFVmnVbdtbbbk1@@7akbVbbbbPPFmfbmk",
"abbVGGnVFFHFGGbbnFAVVVFGPPPPVVPVFPPnlkkkbbu##12#0acbbnbbcDFDgbmk",
"bVFFGNVFFGPHGFnFAnNFVlVFFFVFFFPFFVbVkhkVbf0#205+pgzk4----500pVVb",
"VGPPGbAGGHPFVVVHGVnAVbbVVbbFFFFDmbbVbbbbkp5#rp9oedbk&oo$%-**tbVb",
"VGPPGbAGGHFVmbFFGPbbVFVVbzbFFFVbjkGAGFbddr1#pcr.>ubk&.+20-@O0dkk",
"AHFFFGGGGH0&:pVbbbFFFFGVbVGHPHnddkGHhpdFk1 +upt4-uDb2o$aFV5&5ddp",
"bAGFVHVAFV2##1bVVVkVFVlkmFGGFVbjkVGGkddbt;.+pu05#7kV0O#uFD9&2pdp",
"bFHGAVbAGb*##*pbVbcVFVkkVGGVVVVbVFFVkkbm4%o#321:O:tb0+#rad5;0uuu",
"VHHHGbbAFp@#$&9kmgDVDFbbVHHbBVFVDFFbkzVF-+o*+@#@ $7b9+#53521b00e",
"VHPHGFbVV5 21o0fmVAVDFFAFHHGFKJDDFFVkddP*+#51-#  ;uPp++*+357btdk",
"bNHHGFVbu@*tu4+4pFVmzkFFFHGbVVkVbzzkfddk&&2bduue+-rFu+o*afddmkda",
"lbGAVnVf9o5pa9o-0VbgkbFVAVlbVFNFVcdkfda9#-0Dgfkk#&5Vu++4VmbbVbkd",
"bnHVlkVp4o0pu3o#1mkpkFFVbktzmDHFFbdzjfp*#2aVagcB&@:Vu+#tcbmVVVVk",
"kNHPGkk9*o;02 .X&mkbFKFVkptbpubkVFFbzka:7ukdzmBD7#-PD##50tafdbmb",
"hNFGFkb9& #1555&-BBdfVbzbk0trrttbLFdmBzfdurdmBBb0&*dd##7kzmVfBVb",
"fNGFnkF5&>eupkf*%tmzzbbgzBbpaauuzVBkbbzmzdppBDVmg1:aa;-tVbVFVDbb",
"dVHVbbk2&eVmbVV*#5mmbmBkzBAkczapkcgkbbbVcczamVBVV94aa12aDcmDFFbc",
"dVGVlm:*>pbVBzc*@1FbbDDDzdumbbbtadupVKDBVDFDbzkVFkdkd27kFgkcDVbd",
"dVPbdd:-4kFbatV9-#mFFFFzbmfFbzDVmVJPmkaztdFFbdfVFFDDbdakFkkzppag",
"bbBkfz49umkhdappt7kzbbmkzmVGbcDPFDFBmbkzpkDVbdammbbzucmmJVBmfgfb",
"mbbkfcudmDdddkpkbfgffgmfzmJPVmFKFFFbVVVVbBDbmfdcmfad9bDDFFFDcmmm",
"bBmgdkDFFDkddfkggkzkkzDfzBFPDVJbVFDDDFFFFJFkbkgmVpua0dmFDDFDbBDm",
"azkbVzkmVVFhhJPkdkKFDbuifzkVccBkappVbbmJJFFFzkzDfudD0dzzBDDDVFzd",
"tpdpyVkzmDVVVVbkkFHFFVkpkVFmDVkbzkfbVVbVVVVacBDFVczmdkfppzkdzDVb",
"tauwqhkzbmVVncjdkJFFFVzpdbFmVVbVzkkcmbgkBVBfmDFFVBmBkbkaagffzDVb",
"ta668wbkgkDbduupdVbVVkddipmVbzmVkdzbgauumVBmDDFFzVDVzDmfbafccDmb",
"99566wpaafddu7tgkuzzdpdupppdmDmVVVVadkbkzkfbbBBVDDDbbDVbkzcmmBDm",
"0e0055uapuuau7tttufkdydpbFFVFFdzbbkVnnNVdppzzmVDappazFFVgzbbcczk",
"790752tdkpaauet0qazcdpkdkbbVbcdbzkkDVVnkdffkBDDzupaaaakmdmVVVbzk",
"34952<0gmddaput0tkbbdykkfddbkddbfadVVVbpfkkkFKVftpfaptubaVDVVbzk",
"5752:=0azpppakttuazgiq6padkFbftfue0knnbkurrfVDmdt745aBVbgmcgmbbd",
"44332:9tuppaue525affpw6tuu0ddduuupkfbbkVttdpkdutt759dmmcagbDFFmd",
"11444>9tuuer05225pgfpt69ettuap99ruapkdufaafdcpttr750azgazzcmBbpu",
";1432>9rtu0753125uddpu600ruuap99etrufdpfdaaffuttr759uauuzczzcguu",
"-322,>999tt412=27uuupp79etuuuurrr07udbVmteraeertt54990etuzczbdzb",
"14442399795432457uuuuu0uupgtpt5ee09ufzbffu0uruu99999uppuradauzmk",
"34531432397542470tuuuu9ttrr0e04ee09trufut97rrtuu9974rur7reetaffp",
"344334223977315790uute5ee0909537999trrure97eeeeu99747r049779retr",
";>>231112443>*23229742>344771>>>12390734754475457544:43>21>;>;23"
};
