/* XPM */
static char *_902c7529de94bdc8a5304aecd02f287QEtb9FGYAXg3AEJd[] = {
/* columns rows colors chars-per-pixel */
"64 64 218 2 ",
"   c #1D3D2B",
".  c #2D3B2D",
"X  c #3C3D2E",
"o  c #2A3837",
"O  c #393A34",
"+  c #423C2D",
"@  c #5D362E",
"#  c #4B3C37",
"$  c #5C3A36",
"%  c #68342E",
"&  c #643A36",
"*  c #6C3C34",
"=  c #733C35",
"-  c #7B3A35",
";  c #1E422B",
":  c #1F492C",
">  c #21462C",
",  c #224B2D",
"<  c #2C4A2E",
"1  c #334D2F",
"2  c #28512F",
"3  c #264734",
"4  c #244C32",
"5  c #364932",
"6  c #275130",
"7  c #2A5331",
"8  c #2D533B",
"9  c #375433",
"0  c #4A412F",
"q  c #464735",
"w  c #4A4434",
"e  c #564838",
"r  c #4A5536",
"t  c #57563A",
"y  c #67463B",
"u  c #73443A",
"i  c #7A463B",
"p  c #68553B",
"a  c #7A583D",
"s  c #373C44",
"d  c #593D42",
"f  c #2B4C44",
"g  c #33454E",
"h  c #2C5245",
"j  c #2C5A4E",
"k  c #375949",
"l  c #384B5B",
"z  c #2E5255",
"x  c #2D5C51",
"c  c #355756",
"v  c #3C575D",
"b  c #2F6056",
"n  c #316157",
"m  c #33645C",
"M  c #3A5B66",
"N  c #3E526D",
"B  c #3A6667",
"V  c #366A64",
"C  c #396C66",
"Z  c #396E69",
"A  c #3C746D",
"S  c #3F6F70",
"D  c #3E7770",
"F  c #3F7872",
"G  c #44454C",
"H  c #594546",
"J  c #43564A",
"K  c #57514C",
"L  c #465759",
"P  c #565759",
"I  c #684746",
"U  c #744C46",
"Y  c #755547",
"T  c #744E50",
"R  c #675451",
"E  c #745856",
"W  c #406053",
"Q  c #666546",
"!  c #72684D",
"~  c #495867",
"^  c #45546D",
"/  c #48596F",
"(  c #515769",
")  c #455A75",
"_  c #4B5A72",
"`  c #505F76",
"'  c #595B73",
"]  c #6C5B6B",
"[  c #43656E",
"{  c #4B646F",
"}  c #426B6C",
"|  c #486478",
" . c #526277",
".. c #55647A",
"X. c #58667C",
"o. c #546A7A",
"O. c #5A6A7F",
"+. c #407972",
"@. c #467778",
"#. c #57727A",
"$. c #75696D",
"%. c #676473",
"&. c #797278",
"*. c #883C37",
"=. c #933836",
"-. c #933B39",
";. c #82453D",
":. c #8A433C",
">. c #83493E",
",. c #884C3C",
"<. c #95433D",
"1. c #88583E",
"2. c #92533E",
"3. c #854B43",
"4. c #8C4A41",
"5. c #944641",
"6. c #9C4641",
"7. c #934C44",
"8. c #9B4C45",
"9. c #8C5541",
"0. c #875844",
"q. c #965847",
"w. c #9B5D43",
"e. c #9D5349",
"r. c #995B51",
"t. c #A04944",
"y. c #A35B47",
"u. c #A4554B",
"i. c #AD554D",
"p. c #AE5A4E",
"a. c #B0574E",
"s. c #B1594F",
"d. c #AC5752",
"f. c #B55950",
"g. c #9A6145",
"h. c #9D6B4E",
"j. c #8B6C56",
"k. c #996D53",
"l. c #8B725A",
"z. c #997458",
"x. c #A56344",
"c. c #A96343",
"v. c #A5684B",
"b. c #AC6C4D",
"n. c #AF6E50",
"m. c #B06F50",
"M. c #A87656",
"N. c #B27453",
"B. c #B47A57",
"V. c #826866",
"C. c #857C7C",
"Z. c #86835E",
"A. c #AF815E",
"S. c #988A67",
"D. c #AC8364",
"F. c #A78A67",
"G. c #B48862",
"H. c #A5936D",
"J. c #AC976D",
"K. c #A99971",
"L. c #B09F73",
"P. c #3F6883",
"I. c #435E82",
"U. c #476387",
"Y. c #4C6A8C",
"T. c #556484",
"R. c #5C6B80",
"E. c #5C6E89",
"W. c #497E82",
"Q. c #486A94",
"!. c #4C6D9B",
"~. c #4E719D",
"^. c #577997",
"/. c #626C82",
"(. c #6A6E8D",
"). c #657485",
"_. c #687786",
"`. c #697887",
"'. c #6B7988",
"]. c #4D71A2",
"[. c #4F77A8",
"{. c #5275A3",
"}. c #5178A9",
"|. c #4B8386",
" X c #54858B",
".X c #598897",
"XX c #5E8399",
"oX c #5E9196",
"OX c #63899D",
"+X c #5E93A6",
"@X c #668BA2",
"#X c #6A8EA4",
"$X c #6C91A6",
"%X c #6396A9",
"&X c #6C92AA",
"*X c #7194AA",
"=X c #6B99B5",
"-X c #739CB7",
";X c #719CBB",
":X c #7AA8BB",
">X c #729FC0",
",X c #6EA1C0",
"<X c #73A2C6",
"1X c #74A5CA",
"2X c #75A6CD",
"3X c #76A8CF",
"4X c #7BABCF",
"5X c #77A8D0",
"6X c #78A9D1",
"7X c #7CACD1",
"8X c #8B8182",
"9X c #81AFCF",
"0X c #84B1CD",
"qX c #80AFD0",
"wX c #83B1D0",
"eX c #85B3D0",
"rX c #87B4D1",
"tX c #88B5D0",
/* pixels */
"<X<X<X<X<X<X<X<X<X<X<X<X<X<X<X<X<X<X<X<X<X<X<X<X<X<X<X<X<X<X<X<X<X<X<X<X<X<X<X<X<X<X<X<X<X<X<X<X<X<X<X<X<X<X<X<X<X<X<X<X<X<X<X<X",
"1X5X5X5X6X7X7X7X6X6X6X6X6X5X6X6X6X5X5X5X5X5X5X5X5X5X5X5X5X6X6X5X6X7X7X6X6X7X6X5X5X5X5X6X5X5X5X5X6X5X5X5X5X5X6X6X6X6X5X5X5X6X6X5X",
"1X6X6X6X6XrXrXrXeX6X6X6X6X6X5X6X6X6X5X5X5X5X5X5X5X5X5X5X6X6X6X4XwXtXtXtXtXtXeX6X5X6X6X6X6X6X5X6X6X5X6X6X6X5X5X6X6X6X6X6X6X6X6X6X",
"1X5XeXeXeXrXrXtXrXeXeXeXeXeX6X5X6X3X5X5X5X5X5X5X5X5X5X5XwXeXrXrXtXtXtXtXtXwX4X5X5X6X6X5X6X5X6X6X6X5X6X6X5X6X5X5X5X5X7XeXeXeXeXqX",
"4XwXrXrXrXrXrXrXrXrXrXrXrXrXwX4X6XwXwX4X5X5X5X5X5X5X5X5X6X6X7X6X7X7X7X7X7X6X5X5X5X6X5X5X6X5X5X6X5X5X6X6X6X6X6XwXwXwXeXrXtXrXrXeX",
"wXrXtXrXrXrXtXrXrXtXrXrXtXtXeX6X4XtXrXqX6X7X7X6X5X5X5X5X6X5X6X6X6X6X6X5X5X6X5X5X5X6X5X6X5X5X5X6X5X6X6X7X7X7X7XrXrXrXrXrXrXrXrXrX",
"9XeXrXrXrXrXrXrXrXrXrXrXrXeX4X6X4XtXrXrXrXrXrX6X5X5X5X6X6X5X6X6X6X6X5X6X6X5X6X5X5X5X6X6X6X5X5X6X6X6X7XrXrXrXtXtXrXrXrXrXrXrXtXrX",
"1X6X6X6X6X6X6X6X6X6X6X6X6X6X6X5X6X6X6X6X6X6X6X5X5X5X5X5X6X5X5X5X5X5X5X6X5X6X5X5X5X5X5X5X5X5X5X5XeXrXrXrXtXtXtXtXtXrXrXrXrXrXrXrX",
"1X5X5X5X5X5X6X5X5X5X5X5X5X5X5X5X5X5X5X5X5X4X5X5X5X5X5X6X6X5X5X5X5X5X5X5X5X5X5X5X5X6X6XwXwXwXwXwXrXtXtXtXtX7X7X6X6X6X6X6X6X6X6X6X",
"1X5X6X6X6X5X5X5X5X5X5X6X5X5X5X5X5X5X5X5X5X3X5X5X5X5X5X5X5X5X5X5X5X5X5X5X5X5X5X5X5X5X6XqXqXqXqXqXqXqX9X9X9X6X6X5X5X6X5X5X5X5X5X5X",
"1X6X5X5X5X5X5X5X5X5X5X6X6X5X5X6X6X5X5X6X6X6X5X6X5X5X5X5X5X5X5X5X5X5X5X5X5X3X1X1X1X1X5X5X5X5X5X5X5X5X5X3X5X5X6X5X6X5X5X5X5X5X5X5X",
"1X6X5X5X5X5X5X5X5X5X5X7XrXrXrXtXtXtXtXtXtXeX6X6X6X6X5X5X5X5X5X5X5X5X5X5X5X>X&X&X&X;X5X5X5X5X5X5X5X5X5X5X5X5X6X5X6X5X5X5X5X5X5X5X",
"1X5X5X6X5X5X5X4XeXeXeXeXtXtXtXtXtXtXtXtXtX0X|. X|.W.W.W.=X6X5X5X5X5X5X3X3X>X&X&X&X;X5X3X5X3X5X5X4X6X5X3X5X6X5X3X6X5X5X5X5X5X5X5X",
"1X5X5X6X7X7X7XeXrXtXrXrXtXtXtXtXtXtXtX:X%XoXD +.D D D D |..X+X1X6X5X5X5X3X;X&X&X&X;X5X5X5X3X5X6X4X6X5X3X4X6X5X5X6X5X5X5X5X5X5X5X",
"1X5X5X7XeXeXeXeXeXeXeXeXeXeXeXeXeXeX:X X+.+.D D D D D D D D D =X1X5X5X3X3X>X&X&X&X;X5X5X5X5X1X1X1X1X1X1X3X3X5X1X1X1X1X1X5X5X5X5X",
"2X5X5X5X5X5X5X5X5X5X3X5X6X5X3X6X7X6X@.+.D D D D D D D D D D D D +X6X6X5X3X>X$X&X&X;X5X5X5X3X<X$X&X$X$X&X1X3X3X1X$X&X$X&X5X3X3X3X",
"1X5X5X5X5X5X5X5X5X5X5X5X6X6X6X.X|.@.+.A Z Z D D D D D D D D D D F @.|.5X5X>X$X&X&X;X3X3X5X3X<X$X$X$X$X&X1X3X3X1X&X&X&X&X5X3X4X5X",
"1X5X5X5X5X5X5X5X5X3X3X5X,XoX.X@.D D A Z Z A D D D D D D D D D D D D D  X%X=X$X$X$X;X3X1X=X;X-X$X$X&X$X&X1X1X3X<X$X$X&X&X3X1X3X5X",
"2X3X5X5X5X5X5X5X3X;X=X=X.X+.+.D A A Z Z A D D D A A A A D D D D D D D D  X.XOX$X$X;X3X1X@X&X*X$X$X$X#X#X>X<X1X>X#X#X$X&X<X1X1X3X",
"1X3X3X5X5X3X3X3X<X+.A A D D D Z C Z A D D D D D A C C C A D D D D D D D D A D @X$X=X1X1X@X&X*X#X#X#X@XXXXX$X*X$X#X#X#X#XXX1X1X3X",
"1X3X5X3X3X5X5X+X@.D D D D D C A A A A D D D D Z C Z D A D D D D D D D D D D A D OX@X@X@XOX@X#X#X#X#X@XXXXX$X*X&X#X#X#X#XXX1X5X5X",
"2X1X3X3X<X.X X@.D D D A A Z C Z A D D A Z Z Z Z Z A A A D D D D A Z A Z A D D A @.@.@.@.@.XX#X#X#X#XOXXXXX$X*X*X#X#X#X@X^.=X=X=X",
"%X%X%X+XoXA D D A A A Z C Z Z Z A D D A Z C C C Z Z A A D D A A Z C C C A A A D A A A A Z W.XX#X#X#X@XXXXX$X*X*X#X#X#X@X^.#X#X#X",
"A A A D A D D D A C C C Z D D D A D D D A C C C C C C A A D A C C C C C C Z A A A D D A Z A @.@X#X#XOXXXXX$X*X*X#X#X#X#XXX#X$X#X",
"A A D D D D D D A Z C A D D D Z C C A A A C C C C C V C C C C V C C V C x j j j j m Z C C C Z C C C C Z XX#X&X&X#X#X#X@X^.#X#X#X",
"C Z Z A A Z Z Z Z C C Z Z Z Z C C C Z Z C C C C C C C C C V V V C m x x j j j j j x x x V C C C C C V C S @.@.@.+.@. X@X^.#X} c ",
"V C V Z Z C C C C C C C V C C C C C V C V V C C V V C C C C V m m b j j j j j j j j j j b m m C C C V V V V V V m m Z @.} } h 4 ",
"V C V C C C C C C V C C C C C C C C V V V V V V V V C C V m m j j j x j j j j j j j j j j j x C V C C C C C C C m m m x f 4 4 : ",
"V V V } O.O.O.} V V V { O.O.O.} V V C V V V V V V V V V x j j j j x x j j j j j j j j j j j j j j P.].~.!.!.!.Q.m m m c 4 4 , , ",
"..o.o.O.O.O.O.O.{ V V { R.R.R.B V V O.O.O.O.O.C V m j x j j j j x x x j j j k E E E T T U U U U y T.Q.N ].) I.!.U.Q.M 4 4 , : > ",
" . .X.R././.O.O.R.#.#.#.).O.R.B V V O.O.R.R.R.m m n j j j j j j x x j x j j x V.V.V.V.V.E E E E d T.I.s ].l N !.U.Q.c , , , : > ",
"_ _ O.).)._.X.R.'.).'.'.).R.R.} C V O.O.R.R.O.c j j j j j j j j x x j x j j x C.C.C.&.8XC.$.$.&.G U.!.I.].].].!.) | z : ; ; ; > ",
"^ _ X.)./ _.X./.)._ '.o.o.'.'./.o.V O.R.R.O.O.c j j j j j j j x x x j j h h k C.C.P O 8XC.G s &.G U.}.}.{.].].Q.) ; ; ; ; ;   ; ",
"^ _ o.).).'.X.R.'.).'.).).).'./.o.V O.R..._ _ ~ {  . . . .{ j x x J U U y y I C.8XC.&.8XC.&.$.&.G f f f T T I I I @ @ @ @ @ @ + ",
"^ / o.).X._.X.O.).O.'./.O.).'.R.o.V O.O. ._ / / ..O. . ... .j j j J 4.;.* & & T T E E T T K J J 5 4 , 4 l.l.l.j.j.j.0.,.,.>.,.e ",
"^ / o.R._ ).X.O.)._ _.X.o.).'.R.o.B o.O. ._ / / ..X._ _ o. .k k k K 4.u $ $ H H H H H $ d 5 : > , , , 4 H.H.S.S.H.H.h.w.9.w.w.p ",
"/ _ ..R.` ).X.O.).` _.O.O.).'. ._ _ _ o.O.X.^ ^ ..O._ _ o.%.8.8.8.8.7.    z ].].].].!.^ ) f ;         , H.K.! q H.H.h.9.o 9.w.p ",
"8 8 8 k O./.o.O._.).'.`.'.'.'. ._ O.R.R.O.X._ _  .O...O.R.%.8.t.t.8.7.    z !.o Y.{.~.^ 3.3.i U >.= % * K.K.H.S.H.H.h.w.9.w.w.p ",
"7 7 7 8 c W / O.).O._.R.R._.). .` O. . . ._ ......R.O.R.R.%.6.$ 4.t.7.; ; c {.N !.}.!.^ q.q.e.e.e.:.- *.H.K.K.H.H.H.h.w.w.p t q ",
", , 7 7 7 7 c o.R.` ).o.o.).). .` O._ _ _ _ O.R.%.%.%.%.%.] :.O i <.:.; ; c }.}.}.}.!.l r.q.q.p.p.6.-.:.Z.Z.Z.Z.Z.Z.! a a 1 > , ",
"; ; 4 7 7 7 2 L ....o.` o.).). .` R.R.R.R.O.R.R.E 3.3.3.i u * = = * &     c {.{.{.{.!.l r.e w p.p.6.-.*., > , > , , , , : ;     ",
"; ; , 7 7 7 7 7 7 7 ..` ..)._ _ _ _ R.R..._ R...C.H.H.H.H.F.w.w.w.9.= * * y U I * * e > q.y.y.p.p.<.*.*., , , , , , , ,         ",
"; , > > > 7 7 7 7 7 k k k k ~ / / / T T U U I I l.S.q H.K.H.w.g.g.h.z.z.z.z.z.k.1.9.a , q.p.p.p.p.<.-.5.U U U U y y 5 >         ",
"  , ;   ; , 4 7 7 7 7 7 7 7 v v v L 7.7.4.4.= = j.S.H H.K.H.g.g.g.M.D.D.z.M.D.D.w.g.0.: Y 0.0.0.0.i ;.8.e.e.e.7.4.;.w ;         ",
"              , 6 7 7 7 7 7 7 2 , , i.u.i.i.-.-.k.H.K.H.H.F.w.w.w.h.D.D.q ! D.D.w.w.0., , , , , > > e s.p.u.u.p.p.<.e > > > > ; ",
"              ;   ; 7 , : , 7 7 4 , i.# y i.=.-.*.i u = = * % % & Y D.D.D.D.D.D.w.0.I I H H H H H H U p.s.# y i.i.<.] Y.Y.Y.Y.c ",
"          , ; ; ; ; : : : : , > > , i.7.e.i.-.# L T.T.T.T.T.....~ E G.D.D.D.D.D.g.E ( ~ ~ ~ ~ ~ ~ L R p.s.I 3.a.i.5.] !.!.!.Y.c ",
"; ; > > , 2 , , > ; w w 0 q w + X X ;.:.:.;.- . M !.N ].I.U.{.{.) L Q Q Q Q Q Q t P B z B v c [ [ v R a.i.s.0.p p e J M M M | c ",
": , 7 7 7 7 7 7 4 , u u u u i * $ $ $ & & @ % . M Q.o ].l l }.{.| z > > > , 7 7 7 k M o M z f [ [ v R u.u.u.t 7 7 7 7 7 7 > v c ",
"; > 7 7 7 7 7 , : ; u.p.d.s.s.(.{.{.}.{.Y.~ ~ ~ Y.}.}.{.{.{.{.{.| z ; : , , , , ; h M   M [ [ [ [ v f > 7 7 7 7 6 , > > , , , > ",
", 7 , , , , > > : ; u.i.e.# e.(.~.g !.{.Y.~ ~ 8 8 h h f | ~.~.~.| z > u u y y y @ $ & @ $ 5 f [ [ c 3 , 7 7 4 > , , , 7 7 7 , , ",
", , ; ; ; q q q q q 3.4.;.# ;./.{.N !.{.Y.~ R q q r r q P ' ' ' P G > 7.7.7.4.4.- - - - - X 3 c c h 4 , 7 7 , , , , , , , , , , ",
"; ; ; ; ; >.>.>.;.;.* * * = = X.}.}.}.{.Y.~ 2.9.9.9.9.i i ;.i * & 0 , i.u.e.u.i.<.<.:.6.t.w ; , , , 7 7 7 , , 7 7 , , , , , , , ",
"; ; ; ; ; p.f.s.s.i.-.-.-.-.=./.}.}.}.}.Y.( G.G.A.A.A.B.B.b.w.1 , , , i.w . e i.<.& O t.6.e , , , , , , , , , , , , , , , , ;   ",
"; ; q y I p.w X X e.-.-.<.4.4.3.T T U I I u G.R j.M.H M.N.b.w.1 , , , i.e.7.e.i.<.<.:.6.6.e 7 7 7 , , , , , , , ; , , , , , ;   ",
", : e I # p.u y y u.-.-.7.z.z.z.z.z.2.2.2.2.G.l.M.B.j.N.N.b.w.1 , , , i.i.i.i.i.<.<.:.q q 1 , , , , , , , , , ,   ; > , , ; ;   ",
", , e I O d.d.i.i.i.-.-.q.L.S.H.J.J.c.c.c.c.G.G.G.B.N.N.m.v.w.1 < < , e.e.u.i.i.:.:.i : , , , , , , , , , , , >     ; , , ;     ",
"> , t Y Y i.i.i.i.i.-.-.q.K.O l.J.J.c.c.c.x.G.G.M.w.w.w.9.>.= = = e ; ; : e i.u.6 6 6 , , , , , , , > ,                 , , , , ",
"y u u u * % % % % % 1 1 t L.S.H.J.J.c.c.a 1 9 9 ! m.N.m.v.x.w.w.w.p ; ; , < 1 1 , 6 7 4 , , ,   ; ;                   ; , , , , ",
"7.8.7.7.7._ ( ( ( ( , , r L.K.J.S.Q p p r > , , Q v.y m.b.x.x.x.x.a     > , , 6 , , , > , > ;   > ;             > > > > > , , ; ",
"i.4.e.i.d.[.U.Q.!.T.5 5 t D.D.Z.Q 7 7 7 7 , , : Q h.e m.b.x.x.1.1.t ; ;   ; > , , >     >     ; , ;           : , , , >   > ;   ",
"i.# e a.d.[.s ) E.4.,.>.;.i - q 2 7 7 7 7 7 > ; Q N.N.N.m.c.x.1 , , , , ;                     , , >         ; , , , >           ",
"i.u.i.i.d.}.{.}.^.n.n.n.m.v.y.r , , 7 , , , , > < 1 1 1 < < 1 , , , , , ;                                                       ",
"i.i.i.i.d.}.}.}.^.n.n.n.n.v.y.r , : , , , , , , , , , > ; ; > : , , , >                                                         "
};
