/* XPM */
static char *rcp55567024114122667[] = {
/* columns rows colors chars-per-pixel */
"64 64 77 1 ",
"  c #27173D",
". c #29193E",
"X c #2D1D43",
"o c #362346",
"O c #36254B",
"+ c #382549",
"@ c #4A2A53",
"# c #552C55",
"$ c #5A2F58",
"% c #56315A",
"& c #5F315C",
"* c #61335F",
"= c #653462",
"- c #693664",
"; c #6E3867",
": c #663D6A",
"> c #743C6A",
", c #783E6E",
"< c #69406D",
"1 c #6E4572",
"2 c #7E4374",
"3 c #824577",
"4 c #88477B",
"5 c #874A7C",
"6 c #894B7D",
"7 c #8E4D81",
"8 c #914F83",
"9 c #935286",
"0 c #965488",
"q c #99568A",
"w c #9B598D",
"e c #9E5C90",
"r c #A15E92",
"t c #A46296",
"y c #A66498",
"u c #AA669B",
"i c #A7689B",
"p c #AC699D",
"a c #AF6BA0",
"s c #B26FA3",
"d c #B26FA4",
"f c #B370A4",
"g c #B371A4",
"h c #B777AA",
"j c #BA77AB",
"k c #BA76AC",
"l c #B778AA",
"z c #BB79AD",
"x c #BC79AD",
"c c #BF7CAF",
"v c #BF7DB0",
"b c #C07DB1",
"n c #C281B4",
"m c #C383B6",
"M c #C483B6",
"N c #C686B8",
"B c #C788BA",
"V c #C888BB",
"C c #C989BC",
"Z c #C98CBD",
"A c #CB8DBF",
"S c #CC8EC0",
"D c #CF91C2",
"F c #CF95C5",
"G c #D092C4",
"H c #D194C5",
"J c #D396C7",
"K c #D498C7",
"L c #D397C8",
"P c #D497C8",
"I c #D497C9",
"U c #D398C8",
"Y c #D498C9",
"T c #D69CCC",
"R c #D89FCE",
"E c #D7A0CE",
"W c #D8A0CF",
/* pixels */
" o+++OOOOOOOOOOOOOOOOOOOOOOOOOOOOOOOOOOOOOOOOOOOOOOOOOOOOO++++o ",
"X@%:::::::::::::<<<<<<:::::<<<:::::::::::::<11<::::::::::::::%@X",
"O=,errrrrrrrrrrtrtrrrrrrrrtyttrrrrrrerrrrreuppterrrrrrrrrrrre2=O",
"O=2p434444444444444447766900094444444444470qqq96444444444444u3-O",
"O=2s64wwwwwwwwwwwwwwweeryippytwwwqqqqwwweiauyyrwwwwwwwwwww77i3=O",
"O=2s0qvvvvvvvvvvvvvvvvbNYYYYNvvvvvvvvvvvJTTBbbvbvvvvvvvcvvtqs3=O",
"O=2s0qvjzvvvvvvvvvvvvvSJYYJMvvvvvvvvvvMLYLmbvvvvcvvvvvvvvvrqs3=O",
"O*2d00vzxvvvvvvvvvvvvBJYYJCvvvvvvvvvvmZTJZvvvvvvvvvvvvvvvvrqs3=O",
"O=2s90bvvcvvvvvvvvvvmYYYYNvvvvvvvvvvbJTTNvvvvvvvvvvvvvvvvvrqs3-O",
"O=2f90vvvvvvvvvvvvvZJIYGmbvvvvvvvvvmYTUmvvvvvvvvvvvvjjvvvvr0s3=O",
"O=2f90vvvvvvvvvvvbCJYISVvvvvvvvvvvmZEFCvvvvvvvvvvvvvjkvvvve0s3-O",
"O=2f90vvvvvvvvvvvMYYYYmvvvvvvvvvvvDTTNvvvvvvvvvvvvvvvvvvvve0s3-O",
"O=2p80vvvvvvvvvvZJYYGmvvvvvvvvvvmUTYmvvvvvvvvvvvvvvvvvvvvve0s3-O",
"O=2p80vvvvvvvvbNGYYGZvvvvvvvvvvNZTUDvvvvvcvvvvvvvvvvvvvvvvw0a3-O",
"O=2f90vvvvvvvvmYYYYMvvvvvvvvvvvUWWBvvvvcvvvcvvvvvcvvvvvvvvw0a3-O",
"O=2f90bvvvvvvCGJLJMbvvvvvvvvvmJTYNbvvvvvvvvvxjxvvvvvvvvvvvw0a3=O",
"O=2s90vvvvvvMDJJDZvvvvvcvvvbmZRUDvvvvvvvvvvvxjxvvvvvvvvvvve0a3=O",
"O=2s90bcvvvmJJJJMvvvvvvvvvvvGTTNvbvvvvvvvvvvvvvvvvvvvvvvvbe0a3=O",
"O=2d90vvvvVDJJDmvvvvvvvvvvmGJGmbvvvvvcvvvvvvvvvvvvvvvcvvmGt0a3-O",
"O=2d90vvvMDJJSVcvvvcvvvvvmVIGCvvvvvvvvcvvvvvvvvvvvvvvvvmVIt0a3=O",
"O=2s90vvMJJJJMvvvvvvvvvvvSKIMvvvvvcvvcccvvvvvvvvvvvvvvvSJIt9p3-O",
"O=2d90bCDJJGmvvvvvvvvvvmDJGmbvvvvvvvvvvvvvcvvvvvvvvvvmDJJJt0a3=O",
"O=2d0wNDJJDZvvvvcvvvvvmVJGZvvvvvvvcvvcvvvvvvvvvvvvvvmNJJJIt0a3-O",
"O=2sqtIJJJMvvvvvvvvvvvDJJMvvvvcvvvvvcvvvvvvcvvvvvvvvZJJJJJt9a3-O",
"O=2sqtJJGmbvvvvvvvvvmDJGmbvvvvvvvvvcvcvvvvvvvvvvvvbZGJJJJIt9a3=O",
"O=2sqtIDCvvvvvvvvvvmBIDCvvvvvvvvvvvvcccvvvvvcvvvvbNJJJJJJSt9a3=O",
"O=2dqyImvvvvvvvvvvvZJJMvvvvvvvvccvcvvvvvvvvvvvcvvZJJJJJJDvw9s3-O",
"O=2sqrmvvvvvvvvvvmDJGmvvvvvvvvvvcccvvcvvvvvvvvvmSGJJJJJNmcw9s3=O",
"O=2f0qvvvvvvvvvvmVJGCvvvccvvcvcvvvccvvvvvvvcccmNIJJJJGZmvvw9s3=O",
"O=2f79vcvvvvvvvvDJJNvvvvvvvvvvvvcvvvvvvvvvvvcvZJJJJJJZvcvvw9s3-O",
"O=2d79vvcvvvvvmDJGmbvvcvvvvvvvvcvvcvccvvvvvvbZJJJJJJVmvvvcw9a3-O",
"O=2f79vvvvvvvmVYJZvvvvvvccvvvvvccvvvvvcvvvvbMJJJJJJDmcccvcw9s3-O",
"O=2d79vvvvvvvDYYMvvvvvcccvvvcvcvccccvvvcvvvZJJJJJJDvvcvcvvw9s3-O",
"O=2d79vvvvvmDYJMbvvvvvvcvcccvcvvcvcvvvcvvbDGJJJJJVmvccvvcvw9p3-O",
"O=2d79bvvvmVTJSvvvvvcvvcccccvcccccccvvcvmNJJJJJJDmvcvvvxvvw8p3-O",
"O=2s79vvvvDYYNvvvvvvvvvvcccvvvvvvcvvvvvvZJJJJJJDvvvvcvcvcvw9s3-O",
"O=2s79bvmJYJMbvvvvvccvvvvvvvvvvvvvvvvvmSJJJJJJVmvvvvvvcvccw9s3-O",
"O=2a79bmVTJSvvvvvcvvcxvcccvvvvvvvvvvvmNJJJJJJDmcvvvvvcvvvvw8p3=O",
"O=2s79bGYTNvvvcvvvvcxjxvccvvvvvvvvvvvSJJJJJJDcccvvvcvvvcvvw9p3-O",
"O=2s70DLJNbvvvvvvvvvxxvvcvcvvcvcvvcbSGJJJJJVmcccvcvcvccvvcw8p3-O",
"O=2s7wYGZvvvvvvvvvvvvvvvvcvvvcvcccbMJJJJJJDmvvccvvccccvcvcw8p3-O",
"O=2s9eYmvvvvvvvcvvvcvvvvvvvcvvvvccZJJJJJJDvvvvvcvvvcvcxccvw8p3=O",
"O*2s9qMbvvvvvvvcvcvvcvcccvcvvvvvmDGJJJJJVmccvvvvvvvxcccvcvw8p3=O",
"O*2s90bvvvvvvcvcvvccvvvvcvvvvvcmMJJJJJJSmvccvvvcvcccvcvvvvw8p3-O",
"O*2s70bvvvvcvvvvvvvvvvvvvcvvcccZJJJJJJDvvvvvcvvccvccvcvvccw8p3-O",
"O*2s70vvvvvvvccccccvcvcvvvvvcmDJJJJJJVmvvvvvcvccvcvvccccvcw8p2=O",
"O*2s80vvvccvvccccccvvvvvvvvvmBJJJJJJDmvvcvvcvccvvcccxxccvcw7p2=O",
"O=2s80vvvvcvvvccvvccvvcvvvvvZJJJJJJGvvccvcvvcvcvvcxcjjxccvw8p3=O",
"O*2s80bcvvvcvcccvvvcvvvvccbDGJJJJJVmvvvcvvvcvcvccxcczzvxcvw8i3=O",
"O=2s80vcxxxvvvvvvvvccvvccmMJJJJJJZmccvcvvcvcccvvcccxcccxvcw8u3=O",
"O-3s80vvxjxvvcvcvcvvvvvvcZJJJJJJDcccccvcvcvcvvvcccccccccvvw8u3-O",
"O=2u70vcxxcvvccvcvvvvvvmDJJJJJJVmcccccvcvcvccvvvcxcccxcccvw8u3-O",
"O=2u80vcvccvvvcvvvcvvvmNIJJJJJDmvcvvccccvvcxxcxcvccccxccvvw8u3-O",
"O=2u70bvvvcvvcvcvvcvvvDJJJJJJDvvvccvcvccvcxzjcvcccccccxcccw8u3-O",
"O=2u70vvvvxvvvvcvvvvbZJJJJJJVmvvcxcccvccvcvxxccvvcxcxvvzzvw8u3-O",
"O=2u70vvvvcvvvvcvvvbMJJJJIJDmvvvcccvccvvvccxvvccvvvcvvckkvw8u3-O",
"O=2u70bcvvccvcvvvvvZJJJJJJGvvvvvvvcvvvcvvvvcvvcvccvcvvcccvw8u3-O",
"O=2u87ttttttyyyyyysfhhhhlfayyttytttttttttttttttttttttttttt98u3-O",
"O=2uq0000000wwwwqwytttytyeqqqqqqqqqqq0000000000000000000000qu3-O",
"O&>tupppiiippiiiiippppppppppppppppppppppppppppppppppppppapppt2=O",
"O#=4464544446555545554455555544555555444444664664464456666664>&O",
"O#&;;;;;;;;;;;;;;;;;;;;;;;;;;;;;;;;;;;;;;;;;;;;;;;;;;;;;;;;;;*$o",
"XOOOOOOOOOOOOOOOOOOOOOOOOOOOOOOOOOOOOOOOOOOOOOOOOOOOOOOOOOOO++o.",
" XXXXXXXXXXXXXXXXXXXXXXXXXXXXXXXXXXXXXXXXXXXXXXXXXXXXXXXXXXXXXX "
};
