/* XPM */
static char *rcp1761236114131590[] = {
/* columns rows colors chars-per-pixel */
"64 64 79 1 ",
"  c #0A352C",
". c #0B3A2C",
"X c #153C31",
"o c #0C422F",
"O c #0F4432",
"+ c #104533",
"@ c #1D4337",
"# c #134D35",
"$ c #135135",
"% c #195436",
"& c #175837",
"* c #175938",
"= c #195C38",
"- c #254A3D",
"; c #215C3A",
": c #23653C",
"> c #2A653E",
", c #276A3D",
"< c #296B3F",
"1 c #2B703F",
"2 c #2F6740",
"3 c #2C6A40",
"4 c #306740",
"5 c #2C7342",
"6 c #307543",
"7 c #317A45",
"8 c #367E4E",
"9 c #3B7D4B",
"0 c #377F50",
"q c #37804D",
"w c #3A834D",
"e c #378050",
"r c #3F8A51",
"t c #438E55",
"y c #468F58",
"u c #449057",
"i c #459158",
"p c #4B955C",
"a c #4C995E",
"s c #4E9C60",
"d c #529762",
"f c #539E64",
"g c #5A9F69",
"h c #54A366",
"j c #56A668",
"k c #5AA46A",
"l c #5AA86B",
"z c #5BA96C",
"x c #5DAA6E",
"c c #5FAC70",
"v c #60AB70",
"b c #63AB73",
"n c #62AE72",
"m c #64AF73",
"M c #64AF74",
"N c #68AD76",
"B c #66B076",
"V c #68B277",
"C c #69B279",
"Z c #6BB47A",
"A c #6CB47B",
"S c #6CB57C",
"D c #70B77F",
"F c #72B780",
"G c #72B881",
"H c #75B982",
"J c #78BB85",
"K c #7ABD87",
"L c #7ABC88",
"P c #7DBF8A",
"I c #7FC08C",
"U c #82C18E",
"Y c #84C28F",
"T c #83C290",
"R c #84C390",
"E c #87C493",
"W c #87C494",
"Q c #88C593",
"! c #88C594",
/* pixels */
"X%========&&******&***&&&**&&&********&&*&&&&***********&&*===& ",
"@;,78eeeee88e8000080808888888808888888888088eeee88e0888q88e875:.",
"->6iahhhhhhhhhhhhhhhhhhhhhhhhhhhhhhhhhhhhhshzzzlfhhhhhhhhhhhiq<o",
"-39hprrrrrrrrrrrrrrrrrrrrrrrrrrrrrrrrrtrrraasapitttrrrrrrrrtjw5o",
"-39hptapaappppppppppppaaaaspaaaappappaaadgvvvhfsaaaapapaaaytjw3o",
"-39jpinnnnnnnnnnnnnnnnnnnCSnnnnnnnnnnnnnJEEW!Bnnnnnnnnnnnnatjw3o",
"-29jpynnnnnnnnnnnnnnnnnnCBMnnnnnnnnnnnnLUWEPZnnnnnnnnnnnnnatjw3o",
"->7jiynnnnnnnnnnnnnnnnnnCBnnnnnnnnnnnBCREEPFnnnnnnnnnnnnnnatjw<.",
"-29jiynnnnnnnnnnnnnnnnnnnnnnnnnnnnnnnGE!ERnnnnnnnnnnnnnnnnatjw<.",
"-29jiinnnnxxnnnnnnnnnnnnnnnnnnnnnnnnIT!EJCnnnnnnnnnnnnnnnnaijw<.",
"-29jiinnnnvxnnnnnnnnnnnnnnnnnnnnnnBCE!WISnnnnnnnnnnnnnnnnnatjw<.",
"-29jiinnnnnnnnnnnnnnnnnnnnnnnnnnnnHE!!Ennnnnnnnnnnnnnnnnnnayjw<.",
"-29jiinnnnnnnnnnnnnnnnnnnnnnnnnnBPUEEJCnnnnnnnnnnnnnnnnnnnayjw<.",
"-29jiinnnnnnnnnnnnnnnnnnnnnnnnnVSEEEPSnnnnnnnnnnnnnnnnnnnnatjw<.",
"-39jyinnnnnnnnnnnnnnnnnnnnnnnnnKQQEYmnnnnnnnnnnnnnnnnnnnnnatjw<.",
"-39jyinnnnnnnnnnnnnnnnnnnnnnnMPRQEKAnnnnnnnnnnnnnnxnnnnnnnatjw<.",
"-49jiinnnnnnnnnnnnnnnnnnnnnnBCQQERGnnnnnnnnnnnnnnnxnnnnnnnatjw<.",
"-49jyinnnnnnnnnnnnnnnnnnnnnnJEEERnnnnnnnnnnnnnnnnnnnnnnnnnatjw<.",
"-49jiinnnnnnnnnBMnnnnnnnnnMHPEELDnnnnnnnnnnnnnnnnnnnnnnnnnatjw<.",
"-49jiinnnnnnnnnBMnnnnnnnnMCREETSnnnnnnnnnnnnnnnnnnnnnnnnnnatjw3.",
"-39jiinnnnnnnnnnnnnnnnnnnJEERUnnnnnnnnnnnnnnnnnnnnnnnnnnnnatjw<.",
"-39jyinnnnnnnnnnnnnnnnnBLUEEKSnnnnnnnnnnnnnnnnnnnnnnnnnnnxptjw<.",
"-39jyinnnnnnnnnnnnnnnnBCRREUDnnnnnnnnnnnnnnnnnnnnnnnnnnnnxptjw<.",
"-39jyinnnnnnnnnnnnnnnnJRRRUnnnnnnnnnnnnnnnnnnnnnnnnnnnnnBYgtjw<.",
"-49jyinnnnnnnnnnnnnnnHIREKDnnnnnnnnnnnnnnnnnnnnnnnnnnnnSJRgtjw<.",
"-39jyinnnnnnnnnnnnnnMREERSnnnnnnnnnnnnnnnnnnnnnnnnnnnnnLRRktjw3.",
"-39jyinnnnnnnnnnnnnHUEEUnnnnnnnnnnnnnnMCBnnnnnnnnnnnnBRRUMatjw<.",
"-39jyinnnnnnnnnnnMHPREPDnnnnnnnnnnnnnnnBBnnnnnnnnnnnSHRKFnatjw<.",
"-29jyinnnnnnnnnnMCRERUDnnnnnnnnnnnnnnnnnnnnnnnnnnnnMLUUCnnatjw3.",
"-39jyinnnnnnnnnnJRRRUnnnnnnnnnnnnnnnnnnnnnnnnnnnnnSERPnnnnatjw<.",
"-49jiinnnnnnnnBJIRUJDnnnnnnnnnnnnnnnnnnnnnnnnnnnnDLRJSnnnnaujw3.",
"-39jyinnnnnnnMCRRRUDnnnnnnnnnnnnnnnnnnnnnnnnnnnnnPRRCnnnnnatjw3.",
"-49jyinnnnnnnJRERUnnnnnnnnnnnnnnnnnnnnnnnnnnnnnCURPMnnnnnnatjw3.",
"-49jiinnnnnMHPERPHnnnnnnnnnnnnnnnnnnnnnnnnnnnnSHRLFnnnnnnnatjw3.",
"-49jiinnnnnCEEERSnnnnnnnnnnnnnnnnnnnnnnnnnnnnnPUYSnnnnnnnnatjw<.",
"-49jiinnnnPEEEPBnnnnnnnnnnnnnnnnnnnnnnnnnnnnSRRPnnnnnnnnnnatjw3.",
"-49jiynnBJUEEJSnnnnnnnnnnnnnnnnnnnnnnnnnnnnDLRJSnnnnnnnnnnatjw3.",
"-49jiinnAQEEUCnnnnnnnnnnnnnnnnnnnnnnnnnnnnnPRUCnnnnnnnnnnnatjw<.",
"-39jiinPEEEUnnnnnnnnnnnnnnnnnnnnnnnnnnnnnVRRPnnnnnnnnnnnnnayjw3.",
"-39jipGUEELDnnnnnnnnnnnnnnnnnnnnnnnnnnnnSJRKSnnnnnnnnnnnnnaijw3.",
"-49jyd!EEESnnnnnnnnnnnnnnnnnnnnnnnnnnnnnPREDnnnnnnnnnnnnnnaujw3.",
"-39jtdQRPBnnnnnnnnnnnnnnnnnnnnnnnnnnnnZURUBnnnnnnnnnnnnnnnathq<.",
"-39jtdWKDnnnnnnnnnnnnnnnxnnnnnnnnnnnnSJRJDnnnnnnnnnnnnnnnnathq<.",
"-39jtd!SnnnnnnnnnnnnnnnnznnnnnnnnnnnnPRUAnnnnnnnnnnnnnnnnnathw<.",
"-39jtiBnnnnnnnnnnnnnnnnnnnnnnnnnnnnCYRPmnnnnnnnnnnnnnnnnnnatjw3.",
"-39jyinnnnnnnnnnnnnnnnnnnnnnnnnnnnSJRJSnnnnnnnnnnnnnnnnnnnatjw<.",
"-39jyinnnnnnnnnnnnnnnnnnnnnnnnnnnnKUUSnnnnnnnnnnnnnnnnnnnnatjw3.",
"-39jyinnnnnnnnnnnnnnnnnnnnnnnnnnCUUUMnnnnnnnnnnnnnnnnnnnnnatjw<.",
"-39hyinnnnnnnnnnnnnnnnnnnnnnnnnSHYKGnnnnnnnnnnnnnnnnnnnnnnathw<.",
"-39htinnnnnnnnnnnnnnnnnnnnnnnnnPUUSnnnnnnnnnnnnnnnnnnnzcnnathw<.",
"-39htinnnnnnnnnnnnnnnnnnnnnnnCPUPMnnnnnnnnnnnnnnnnnnnnnnnnathw3.",
"-39hyinnnnnnBnnnnnnnnnnnnnnnCHRPHnnnnnnnnnnnnnnnnnnnnnnnnnathw3.",
"-3whiinnnnnnSBnnnnnnnnnnnnnnKUUCnnnnnnnnnnnnnnnnnnnnnnnnnnatjw3.",
"-3qhiinnnnnnnnnnnnnnnnnnnnMPUPMnnnnnnnnnxxnnnnnnnnnCmnnnnnatjw3.",
"-3qhiinnnnnnnnnnnnnnnnnnnSGUKDnnnnnnnnnnxcnnnnnnnnnBnnnnnnatjw<.",
"-3qhyinnnnnnnnnnnnnnnnnnnKYRDnnnnnnnnnnnnnnnnnnnnnnnnnnnnnaujw<.",
"-3qhyinnnnnnnnnnnnnnnnnBPUUBmnnnnnnnnnnnnnnnnnnnnnnnnnnnnnauhw3o",
"-3qhttffffffffffffffffjjCNvfffffffffffffffffffffffffffhfffitfw3o",
"-3qfirrrrrrrrrrrrrrrrtpasiittrrrrrrrrrrrrrrrrrrrrrrrrtitrttusw3o",
"-37pshhhhhhhhhhshhhhhhhhhhhhhhhhhhhhhhhhhhhhhhhhhhhhhhhhjjhfp9,o",
"->6rtiiiiiiiiitrtiiiiiiiiiiiiiiiiiiiiiiiiiiiiiiiiiittiiiiiitr6:o",
"->177777777777757777777777777777777777777777777777755777777775:o",
"X#$$$$$$$$$$$$$$$$$$$$$$$$$$$$$$$$$$$$$$$$$$$$$$$$$$$$$$$$$$$$# ",
"X++OOOOOOOOOOOOOOOOOOOOOOOOOOOOOOOOOOOOOOOOOOOOOOOOOOOOOOOOOOOO "
};
