/* XPM */
static char *result[] = {
/* columns rows colors chars-per-pixel */
"64 64 125 2 ",
"   c #261F25",
".  c #272126",
"X  c #292227",
"o  c #272228",
"O  c #2B252A",
"+  c #2D292E",
"@  c #332C2E",
"#  c #2E2B31",
"$  c #322E32",
"%  c #382F32",
"&  c #343136",
"*  c #3D3535",
"=  c #3F3836",
"-  c #35343A",
";  c #38373B",
":  c #37393F",
">  c #3A393D",
",  c #403837",
"<  c #423B3A",
"1  c #46413E",
"2  c #4D453F",
"3  c #373B40",
"4  c #3A3C42",
"5  c #3D4146",
"6  c #3E4349",
"7  c #444342",
"8  c #4A4744",
"9  c #474846",
"0  c #4C4A47",
"q  c #41464C",
"w  c #43494E",
"e  c #4C4C4A",
"r  c #504741",
"t  c #544D46",
"y  c #514E49",
"u  c #4C504F",
"i  c #575046",
"p  c #5A5147",
"a  c #53524C",
"s  c #5B544A",
"d  c #464D52",
"f  c #484F54",
"g  c #475056",
"h  c #495156",
"j  c #4C545A",
"k  c #4F595E",
"l  c #535551",
"z  c #585751",
"x  c #575953",
"c  c #5C5D55",
"v  c #515A5F",
"b  c #645C4F",
"n  c #625E53",
"m  c #5F6159",
"M  c #676054",
"N  c #6C6555",
"B  c #6E6856",
"V  c #62635A",
"C  c #6A655A",
"Z  c #6E695C",
"A  c #746C5A",
"S  c #7A725D",
"D  c #535D62",
"F  c #566165",
"G  c #5A6467",
"H  c #54636C",
"J  c #59666A",
"K  c #5D6A6D",
"L  c #616C6D",
"P  c #746F61",
"I  c #7C7562",
"U  c #7F7862",
"Y  c #7C7C6D",
"T  c #807761",
"R  c #847B64",
"E  c #897F66",
"W  c #857F6A",
"Q  c #7D806F",
"!  c #778076",
"~  c #878067",
"^  c #8A8167",
"/  c #85826C",
"(  c #8C846A",
")  c #90866B",
"_  c #938B6E",
"`  c #868772",
"'  c #848A7A",
"]  c #8B8E7A",
"[  c #958E71",
"{  c #998F71",
"}  c #958F78",
"|  c #8E917A",
" . c #979172",
".. c #9C9475",
"X. c #9F9877",
"o. c #96917A",
"O. c #9A957B",
"+. c #9D997C",
"@. c #A09777",
"#. c #A19877",
"$. c #A19778",
"%. c #A49B7B",
"&. c #A89F7E",
"*. c #A7A07E",
"=. c #A9A17F",
"-. c #939680",
";. c #9D9C82",
":. c #A29D83",
">. c #9FA086",
",. c #A4A286",
"<. c #ABA381",
"1. c #A6A589",
"2. c #AAA68A",
"3. c #AEAA8D",
"4. c #B2AC8E",
"5. c #B6B08F",
"6. c #B3AE91",
"7. c #B6B193",
"8. c #BAB595",
"9. c #BEB997",
"0. c #BFBA98",
"q. c #C2BD9B",
"w. c #C5C09E",
"e. c #C7C2A0",
"r. c #C8C2A0",
/* pixels */
"[ &.%.%.&.%.%.&.%.&.&.%.%.%.%.%.%.X...%.@.@.%.$.%.%.%.%.&.#.@.#.q.q.q.q.q.q.q.q.q.q.q.q.q.q.q.q.q.q.q.q.q.q.q.8.q.q.q.q.q.q.q.q.",
" .<.%.#.$.$.@...@.@.@.@.@.%.@.@.$.$.{  .......{ { ..@.%.&.%.@.@.q.q.q.q.q.<.q.4.7.8.q.q.q.q.8.8.8.8.7.q.q.q.q.8.4.4.5.5.4.4.q.q.",
"{ <.t @ % @ @ @ @ @ @ @ @ E $.%.X.R O @ @ @ @ % % @ @ B %.%.@.%.q.q.r., % % X @ $ A q.w.q.4.@ @ * % @ :.q.q.q.;.O @ @ @ @ O { q.",
"{ <.8 9 D D k q @ D D v @ E %.%.%.R O j v j O e j j ; N &.%.#.%.q.q.q., k D c z 3 C w.q.q.6.@ G L G @ :.q.q.q.O.O f f h d O O.q.",
"{ <.2 $ & $ $ $   & % 3 X E $.%.%.R o & & & X & % $ + N %.%.@.%.w.w.e.% $ % $ $ O C q.q.q.7.X & $ $ X :.q.q.q.O.  & $ % @   :.q.",
"{ <.2 - 3 3 4 - # q 4 4 O E $.%.X.R O 4 5 5 O > 4 5 # N %.%.@.#.q.q.q.$ +     $ O C q.w.q.7.O 5 d 4 O :.q.q.q.O.  &     #   O.q.",
"[ <.r 7 j h h 4 # D f k # E :.%.X.E # j F h + j D D - N %.%.@.%.e.q.e.$ 4     4 & C q.w.q.7.O F J k # :.q.q.q.O.O 4   # 4 + :.q.",
"[ =.r q k j j q $ D k D # E %.%.+.U # j m j + j G D & B %.%.@.#.e.q.e.% q O O q > C w.q.q.6.+ D G D $ :.q.q.q.O.+ d   @ q # O.q.",
"_ <.r 5 d w q 4 $ f g j & W %.%.#.R & w h w $ w f w * N %.%.@.%.q.q.e.; : + + 3 - Z q.q.0.7.# w f d & :.q.q.q.;.+ 4 + @ q - :.q.",
"[ <.b 1 1 1 1 7 8 l l l y _ %.:.%.) e y a e 2 0 e e 0 T #.%.#.%.r.q.q.c a u a a e Y w.q.e.8.h x l l f 1.0.q.q.:.l v l z z x :.q.",
"[ <. . .X..... .{ O.{ { { %.%.&.%...{  .{  . .......{ @.%.%.@.%.e.q.q.,.1.1.,.>.;.6.q.q.e.0.>.,.:.;.;.7.q.q.0.8.2.2.2.1.1.1.0.q.",
"[ <.X.X.X. ._ _ _ _ ) ( ) #.&.:.%... .) _ _ { _ _ ) _ { @.#.#.%.q.q.e.q.0.w.0.q.q.q.q.w.0.w.q.q.w.q.0.w.q.w.w.q.e.q.q.w.e.q.w.q.",
"[ *.*.=.=.&.=.<.*.*.*.%.&.=.=.=.%.%.%.%.%.=.=.%.#.#.%.#.%.#.@.&.r.w.w.q.q.w.q.0.q.q.q.w.q.e.q.q.w.0.q.e.w.q.w.w.e.q.q.q.w.q.q.q.",
"[ =.*.&.=.=.=.=.*.=.%.%.%.&.=.=.&.%.*.%.#.%.%.#.#...#.#.%.%.@.%.r.q.w.q.q.q.q.q.0.q.q.q.q.q.q.q.0.w.0.0.q.q.q.q.w.w.w.q.q.q.q.q.",
" .<.*.&.=.%.=.=.%.%.%.=.&.=.&.=.=.&.#.#.%.%.%.%.%.#.#.%.&.%.X.%.w.q.r.w.q.q.q.q.q.q.q.q.q.w.q.q.w.q.0.e.q.w.q.q.q.q.q.q.q.w.w.q.",
" .<.s O @ O O O O + O @ O S &.=.%.E O + O @ O @ O + @ B &.%.@.&.w.w.w.@ O @ O O O Z q.q.q.3.O $ + # O o.q.q.q.-.  + O O +   ;.0.",
"[ =.p & 6 d w 4 o d 6 d + S *.%.%.~ # 5 5 5 o 4 6 w # N %.&.%.%.w.w.w.$ 5 w w 6 & C q.w.q.4.X h g h # o.0.q.q.O.o 5 w w w O O.q.",
"[ <.s 4 F F H h + F D F # S %.*.%.~ # D D j o d j D & N %.%.$.%.w.w.w.% k H F F ; C w.q.q.4.+ K K K ; O.q.q.q.O.+ H H K J + -.q.",
"_ =.i @ - & & & o & # & o S +.%.&.~ . # & + o O + # O N &.*.X.@.w.q.9.$ $ + # # + N q.q.q.4.. & $ $ o O.q.q.q.O.  & # & $ X O.q.",
"_ &.i & : - - & o 4 3 4 O S *.*.%.R o - - . .   ; - O B %.%...X.w.9.w.@ - O . # # N q.q.q.3.X 5 5 4 # o.0.q.q.O.o - O . & o O.q.",
" .=.i w F k k 6 O k k F # S &.<.:.~ O d d X .   h h & A #.%.{ @.w.q.w.@ d + . 4 - C q.q.q.3.X 4 4 4 + O.q.q.q.O.X f O   w # -.q.",
" .=.i 5 g g j 6 + 6 d d $ U &.=.&./ & 5 5 + O X q d - B &.%.{ @.w.w.w.@ 4 O X ; & C q.w.q.3.. X X O   O.q.q.q.O.# q $ $ 4 # O.q.",
" .=.m 1 9 9 9 9 1 7 9 9 7 / %.=.=.) 7 e e 7 8 8 9 9 9 S &.&.{ #.w.w.w.= ; = = 1 > A q.q.q.4.* = * * & ;.q.w.w.;.7 5 5 7 7 7 :.q.",
"..=.X.X.+.+.+.+.+.+.X.%.%.%.&.=.*.%.X.X.%.X.X.X.X.X.X.#.&.&.%.&.w.w.w.+.+.+.;.;.:.2.w.w.q.0.O.+.+.O.X.7.q.q.w.6.o.` ` ` -.,.q.q.",
" .%.( E E E ~ ~ E ^ ^ ^ E  .%.%.&. .E E T T R T R R R _ @.@.{ @.w.w.w.9.0.9.w.9.q.q.q.q.q.q.q.q.w.q.q.q.q.q.q.6.Y - # - Q 7.e.w.",
" .*.X.%.=.&.%.,.%.%.%.%.X.%.%.&.%.%.#.X.X...@.@.@.@.@.#.%.@.{ @.w.w.w.w.w.w.9.w.q.q.q.q.q.q.q.w.w.q.q.e.q.w.w.6.Y 4 4 4 Q 7.q.w.",
" .%.X.%.&.&.&.:.:.%.X.X.%.@.&.&.&.&.%.%.&.X.X.X.@.&.#.#.%.%.{ @.w.w.w.0.q.9.q.w.q.q.q.q.q.q.q.w.e.q.q.w.q.e.q.4.] | | | ' 8.w.q.",
" .&.%.%.%.%.&.%.&.&.%.%.%.&.&.&.%.*.%.&.%.#.%.%.#.#.#.&.%.%.#.@.w.0.w.0.q.w.9.9.q.q.q.q.q.w.q.q.q.q.q.q.q.w.q.7.| o.| o.| 8.q.q.",
"..:.n * , , , , = = = , * S %.&.&.^ * = = = , = , , * A #.%.@.@.w.q.w.1 , , 1 , < I q.q.q.4., < > , ,  .q.w.q.+.& & * = > = ,.w.",
" .=.s & q 5 w 4 + 5 5 4 O S %.&.%.R + 6 6 4 O d h j - N %.#.{ @.w.q.w.@ 9 g h g - C q.q.q.4.O w g g & [ 0.q.9.O.X 5 5 6 6 O +.9.",
"{ <.b e D v D f $ k j h $ I %.%.%.R # k H D + D G K 4 N #.#.{ @.w.q.w.@ - ; & - $ C q.q.q.4.+ F J H - ] 0.q.q.O.O v D F D + +.q.",
" .<.p & ; ; ; ; O - & - X S %.%.%.R o ; > > X ; * > + B @.#.@.%.q.q.w.$ ; X & > $ Z q.q.q.3.X - ; - O [ 0.q.0.O.O ; ; > : O O.q.",
" .=.s # # X # ; O 4 3 3 X S &.%.%.U o : : - O 5 5 w $ N %.@...%.q.w.q.@ q X 4 h ; C q.q.q.2.X 5 q q + } 0.q.0.o.. : 3 3 4 O ;.q.",
" .=.s > : X - q O k j j + S %.&.X.R + j k d O F h J 5 B #.@...@.w.q.q.@ g O w k 4 C q.q.q.4.$ D D D # } 9.q.9...O j j j D $ O.q.",
" .=.s > ; O & 5 $ g f j $ U &.&.%.R & g h d + J 4 k < A %.#...@.w.q.q.% 7 + 5 g 4 A q.q.q.4.& j j g - } 0.q.q.O.# g f f d $ ;.q.",
" .=.A a e t y a y a a a e ( %.%.X.( a a a a a Z z z r T %.#...@.q.q.q.i u e y u l W q.q.q.4.8 y y e e ;.0.q.q.%.e y u a y y :.q.",
" .&... .....X.+.X.X.+.+.X.@.%.%.%.X...X.#.X.......{ _  .%.%.@.#.w.q.9.+.+.;.;.;.%.,.q.q.q.q.;.:.:.+...3.q.q.q.4.>.+.%.%.2.3.q.q.",
" .&. .) ) ) ^ ^ ( ( ) ( ) @.%.%.X...( E ^ ^ ^ ^ ( E E { %.#...@.w.w.q.0.q.q.q.q.q.q.q.q.q.q.q.8.q.0.q.q.q.q.q.q.q.q.q.q.q.q.q.q.",
"{ &.&.%.%.%.#.%.%.%.%.%.&.%.#.%.%.%.%.$.%.#.@.%.@.{ { @.@.@...@.w.w.q.q.q.q.0.q.q.q.q.q.q.q.q.q.q.q.q.q.q.q.q.q.q.9.q.q.q.q.q.q.",
"{ &.&.%.%.%.*.=.=.&.&.=.&.&.%.%.%.%.%.&.%.&.%.%.%.%.@.@.%.%.@.@.w.w.q.q.q.q.q.0.q.q.q.q.q.q.q.q.e.q.q.q.q.q.q.q.q.9.q.q.q.q.w.q.",
"{ &.=.&.&.&.&.&.:.&.%.%.&.%.%.%.%.%.$.%.%.%.%.%.$.$.@.#.%.%...#.w.w.w.q.q.q.0.q.q.q.q.q.q.q.q.q.q.q.q.q.q.q.q.q.q.9.9.w.q.q.w.w.",
"_ &.b < < , , , , < < < , T #.%.X.E * < = , = = , , * A #.%.@.#.w.q.q.1 < < , , , I q.q.q.6., < < = = ;.q.q.q.O.= , < < < = ,.9.",
"_ =.s - 3 3 4 ; O q q 4 O S %.%.@.T + 4 4 3 O 5 q q $ N %.%.#.%.q.w.w.@ 4 4 q 5 & C q.q.q.4.# w d 6 $ O.9.q.q.o.X 6 5 5 q + :.q.",
"_ =.b 3 j f f q + j j g O S @.%.$.T # f j d X d j D - N %.&.#.%.w.q.w.@ j H D D 4 C w.q.q.6.O D K J & o.q.q.0.} O D F F F $ :.q.",
"_ &.s $ ; ; 3 - + - 3 -   S $.$.$.T   3 ; - X & & 4 + b %.$.@.%.w.q.q.% ; ; - - # C q.q.q.6.o 4 4 4 O o.0.q.0.o.  - - - - O :.0.",
"[ :.s + & $ & - o - & - X S %.%.%.Y   - $ #   - & & O C %.%.{ @.w.w.q.$ 3 O o & $ C w.q.q.4.  ; 3 4 # o.0.w.q.O.  & . . - O :.q.",
") %.p - w d g q + g w d + I %.%.O.R + 4 w 4 o d d d ; b %.$.@.@.q.q.q.& h $ O q 3 C e.q.q.2.  j D D - o.q.q.0.O.. w . X f $ :.q.",
"[ &.s - q d d q # d 6 d + I %.%.$.T + q d q o w q f $ N %.%.{ ..w.q.w.= q & @ 4 4 n q.q.q.3.+ f h f - o.0.q.q.O.o 6 O O 6 # :.0.",
"[ :.M < 1 4 7 7 1 7 7 7 1 E %.%.%.W = < 7 4 = = > 7 < S %.&.....e.w.e.l w 9 9 9 e Y e.0.0.7.9 e e 9 e :.q.w.q.:.9 e e f l e 3.q.",
"_ %...X.X.{  . . . ._ {  .X.%.+.$.{ ) [ _ _ ) ) _ _ [ ..&.%...@.w.0.w.-.' ' | ;.;.1.0.e.q.0.;.;.:.;.;.6.q.q.q.7.;.;.;.;.,.,.0.q.",
"[ &._ ( ( / E E ^ / ^ ^ ( ..%.%.%.{ ( E ( ( ^ / ( ( _ ..%.%.{ %.w.0.w.o.F H ! 1.q.q.0.0.w.e.q.q.e.q.q.q.q.w.q.q.0.0.0.w.w.w.q.w.",
"[ &.%.@.$.@.X.@.%.X.%.%.%.%.%.%.$.X...X.%.X...X.....X.%.%.$.@.%.w.0.q.| g 5 ! 3.w.q.w.w.0.e.q.q.w.q.q.w.q.q.q.q.w.q.w.w.q.q.w.q.",
"[ %.%.$.%.%.%.%.%.&.&.&.%.X.@.%.%.%.#.X.%.%.X.%.$.X.@.%.%.%.O.%.w.q.q.o.o.| o.3.q.q.q.q.q.w.q.q.w.q.w.w.q.w.q.q.q.q.q.e.q.q.q.q.",
"[ %.=.&.=.%.&.=.=.<.=.=.%.%.%.&.%.%.&.&.&.%.%.%.%.$.@.%.%.@.$.%.q.0.w.>.-.-.;.7.e.w.w.q.q.w.r.w.e.w.e.w.q.w.q.q.r.e.w.r.e.w.e.w.",
"[ &.t $ @ @ % % @ & $ @ @ S %.$.@.T + @ @ @ @ @ @ $ @ B $.X.{ $.q.w.q.* @ @ + @ @ P q.q.0.6.@ & $ % $ O.q.q.0.} @ $ % $ $ + :.0.",
"( %.r $ - 3 3 > O 4 4 4 O A %.%.X.U o - 4 5 O 4 3 4 $ M X...{ ..9.9.0.& 3 3 4 3 # Z q.q.q.3.. 4 4 4 O } 0.q.0.}   > 4 4 5 + ;.q.",
"_ %.t 3 f j j d + k v j $ A %.%.@.T O f j j O v D D 3 b ....{ ..0.w.w.& h j F v 4 C q.q.q.4.O j k j $ } 8.q.q.O.X j j D D # :.q.",
"_ &.y 7 j j v h O v D D & A X.X.@.T # j k j + D D D ; C ...._ { 9.9.w.& h F F v 3 C q.q.q.4.# D D k & } q.q.q.} O j D D D # :.q.",
"_ %.y ; 4 q q 5 + 7 q w $ A X.@.@.S O q d w # 5 w w - B ...._ { w.0.w.& 5 6 5 5 & Z q.0.8.4.O 5 d 5 $ } 8.q.q.} O 6 q d 5 $ ;.8.",
"{ &.N t y y e y a a a e e R $.$.%./ y y a a y a y s y T ....{ { w.9.w.Z C V V V C ` q.q.q.6.z c V c z :.8.q.q.:.c V m m n c 2.q.",
"_ %.{ { _ _ _ _ _ [ [ _ _ { $.$.$...) ) _ ) ) _ _ ) E { X...{ @.w.0.9.2.3.3.1.,.,.4.q.0.q.8.;.,.1.:.,.7.8.q.q.6.;.;.;.:.:.:.8.q.",
"[ %.%.$.%.%.$.%.%.%.$.X.$.@.$.$.$.%.$.%.$.O.%.$.O.$.$.$.$.X.O.%.q.w.0.0.9.0.9.0.q.q.0.q.q.q.q.0.q.q.0.q.q.q.0.8.q.0.0.0.w.0.0.w.",
"[ %.:.%.:.%.%.%.&.%.%.X.%.$.%.$.$.%.%.$.$.$.$.%.$.$.$.%.%.X...X.w.0.w.0.9.9.q.q.q.q.q.q.q.q.q.q.q.0.0.q.q.q.q.q.0.q.0.w.w.q.q.q.",
"A E R E R R R R R R R R U U R R R R R R W R W R R R R E W R U R O.O.O.o.o.o.o.o.} } O.} } } } } o.O.} o.} o.} } -.} } } } } } -."
};
