/* XPM */
static char *rcp18885904111520120[] = {
/* columns rows colors chars-per-pixel */
"64 64 184 2 ",
"   c #564A37",
".  c #5A4B36",
"X  c #5C4E39",
"o  c #5F513C",
"O  c #7C653D",
"+  c #3D3F41",
"@  c #3F4142",
"#  c #2E627C",
"$  c #32657E",
"%  c #424445",
"&  c #474847",
"*  c #454748",
"=  c #47484A",
"-  c #4A4B4B",
";  c #504F4E",
":  c #4F504B",
">  c #52514E",
",  c #545350",
"<  c #585751",
"1  c #5B5A53",
"2  c #605F56",
"3  c #7F6840",
"4  c #636157",
"5  c #656359",
"6  c #69675B",
"7  c #6C6A5D",
"8  c #7B6F53",
"9  c #726E5F",
"0  c #7D7154",
"q  c #72705F",
"w  c #725E63",
"e  c #4A6B7E",
"r  c #766367",
"t  c #726E60",
"y  c #757262",
"u  c #797565",
"i  c #7D7967",
"p  c #7E7A68",
"a  c #9B3F31",
"s  c #9B4032",
"d  c #A24335",
"f  c #A6473B",
"g  c #B74937",
"h  c #BC4B3A",
"j  c #BE513F",
"k  c #8B703F",
"l  c #C24D3A",
"z  c #A75546",
"x  c #BA5744",
"c  c #BC5846",
"v  c #8D7342",
"b  c #8A774B",
"n  c #917643",
"m  c #947945",
"M  c #937C4A",
"N  c #987E49",
"B  c #817457",
"V  c #827659",
"C  c #85785A",
"Z  c #AD6652",
"A  c #827E6A",
"S  c #BF7862",
"D  c #C05E49",
"F  c #C17D67",
"G  c #96804D",
"H  c #9C834C",
"J  c #9F894D",
"K  c #9A8652",
"L  c #A1864C",
"P  c #A48B4D",
"I  c #A88C4F",
"U  c #A48D52",
"Y  c #A88E50",
"T  c #A69054",
"R  c #AA9355",
"E  c #A79359",
"W  c #AC9659",
"Q  c #AE995C",
"!  c #B09A5D",
"~  c #86816B",
"^  c #8A846E",
"/  c #8D886F",
"(  c #8D8770",
")  c #928C73",
"_  c #979075",
"`  c #9A9377",
"'  c #9C9579",
"]  c #9F987A",
"[  c #AF9A60",
"{  c #B39D62",
"}  c #AC8E73",
"|  c #BD8B72",
" . c #A49D7D",
".. c #A89F7F",
"X. c #B6A165",
"o. c #A7A07F",
"O. c #A8A07F",
"+. c #2D6584",
"@. c #2E6788",
"#. c #326781",
"$. c #346A84",
"%. c #386B84",
"&. c #346D89",
"*. c #396F89",
"=. c #36718C",
"-. c #3A748D",
";. c #3D788F",
":. c #3B7690",
">. c #367A95",
",. c #3D7991",
"<. c #496E81",
"1. c #447387",
"2. c #45798E",
"3. c #4C798A",
"4. c #427D92",
"5. c #487D91",
"6. c #527F91",
"7. c #59818E",
"8. c #468194",
"9. c #4A8495",
"0. c #47859C",
"q. c #49879A",
"w. c #43889D",
"e. c #4C8A9C",
"r. c #568294",
"t. c #5A8596",
"y. c #5D8996",
"u. c #5C8798",
"i. c #518D9D",
"p. c #5D8898",
"a. c #5F8C98",
"s. c #698488",
"d. c #728785",
"f. c #618D97",
"g. c #628C97",
"h. c #608B98",
"j. c #638C9A",
"k. c #648E98",
"l. c #658E9A",
"z. c #659099",
"x. c #67919A",
"c. c #66909C",
"v. c #68919A",
"b. c #6B949B",
"n. c #69929C",
"m. c #6B949C",
"M. c #6C959D",
"N. c #6C969C",
"B. c #6F989D",
"V. c #71979E",
"C. c #71989E",
"Z. c #729A9E",
"A. c #4A86A0",
"S. c #4D8AA4",
"D. c #4F8DA8",
"F. c #528EA7",
"G. c #5492AB",
"H. c #5A95AD",
"J. c #629AAF",
"K. c #769DA0",
"L. c #789EA1",
"P. c #7DA1A3",
"I. c #8B9689",
"U. c #A69F80",
"Y. c #ABA383",
"T. c #A9A484",
"R. c #ACA788",
"E. c #BCAF94",
"W. c #BAB597",
"Q. c #BEBA9C",
"!. c #80A4A5",
"~. c #8DA7A3",
"^. c #87A8AB",
"/. c #97ADA6",
"(. c #9CB1AA",
"). c #A2B1A5",
"_. c #BBBBA2",
"`. c #C3A389",
"'. c #C4AF94",
"]. c #C5B398",
"[. c #C1BB9E",
"{. c #C3BEA1",
"}. c #C6C0A4",
"|. c #CAC5A8",
/* pixels */
"r.r.r.r.r.t.r.t.r.t.r.t.r.t.r.t.6.t.r.t.6.t.r.t.r.t.r.r.r.r.r.r.r.r.t.r.t.r.r.r.r.r.t.r.t.r.t.r.t.r.t.r.r.r.t.6.t.r.t.r.t.r.t.r.",
"t.t.t.t.r.u.r.p.r.u.r.u.r.u.r.u.r.u.r.u.r.u.r.u.r.t.r.t.t.t.t.t.t.r.t.r.t.r.u.r.u.r.u.r.p.r.u.r.u.r.u.r.t.r.u.r.u.r.u.r.t.t.t.t.",
"r.t.r.t.r.t.r.t.r.t.r.t.r.t.r.t.r.t.r.t.r.t.r.t.r.t.r.t.r.r.t.r.t.r.t.r.t.r.t.r.t.r.t.r.t.r.t.r.t.r.t.r.t.r.t.r.t.r.t.r.t.r.t.t.",
"t.u.t.t.r.u.t.p.r.p.t.u.r.u.t.p.r.u.r.p.r.u.r.p.r.t.t.t.t.t.t.t.t.t.t.r.t.r.u.r.u.r.p.r.p.t.p.r.p.t.p.r.p.r.u.r.u.t.p.r.p.t.p.t.",
"r.t.r.t.r.t.r.t.r.t.t.t.r.t.r.t.r.t.r.t.r.t.r.t.r.t.r.t.r.r.t.r.r.r.t.r.t.r.t.r.t.r.t.r.t.r.t.r.t.r.t.r.t.r.t.r.t.r.t.r.t.t.t.t.",
"u.p.u.p.t.p.t.p.r.p.t.h.r.p.t.p.r.p.t.p.r.p.t.h.t.p.t.p.t.t.t.u.u.t.p.t.p.r.p.t.p.t.p.t.h.t.h.t.p.t.p.t.p.t.p.r.p.t.h.t.h.y.p.y.",
"t.p.t.t.r.t.t.t.r.u.t.u.r.u.t.t.r.t.r.t.r.t.r.u.r.t.t.t.t.t.t.t.t.r.t.r.t.r.t.t.t.r.p.t.u.t.t.r.t.r.t.r.t.r.p.r.t.t.u.r.t.t.y.t.",
"p.p.u.p.t.p.t.p.r.p.t.p.t.p.t.p.r.p.t.p.r.p.t.p.t.p.t.p.u.u.u.t.u.t.u.t.p.t.p.t.p.t.p.t.p.t.p.t.p.t.p.t.p.t.h.t.p.t.h.t.p.t.h.y.",
"t.t.t.t.r.t.t.t.r.t.t.t.r.t.r.t.r.t.r.t.r.t.r.t.r.t.r.t.r.r.t.t.t.r.t.t.p.r.t.r.t.r.t.r.t.r.t.r.t.r.y.r.t.r.t.r.t.t.t.r.t.t.t.t.",
"p.h.p.h.t.h.u.h.t.h.t.h.t.h.t.h.t.h.t.j.r.h.u.h.t.h.p.p.u.u.p.p.p.t.p.p.c.y.h.t.h.t.h.t.h.t.h.t.h.t.c.y.h.t.h.t.h.u.j.t.h.y.h.y.",
"y.y.y.p.t.y.t.y.t.y.y.h.y.y.t.y.r.y.t.p.r.u.t.p.t.y.t.u.t.t.t.t.t.t.y.t.p.t.y.t.p.t.y.t.y.t.y.t.y.t.p.t.y.t.p.t.y.t.p.t.y.y.y.y.",
"h.j.j.j.t.j.y.j.y.j.h.c.y.l.p.h.t.h.y.j.t.h.u.j.y.h.p.j.p.p.h.p.h.y.h.y.j.y.j.y.l.y.l.y.l.p.j.y.j.y.j.u.j.y.l.y.l.y.j.y.l.j.l.j.",
"y.j.y.j.y.h.y.h.y.p.y.j.t.y.y.y.t.p.y.p.t.p.y.h.y.y.y.y.y.y.y.y.y.y.y.y.y.y.h.y.j.y.j.y.h.y.h.y.h.y.j.y.h.y.j.y.j.y.h.y.j.y.h.f.",
"j.l.l.l.y.l.j.n.y.l.j.l.y.l.h.l.y.l.h.l.u.l.p.c.y.l.j.l.j.j.j.j.j.h.l.j.l.y.l.j.x.j.x.j.c.y.x.j.c.j.v.y.x.f.x.y.x.j.v.f.l.j.x.l.",
"a.j.y.j.y.f.y.j.y.h.y.j.y.j.y.j.y.j.y.h.y.j.y.j.y.j.y.j.y.y.a.j.j.y.j.y.j.y.j.y.j.a.j.y.j.y.j.y.j.a.l.y.j.y.j.y.j.a.j.y.j.f.j.f.",
"l.n.x.n.j.n.l.v.f.n.l.n.f.n.j.n.f.n.j.n.y.n.j.n.j.n.l.c.l.x.x.l.x.l.n.l.n.j.n.l.n.l.m.l.n.l.n.x.M.x.m.l.n.l.n.f.M.x.n.l.n.x.n.x.",
"l.x.l.x.j.x.j.x.j.x.l.x.j.x.j.x.f.x.j.x.a.x.j.x.j.x.l.x.l.l.x.l.x.j.x.j.x.j.x.l.v.l.v.l.v.l.v.x.v.x.v.j.v.l.v.f.v.x.v.l.v.x.x.x.",
"v.n.v.n.x.n.x.n.l.M.v.M.l.M.x.n.j.m.x.M.l.M.x.M.x.M.v.m.v.n.v.v.m.x.m.x.M.x.M.x.M.x.M.v.M.x.M.x.M.v.M.x.M.v.M.x.M.v.M.x.M.v.M.m.",
"x.x.x.x.j.x.l.x.j.x.x.x.f.x.x.x.f.x.x.v.f.x.j.x.x.x.x.x.x.x.x.l.x.l.x.j.x.j.x.x.x.x.v.x.v.x.v.x.v.x.v.j.v.l.v.f.v.x.v.j.v.x.v.x.",
"M.M.M.M.v.V.b.M.v.M.M.C.x.M.b.M.v.C.m.V.v.C.b.C.b.V.M.M.M.M.M.M.M.v.M.m.C.v.C.b.C.b.C.b.C.M.C.M.C.b.C.v.C.b.C.v.C.M.C.b.C.M.C.M.",
"b.M.M.M.b.B.b.M.b.M.M.M.v.M.b.M.v.M.b.C.v.B.b.C.b.M.M.M.M.m.M.b.M.b.M.b.M.v.M.b.C.b.C.M.C.M.C.M.C.b.C.b.M.b.C.b.C.b.C.b.M.M.B.M.",
"C.C.C.C.M.K.C.C.M.C.C.K.M.C.B.C.M.C.M.K.b.K.B.K.M.C.C.C.C.C.C.C.C.B.C.M.C.M.K.C.K.B.K.C.K.C.K.M.K.B.K.M.C.M.C.M.C.B.K.M.C.C.K.C.",
"M.B.M.M.b.B.M.C.b.M.M.C.b.M.M.C.b.M.M.C.b.C.b.C.b.B.M.M.M.M.M.m.M.b.M.b.M.b.C.M.C.M.C.M.C.M.C.M.C.b.C.b.C.M.C.b.B.M.C.M.B.M.C.B.",
"C.K.C.K.C.L.C.L.C.L.C.L.C.L.C.L.C.L.C.L.M.L.C.L.C.K.C.K.C.C.C.C.K.C.K.C.K.C.L.C.L.C.L.C.L.C.L.C.L.C.L.C.L.C.L.C.L.C.L.C.L.C.L.K.",
"C.K.C.K.B.K.C.K.C.K.C.K.C.K.C.K.B.K.C.L.B.K.C.C.C.K.C.K.C.C.C.C.C.C.K.C.K.B.K.C.K.C.K.C.K.C.K.C.K.C.C.C.K.C.K.B.C.C.C.C.K.C.K.C.",
"L.P.L.P.C.P.K.P.C.P.L.P.K.P.L.P.C.P.K.P.C.P.L.P.K.P.L.P.L.L.L.L.L.C.L.K.L.C.P.K.P.K.P.K.P.K.P.C.L.C.P.C.P.C.P.C.P.C.P.C.P.L.P.K.",
"C.K.C.K.C.K.C.K.C.L.C.K.C.K.C.K.C.K.C.K.C.L.C.L.C.K.C.K.C.C.C.C.C.C.C.C.C.C.K.C.K.C.K.C.K.C.K.C.C.C.K.C.C.C.K.B.K.C.K.C.K.C.L.C.",
"P.P.P.P.L.!.P.P.L.!.P.!.L.!.P.!.K.P.L.!.K.!.P.!.P.P.P.P.P.P.P.P.P.K.P.L.P.K.P.L.P.L.P.P.P.P.P.L.P.K.P.C.P.K.P.C.P.L.!.C.P.P.P.P.",
"f.f.f.l.y.l.y.f.t.f.y.f.t.l.y.l.y.l.y.l.t.l.y.l.y.l.f.f.y.f.f.f.f.y.f.y.f.y.f.y.j.y.l.y.f.y.f.t.l.y.f.t.f.y.f.t.f.y.j.y.f.y.f.y.",
"#.#.#.%.$ %.#.%.$ #.$ %.$ %.#.%.$ %.$ %.$ %.$ %.$ #.#.#.$ #.#.#.#.$ #.$ #.$ #.$ %.$ %.$ %.#.#.$ #.$ %.$ #.$ %.$ #.$ *.$ %.#.%.#.",
"$ $ $ $ # $ $ $ # $ $ $ # $ # $ # #.# $ # $ # $ # $ $ $ # $ $ # $ # #.$ $ # $ # $ # $ # $ # #.# $ # #.# $ # #.# $ # #.# #.$ #.$ ",
"%.%.#.%.#.#.#.*.#.%.#.*.#.*.#.*.#.-.%.%.$ %.#.%.$ %.#.#.#.#.#.#.%.&.-.&.-.#.#.#.%.#.%.#.&.#.*.#.*.#.&.#.%.#.%.$ %.#.*.#.*.#.#.#.",
"#.%.$.%.#.%.#.%.#.&.$.&.$.&.$.&.#.&.$.&.+.&.$.&.$.&.$.%.$.$.$.$.$.$.&.$.&.$.&.$.&.$.%.#.&.#.&.#.%.$.%.+.%.#.&.+.&.$.&.$.&.$.&.$.",
"*.-.&.*.&.-.&.&.#.*.%.&.$.*.%.&.#.*.%.*.#.*.%.*.$.&.%.%.#.#.&.%.%.$.&.$.%.#.%.$.&.#.&.#.&.#.&.#.&.#.&.#.&.#.&.#.*.%.*.%.*.&.*.&.",
"&.&.&.&.$.&.&.&.$.&.&.=.&.-.e e <.r.3.e e 6.3.<.&.=.&.&.&.&.&.&.&.$.&.&.&.&.=.&.-.=.2.3.2.=.2.3.5.-.-.$.&.$.&.@.=.&.=.&.&.&.&.&.",
"&.=.&.&.&.-.&.=.&.-.-.,.-.r h l S |.`.l D |.'.z 1.-.-.-.=.=.-.-.-.=.-.-.:.;.8.;.F.H.).}.^.H.(.}.(.H.A.=.-.&.=.&.4.,.4.;.;.-.,.;.",
"=.=.=.=.=.;.;.4.-.;.-.1.r h h F {.}.`.g x ].{.'.z <.-.,.-.-.-.4.4.4.4.;.,.=.-.0.G./.}._.!.G./.{.{.~.G.0.:.&.-.=.=.&.-.&.=.&.-.=.",
"-.-.-.-.=.:.-.:.=.,.1.r g j | }.[.{.`.h g c {.}.[.x <.,.,.,.,.,.:.-.:.=.-.=.A.G.J.).}./.H.G.(.[.{./.J.G.S.-.-.=.-.=.,.-.,.-.;.-.",
"8.9.9.9.,.,.,.8.4.8.r h g S W.[.Q.Q.| g g x E.Q.W.Q.h 7.8.8.8.8.8.8.9.4.4.A.G.D.).[.[.~.G.F.~.W.Q.W.~.D.G.A.4.;.8.4.9.8.9.8.9.9.",
":.,.,.,.-.:.-.,.:.,.w d s Z T.T.T.} d d s d z Y.T.Y.d f >.,.,.,.,.:.,.:.=.+.&.+.I.Y.Y.d.$.+.&.s.Y.T.d.+.$.+.-.;.,.;.8.,.4.,.4.,.",
"e.e.e.e.q.e.q.e.q.e.r d s Z T.R.T.} d f a d z R.T.T.d f w.q.q.q.e.q.e.q.:.+.@.+.I.T.R.d.+.+.@.s.Y.T.s.+.@.+.:.q.i.e.i.q.i.e.i.e.",
"T T U U J P J U U T U Y P I U T P T m . L I P W U R Y R T E W E W U U U U H U P U P R P b   T P R U R J U J T P T U U J U P T T ",
"Y P P U P P P P P R R W T W U Y P R G X P R T W T T T W R W Q W W R R P P L P P R P U P m   W P R P R P R P T P R P Y P P P T U ",
"W W R W R Q T T P T R ! T T P P P W K X P Y P R U ! Q W T T W Q W P T R W T W P P P I P M X W T ! W ! T T P T P T P P P P P P P ",
"W R ! X.W ! W ! W ! W W T Q W ! R ! K o W { Q { W W R ! W Q ! T Y W ! Q { T W R ! R Q R G X ! R W T W R ! R ! R ! W Q R Q W ! W ",
"Q W W W W ! W ! W ! W ! W ! W ! R W H o R W R { Q ! ! Q Q Q ! Q Q W ! Q ! W ! W { W Q W K . R T ! R ! W ! W { W W R ! R Q W R R ",
"{ Q W ! Q { Q { W Q Q { R W W { W ! K o R ! Q X.! { ! ! Q W W ! { R W Q { R Q Q { W ! W K . ! W { Q { R W R { Q ! W W T ! W ! ! ",
"Q ! Q ! W Q Q ! W ! Q ! W Q W Q W ! K X W { Q { Q W R ! W W Q Q Q W Q W ! W Q W ! R R W K X Q W ! W ! W W R W R Q W Q R Q W Q W ",
"Q Q ! { Q { W ! W { U H G H G H G L m X N H N H N G H U W Q W ! ! Q ! Q { H G G H N N m v . H G H N H N N G W T Q W { Q Q R R T ",
"W Q W Q W Q W Q E Q T H v m n m v m v 3 v m v m v m m U W Q Q Q Q W Q W Q U N n m v n v v O m n m v n k N U Q R Q W Q W W W W W ",
"{ { Q { Q { Q { W { [ { H U U U L U U E U U U U U U U ! R { { { { Q { ! { Q Q U U P U U R U U U R U U H E Q { Q W R { W Q W { [ ",
"0 0 0 0 0 B 0 B 0 V V V 0 B 0 V 0 V B V 0 B 0 V 0 V B B B C C C C B V B C 0 V 0 B 0 B 0 V B V 0 V 0 B 8 B 0 B 0 B 0 V 8 0 8 V V ",
"- ; p ^ ~ ^ ~ ^ ~ t > , - , ; , - , 1 ^ ~ ^ ~ / ~ ^ A , > , , > > ; , > > t / ~ ^ ~ ~ ~ ~ 5 > - , - > - > - > 5 / ^ ( ~ ^ p , > ",
"6 y `  .p u y u ~ ( 1 % % % % % @ - u  ._ u y u y  . .9 % % % % % % % % 5 (  .A u q y ^  .A < @ % @ % @ % % 1 ~  .) u y u y t 9 ",
" .T.u y - = % = > ( / i 4 - * > u A ' y 5 - * - * y y  .y u = * * % 6 u ' ~ y , - % - 1 y ) ( y 4 % = % 1 u ) ) y 5 - % - - p ..",
" .y & % @ % % % % 1 ~  .) p u A  . .4 % + % @ % % * * t  . .p u u u `  .p > % % % @ % % * 1 (  .) u u u ^  .( 1 * % * @ % % - 7 ",
"u - = y y u y u 4 - 1 (  .Y.T.Y.] y % > 9 u y u y u * - u Y.Y.T.T.O.Y.A , % 2 y u y u y 1 * 5 ( Y. .Y. .Y.) 4 % , y u y u 7 - * ",
"% % 5  . .O. .O.( 1 % 1 u p u p 7 % & u  .T. .T. .o.6 * = p i u i u p > % 1 ^  . . . . .~ > % 1 i u p u p 4 % : p  . . . .' 6 % ",
"* 6  .Y.O.Y.T.Y.T.) 1 - % = * - % - u Y. .Y.T.Y.T.Y. .7 % * = * = % = * 4 ) Y.T.Y. .Y. .Y.A 1 % - % - % - % 1 A Y.T.Y. .Y.O.T.6 ",
"7  . .u y u y u / U./ 4 % * % * * u  . .t u y u y u  . .6 % * % % % % 2 _  .) u u y u y )  .~ < % % * % * > ^  .] y u y u p  . .",
"O.T.y - % - * = 1 ( O.` u p u p p T.` 6 @ - % - % = t T. .u p u i u p ' T.A 1 * - * - * 2 _ Y.( p u p u p ^ T.) 5 * - % - - u O.",
" .p & % @ % % % @ 1 ^  . . . .o. .] 5 % + % @ % @ % % u  . . . . . . . .A > % % % @ * % * 4 )  . . . . . . .) 1 % % * @ % % - y ",
"p - * = % = % = % - 2 )  .Y.T.Y.] u % - % - % - % = * - A Y.T.T.Y.T.Y.^ , % = % = % - % - * 6 ) Y.O.Y.o.Y.` 6 % = * - % - * = * ",
"% % % % @ % @ % @ % % 1 p A A A y % @ % + % @ % @ % % % - A A A A p A > % @ % % % @ % @ % % % 1 A p A p A 5 % + % @ % @ % % % % "
};
