/* XPM */
static char *result[] = {
/* columns rows colors chars-per-pixel */
"64 64 173 2 ",
"   c #231A1F",
".  c #261E23",
"X  c #272025",
"o  c #292126",
"O  c #27262C",
"+  c #2B252A",
"@  c #2E292E",
"#  c #302A2F",
"$  c #39312F",
"%  c #2E2C31",
"&  c #312E33",
"*  c #2E3138",
"=  c #333136",
"-  c #35343A",
";  c #3A373A",
":  c #37393E",
">  c #3A3A3D",
",  c #413A35",
"<  c #433E3B",
"1  c #47403C",
"2  c #4A423C",
"3  c #373B42",
"4  c #3B3D43",
"5  c #3E4146",
"6  c #3E4349",
"7  c #414245",
"8  c #4F4942",
"9  c #41464B",
"0  c #44494E",
"q  c #544E45",
"w  c #584F4B",
"e  c #5A5247",
"r  c #57514A",
"t  c #5D554B",
"y  c #464C52",
"u  c #484E52",
"i  c #475057",
"p  c #4A5156",
"a  c #4C555A",
"s  c #4F595D",
"d  c #555452",
"f  c #5B5653",
"g  c #5D5A56",
"h  c #515C5E",
"j  c #5F5C58",
"k  c #615748",
"l  c #645B4C",
"z  c #6A5F4C",
"x  c #645C55",
"c  c #625E59",
"v  c #6D624E",
"b  c #76614E",
"n  c #676057",
"m  c #6C6353",
"M  c #666158",
"N  c #696359",
"B  c #716652",
"V  c #7C6751",
"C  c #746954",
"Z  c #746C59",
"A  c #7B6E5B",
"S  c #7C725C",
"D  c #4F5A61",
"F  c #525D62",
"G  c #556166",
"H  c #55636C",
"J  c #59646A",
"K  c #5C6B6D",
"L  c #576770",
"P  c #566870",
"I  c #5D6D72",
"U  c #5F7174",
"Y  c #5C727A",
"T  c #7E7760",
"R  c #75756C",
"E  c #797A6E",
"W  c #617274",
"Q  c #61767C",
"!  c #657B7D",
"~  c #697D7F",
"^  c #7D7D71",
"/  c #856F55",
"(  c #867156",
")  c #887257",
"_  c #86735A",
"`  c #8B765A",
"'  c #8D7A5C",
"]  c #907B5E",
"[  c #837A62",
"{  c #897C63",
"}  c #807D6D",
"|  c #807F72",
" . c #7F8073",
".. c #8C8263",
"X. c #83846F",
"o. c #8B8369",
"O. c #928464",
"+. c #968A67",
"@. c #9D8A64",
"#. c #90866A",
"$. c #958A6A",
"%. c #9B8D6D",
"&. c #9E916C",
"*. c #848375",
"=. c #888775",
"-. c #8A8A75",
";. c #858678",
":. c #878B7B",
">. c #8C8C7A",
",. c #9C8E70",
"<. c #908F7B",
"1. c #8F9076",
"2. c #949277",
"3. c #9B9070",
"4. c #9D9877",
"5. c #93927D",
"6. c #9E9B7C",
"7. c #A08D67",
"8. c #A18F69",
"9. c #A4936C",
"0. c #A8966E",
"q. c #A5986F",
"w. c #A69A73",
"e. c #A49A77",
"r. c #A99D75",
"t. c #ACA076",
"y. c #ADA27A",
"u. c #B2A375",
"i. c #B2A67A",
"p. c #B5A97E",
"a. c #B9AB7C",
"s. c #637C84",
"d. c #697F81",
"f. c #657F88",
"g. c #678087",
"h. c #6E8484",
"j. c #66828A",
"k. c #6A858C",
"l. c #6E898E",
"z. c #708685",
"x. c #718887",
"c. c #738D8D",
"v. c #76908F",
"b. c #688790",
"n. c #6E8B92",
"m. c #728E93",
"M. c #759294",
"N. c #7A9595",
"B. c #7D9896",
"V. c #769499",
"C. c #799699",
"Z. c #7E9B9B",
"A. c #969580",
"S. c #819E9C",
"D. c #83A09E",
"F. c #AFA681",
"G. c #AFA883",
"H. c #B0A782",
"J. c #B2A982",
"K. c #B9AE82",
"L. c #BDB286",
"P. c #BFB488",
"I. c #83A2A0",
"U. c #C3B584",
"Y. c #C6B887",
"T. c #C1B689",
"R. c #C5BB8D",
"E. c #CABE8D",
"W. c #C7BD90",
"Q. c #C9BE91",
"!. c #CDC18F",
"~. c #CDC191",
"^. c #D0C492",
/* pixels */
"$.y.y.y.t.t.y.y.y.i.t.y.u.y.y.i.t.y.y.y.t.y.t.y.t.y.u.y.y.[ w x.h.h.h.x.h.z.h.h.z.d.x.z.x.z.d.z.z.d.x.x.d.x.d.d.c.d.d.x.d.x.d.z.",
"J.~.!.!.!.!.!.!.^.~.!.!.!.!.!.!.!.!.!.!.^.!.!.^.!.!.!.!.~.,.N I.S.I.D.D.S.S.S.S.D.D.D.D.S.D.D.S.I.D.S.I.S.S.I.I.I.I.S.S.I.I.I.S.",
"V ) ) ) ( / ( ) ) ) ( ) ) / ( _ ) ) ( ) ) ) ) ( ) ` ) ) ` b n C.C.Z.C.Z.S.Z.C.Z.C.C.S.C.S.C.C.C.C.C.S.S.C.V.V.C.S.S.M.V.V.C.S.S.",
"O.9.9.9.9.9.9.9.9.9.9.9.9.9.9.9.8.7.9.9.0.0.9.9.8.9.0.0.0._ t Y P P L L L H H H L F L K F L F H L F H F H H L F F F F L H F L J ",
"p.Y.E...b v v v ..E.E.E.E.B z z z z &.Y.E.E.+.v v v v &.E.%.t d.Q W I I I I I I I I I I I W I I L I I W I W W K I K I I I W Y W ",
"J.!.^.k = = % - k !.!.!.^.$ ; & - - A !.!.!.Z ; - > % { E.&.n D.S.B.s h h h s p ~ S.S.S.S.N.a s a a p d.S.S.S.z.a a a p a p c.S.",
"p.!.!.l 7 0 6 p k !.!.E.^.$ 0 4 u 0 A E.E.!.Z 0 9 s > [ E.%.n D.S.N.+ = = & & @ K S.S.S.S.c.. = = & + W S.S.S.! . = = ; ; . d.S.",
"J.E.!.l > > : 7 k !.!.E.^.$ ; & ; > S E.!.^.S > - 7 - [ E.%.n D.D.N.+ F F F F 4 J S.S.S.S.c.+ a a a # W S.S.S.W . a D D D # x.D.",
"i.!.!.k @ @ @ @ t !.!.E.^.$ @ # & % S !.!.!.Z @ & & + [ E.%.N I.S.N.o u u y y ; K S.S.S.S.c.+ y 0 0 # I N.S.S.! . y 0 y y @ d.S.",
"i.!.!.k - 3 5 3 l !.E.E.!.$ > 6 6 3 S !.E.!.S 3 6 4 & [ E.%.x S.S.N.o # @ . @ . K S.S.S.S.c.. $ o # . W S.S.S.Q . @ . & # . z.S.",
"G.!.!.B > < 1 1 B !.!.!.!.2 < > 1 < ..Y.!.!...1 < > < #.!.9.x I.S.v.+ p y 3 p > J S.S.S.S.c.# s 4 F & W S.S.S.! . p @ D i # z.S.",
"i.!.!.u.u.r.0.r.u.!.!.E.!.u.u.u.t.u.p.E.!.E.p.u.i.u.u.U.E.,.N I.S.S.+ a 4 @ 9 ; K S.S.S.S.v.@ p = F # W N.S.S.! @ i . D a # d.S.",
"G.E.E.T.R.R.R.E.E.E.E.E.!.Y.Y.E.T.E.E.E.!.!.E.Y.E.E.E.E.~.%.N D.S.S.+ . o o o . K S.S.S.S.v.. @ + @ . W S.S.S.d.+ # . @ # . z.D.",
"J.!.!.E.E.E.E.E.E.!.E.E.!.Y.E.E.E.E.!.!.!.!.E.E.E.E.!.E.^.3.N I.S.S.k.f.k.k.f.f.v.S.S.S.S.S.k.k.k.b.f.C.S.D.S.M.l.n.l.f.l.l.S.S.",
"y.R.E.R.E.R.E.E.E.E.R.E.E.E.E.E.T.E.E.E.E.E.E.E.Y.E.Y.!.~.%.N D.S.S.S.N.N.S.N.N.S.S.S.S.S.S.S.N.S.N.S.S.S.S.S.S.C.S.C.S.S.C.D.S.",
"J.!.!.E.!.E.!.!.!.!.!.!.!.!.!.!.E.!.!.!.E.!.!.!.!.E.E.!.~.9.N I.S.S.S.S.S.S.S.S.S.S.S.S.S.S.S.S.S.S.S.S.S.S.S.S.S.S.S.S.S.S.D.S.",
"_ ' ' ` ) ) ` ' ` ` ` ' ` ` ' ` ) ' ' ` ] ] ' ` ` ` ' ` ' V N D.D.S.S.S.S.S.C.S.S.S.S.S.S.S.S.S.S.S.S.S.S.S.S.S.S.S.Z.D.D.S.D.S.",
"O.@.7.@.@.@.@.@.@.@.@.@.@.@.7.@.@.@.@.@.@.@.@.@.@.@.7.9.9.) N I.S.S.S.S.S.S.S.S.Z.S.S.S.S.S.Z.Z.C.S.S.S.S.S.S.S.S.S.S.S.S.S.D.S.",
"y.T.R...C C C C ' Y.U.U.Y._ B C B B &.a.U.U.+.C C V C e.E.%.N I.D.S.F F h F F h ~ S.S.S.S.N.h h F F d d.S.S.S.x.d h h F h h N.S.",
"y.~.!.t # & # = q E.E.E.~., % = = # A !.Y.!.B @ & & + [ E.%.x S.S.v.+ = = ; ; + G N.S.S.S.m.o - = - + K S.S.S.! . & & - = . h.S.",
"G.R.~.t > 6 5 0 e !.E.R.~., 4 y i 4 S E.!.!.C 4 0 y - [ Q.$.x D.S.N.. s F F F ; G S.S.S.C.v.. F F F & K S.S.S.! . D a a s @ h.Z.",
"J.!.~.k @ + @ # q ~.E.E.~., + + @ O S E.!.!.C @ @ % + [ Q.%.x I.S.N.o a a s a = F S.S.S.S.c.o u a a & K C.S.S.! . y y y y + h.S.",
"G.E.~.k 6 6 : 0 q ~.E.E.^.< 4 - 6 9 S E.!.~.C 5 4 6 - { Q.%.c S.S.S.o @ + + + + h S.S.B.S.c.. + + + . H S.S.S.! . . . . . . h.Z.",
"J.W.~.l 0 6 5 s r ~.E.E.^.< 0 3 0 0 S E.!.!.C 5 4 i 4 o.~.%.x D.S.N.+ s s i a & h S.S.S.S.m.+ u i u % K S.S.N.! . . . + 4 + h.S.",
"J.E.~.x = - - - r ~.E.E.~.7 = - - - S !.!.!.T - - - - o.Q.%.x D.S.v.+ F F F F = F S.S.S.S.v.+ s F a & K S.S.Z.!   . . + 4 + h.S.",
"J.E.~.w.%.$.+.+.&.~.E.R.~.#.O.O.+.+.r.E.!.R.e.$...O...i.Q.%.c D.S.v.+ @ + @ # @ F S.S.S.S.c.. & & @ + K Z.Z.Z.! . + . @ & + h.Z.",
"J.W.~.R.R.R.P.R.P.!.!.W.~.P.P.P.T.P.T.!.!.R.P.P.L.L.P.!.Q.,.n I.S.S.Q s.Q s.s.d.c.S.S.S.S.N.Y Q s.Q Y n.Z.S.Z.m.Y s.Y s.s.Q V.S.",
"J.W.W.E.!.W.E.W.W.!.R.W.~.W.~.~.E.R.E.R.R.R.!.R.P.R.R.R.E.%.c D.S.S.m.m.M.C.C.C.N.S.S.S.S.S.C.C.C.C.N.Z.S.Z.Z.B.V.M.m.V.m.C.Z.S.",
"J.W.W.E.W.R.R.R.W.W.W.R.W.R.~.P.R.R.R.T.!.R.R.P.P.R.R.W.W.$.c D.S.S.S.S.C.S.C.S.S.S.S.S.S.S.S.S.S.S.S.Z.S.S.Z.Z.C.C.Z.Z.C.S.S.S.",
"J.Q.W.W.R.W.R.R.P.W.R.P.R.R.P.~.R.R.R.P.L.P.R.P.R.R.R.R.!.,.n I.S.S.S.D.S.S.S.C.S.S.S.S.S.D.S.S.S.S.S.S.S.S.Z.Z.Z.Z.Z.S.S.S.D.D.",
"H.W.~.W.W.W.W.R.W.W.E.R.R.R.P.P.R.R.R.P.L.P.T.!.R.R.R.W.W.$.c I.S.I.S.S.S.S.S.S.S.S.D.S.S.D.S.S.D.S.S.S.S.S.Z.Z.Z.S.S.S.S.S.D.S.",
"F.R.W.#.Z Z N Z T R.R.W.!.T Z Z Z N 3.R.R.R.3.Z Z Z Z 4.R.$.c S.S.S.F h F h s s h.S.S.S.S.N.h h F F h h.Z.Z.S.x.s F s h F a N.S.",
"G.P.!.t % = - = < W.R.R.^.1 - 4 > - C R.R.!.Z % = = + T Q.$.x D.S.v.. = ; - = + K S.S.S.S.x.o > 5 > @ U Z.Z.Z. .. * - - - o x.D.",
"G.!.!.v 5 a a y 2 W.W.W.~.1 9 p s 6 S E.E.!.C 6 i a = T E.%.c D.S.v.+ 7 9 7 4 # K S.S.S.S.v.o 0 0 y @ I B.D.Z.~ O i s D p O x.S.",
"G.!.~.g < i y 9 2 Q.E.E.!.< @ @ + + S R.E.E.C 6 a p & T W.%.c D.S.N.. @ + . + + K S.S.S.S.c.. o X % o W Z.Z.Z.~ O i p p i + h.D.",
"G.!.!.v o O X @ 2 Q.Q.Y.^.2 y p D p Z R.W.!.Z O @ # @ T Q.%.n I.S.N.+ a & . a 4 K S.S.D.S.v.o 4 + p = W Z.D.Z.g.. + X X + o x.Z.",
"G.W.W.x > 6 6 0 2 Q.E.E.~.1 9 s h p Z E.R.!.C 6 s F - [ E.$.c I.Z.N.@ D & + u 4 K D.D.S.Z.v.O a @ p * U C.Z.Z.! . y @ o 5 @ x.Z.",
"G.W.W.l + + O @ < Q.W.R.~.< + O O O Z E.!.!.m % % % % [ W.%.x Z.S.M.% = + . % # K Z.Z.D.Z.c.@ O @ O X U C.D.Z.~ . % . + O + x.Z.",
"G.W.~.4.1.X.-.>.2.W.W.E.Q.q.&.$.+.@.r.T.T.T.9.@.@.%.%.p.W.%.n D.Z.B.f.s.s.f.s.s.M.Z.I.Z.Z.Z.g.g.j.g.s.M.Z.Z.Z.M.j.k.k.b.b.k.Z.Z.",
"G.W.!.6.g 5 r <.2.Q.W.W.E.L.L.K.L.L.T.T.R.T.L.L.J.K.J.L.E.3.M I.S.S.C.C.Z.Z.C.C.Z.D.D.D.D.Z.Z.Z.Z.C.Z.Z.Z.Z.Z.V.V.V.m.V.V.V.Z.S.",
"F.Q.~.6.*. .X.1.5.W.W.W.W.R.R.R.T.T.R.R.P.R.L.L.L.J.P.T.E.%.n I.D.D.S.S.S.S.S.S.S.S.D.D.S.D.S.Z.D.Z.Z.D.Z.Z.Z.Z.V.V.V.C.V.V.Z.D.",
"G.Q.~.A.-.X.-.1.5.~.Q.W.E.R.R.W.R.E.P.R.E.R.R.P.L.P.P.T.E.,.n D.D.S.S.S.S.S.S.S.S.S.D.D.S.D.Z.Z.Z.I.Z.Z.Z.Z.Z.C.V.V.V.V.V.V.C.Z.",
"G.W.W.K.G.G.p.G.J.~.W.E.R.P.R.R.R.R.R.R.R.R.R.P.L.P.P.T.R.$.n D.S.S.D.S.S.S.S.S.D.D.D.D.D.D.Z.Z.Z.I.I.D.Z.Z.Z.C.V.V.C.C.Z.V.Z.Z.",
"G.Q.W.W.P.~.P.!.W.~.W.Q.W.R.R.R.R.R.R.R.R.R.E.R.P.R.E.R.E.,.n I.S.S.u u u u u u W S.D.D.S.N.p p p y i k.Z.Z.Z.h.y y y p i y n.Z.",
"G.P.!...M v l v Z Q.Q.W.!.S v v v t o.R.R.W.#.l l l l 3.W.%.n D.S.N.o - - : - @ h S.S.S.S.c.+ 7 6 6 % J C.Z.Z.! + 0 9 9 0 @ d.C.",
"G.~.P.g * - % * < E.E.E.!.2 - 7 5 ; m T.R.!.Z - = - & T Q.,.n D.S.v.o s h F F - h S.S.S.S.c.@ F H G = G Z.Z.Z.! . ; - 3 4 + d.C.",
"G.W.R.v 6 y 6 a < W.W.E.~.7 7 a p 6 v R.R.E.S 0 9 a 4 T E.%.x D.S.v.o 0 0 0 0 - h S.S.S.S.v.# 0 p y @ G C.S.S.! . & X X & + d.V.",
"F.W.R.v 5 5 : 6 < R.R.E.~.2 @ @ % @ g R.R.E.Z 5 4 6 = T W.$.x D.S.v.o + % . % + h S.S.S.S.c.+ - = & @ G C.Z.C.s.+ 6 X . 4 @ s.m.",
"F.P.!.x o O o O 1 E.R.R.~.1 > p i 4 l R.R.Y.Z + O % + S E.$.c D.S.M.. 3 0 . 4 - D C.S.C.S.m.+ 0 y 0 = K Z.Z.Z.~ O 4 X . 3 & ! V.",
"F.W.~.v - 3 3 0 1 E.R.R.~.7 5 h a y x E.Q.Q.A 6 6 y - [ W.,.c D.S.m.+ y i + 0 3 D S.S.S.S.m.. . X . X I Z.Z.Z.g.= = = * : 6 x.Z.",
"G.~.P.N - - - 3 8 E.E.E.~.q > > 4 ; N R.R.R.S - - : > o.W.%.M I.S.m.= * * = 4 - F S.S.S.S.m.& 3 & % % U Z.Z.Z.V.:.:.:.A.A. .B.Z.",
"F.R.!.y.q.w.w.6.q.T.R.R.!.&.&.9.9.8.w.T.R.R.t.@.&.9.&.y.W.$.c Z.S.C.s.s.s.f.f.f.m.C.S.S.S.S.n.f.l.k.j.M.C.C.V.V.k.k.j.j.b.j.V.Z.",
"F.P.W.P.P.P.P.~.R.W.R.W.R.P.L.P.T.T.T.R.W.R.T.L.P.T.P.R.!.3.n I.D.S.S.Z.Z.S.C.C.C.S.S.C.S.S.S.Z.S.Z.Z.I.Z.Z.Z.V.n.V.b.V.n.n.V.Z.",
"G.~.W.W.P.~.P.~.R.R.R.W.R.P.P.T.L.T.T.R.R.R.T.T.T.T.P.R.W.$.n Z.S.S.S.C.Z.Z.Z.Z.Z.C.Z.S.S.S.S.S.S.Z.Z.Z.Z.Z.Z.C.V.V.V.V.b.b.n.V.",
"G.P.~.P.~.~.P.P.R.R.R.P.R.R.R.R.T.R.T.R.R.R.R.R.T.P.R.R.W.3.n Z.S.S.S.S.Z.S.Z.Z.Z.Z.Z.C.S.S.S.S.Z.Z.Z.Z.Z.C.V.V.V.V.V.V.n.b.n.V.",
"G.~.P.~.~.P.~.~.R.W.R.W.W.W.E.W.W.W.W.R.R.W.R.R.E.E.W.R.W.,.n I.D.S.S.C.S.S.Z.Z.Z.Z.S.I.S.S.S.S.I.Z.D.D.Z.Z.Z.V.V.V.V.Z.Z.V.Z.V.",
"w.p.p.p.p.u.u.u.y.i.p.p.p.p.i.i.p.p.u.p.p.u.p.p.p.p.p.J.U.#.x l.m.l.l.c.l.v.c.M.S.m.S.S.m.S.S.M.M.M.m.M.l.n.n.n.b.b.b.n.n.l.l.k.",
"8.r.r.r.r.r.e.0.q.r.r.r.r.t.r.r.r.r.w.r.r.r.r.w.0.0.r.y.y.{ k f.k.k.f.z.k.f.f.k.f.l.f.f.f.c.f.m.f.l.f.f.f.f.f.f.j.b.j.j.k.k.k.k.",
",.r.e.r.r.r.e.w.r.r.r.r.r.r.r.r.e.e.r.e.r.e.r.e.e.w.e.r.r.{ x f.k.k.k.f.c.f.x.c.f.c.l.l.c.m.c.f.l.f.f.f.f.f.f.b.b.j.b.b.k.k.n.l.",
"N A _ A A A A _ S S S A T _ A S A A _ / _ A A A A A A A _ m w L J J J J J J F J I F L H J J J J J J L F H J L F D H D H H G K J ",
"x x x k x x x x x x x x x x x x x l f x c x x x x x x c x c c M j c g g c c f f g g j j x F g g c f f f f g g g d d d g c c c j ",
"} >.=.;.>.>.=.>.=.=.=.=.>.;.=.| =.=.| =.<.-.=.=.=.=.=.>.>.>.>.=.| | ^ R | | | R ^ R ^ ^ | ^ ^ ^ | E R R R E R R R R R R E ^ *.*.",
"} <.<.<.<.<.<.>.>.<.<.>.<.-.>.=.-.-.=.-.=.-.=.>.>.>.>.=.>.>.>.;.A.^ | A.| | | | ^ ^ | | | | ^ ^ ^ R R R ^ ^ ^ ^ R R R R ^ ;.:.;.",
"| A.<.A.A.<.A.A.<.A.<.<.A.5.5.<.<.5.5.5.<.<.<.<.A.A.<.<.>.<.<.;.A.;.| A.A.A.| ;.A.A.A.A.| A.^ ^ A.A.| | ;.;.;.;.| ^ E *.;.>.:.:."
};
