/* XPM */
static char *d53d5f224d6c4b86c2cd2f36e77a2d7cZKD23lkfNxRS3ClV[] = {
/* columns rows colors chars-per-pixel */
"64 64 194 2 ",
"   c #251E24",
".  c #272127",
"X  c #292226",
"o  c #272328",
"O  c #2B252A",
"+  c #2E292E",
"@  c #312A2D",
"#  c #2F2C31",
"$  c #312D32",
"%  c #2F3138",
"&  c #333136",
"*  c #3A3437",
"=  c #35343A",
"-  c #38373C",
";  c #36383E",
":  c #3A393D",
">  c #413C3C",
",  c #47413D",
"<  c #4C423E",
"1  c #373A40",
"2  c #3B3D42",
"3  c #423F40",
"4  c #3E4146",
"5  c #3E434A",
"6  c #414245",
"7  c #4B4542",
"8  c #4F4944",
"9  c #42464B",
"0  c #44494D",
"q  c #4C4B4C",
"w  c #514540",
"e  c #544C44",
"r  c #524E4D",
"t  c #575046",
"y  c #55524E",
"u  c #5B544A",
"i  c #5B554D",
"p  c #454C52",
"a  c #494F54",
"s  c #484F58",
"d  c #514E50",
"f  c #475056",
"g  c #495156",
"h  c #4B545A",
"j  c #4F595D",
"k  c #555351",
"l  c #545757",
"z  c #5A5651",
"x  c #5D5A53",
"c  c #515A5E",
"v  c #655C4E",
"b  c #6E5C4D",
"n  c #715E4F",
"m  c #635C53",
"M  c #6A5E51",
"N  c #655E58",
"B  c #725E51",
"V  c #74614F",
"C  c #666051",
"Z  c #6B6254",
"A  c #64645B",
"S  c #69665C",
"D  c #6B695C",
"F  c #756353",
"G  c #796554",
"H  c #746A56",
"J  c #7A6957",
"K  c #726659",
"L  c #7A6758",
"P  c #746B5A",
"I  c #7C6B5A",
"U  c #77705E",
"Y  c #7C735E",
"T  c #485865",
"R  c #4B5964",
"E  c #525D62",
"W  c #556165",
"Q  c #5A6567",
"!  c #5A6669",
"~  c #5D6A6C",
"^  c #4F6979",
"/  c #526D7C",
"(  c #656862",
")  c #6C6C62",
"_  c #636B6C",
"`  c #756F61",
"'  c #6D7169",
"]  c #747365",
"[  c #7C7463",
"{  c #7E7866",
"}  c #74766A",
"|  c #787768",
" . c #76796C",
".. c #7B7B6D",
"X. c #606F71",
"o. c #637274",
"O. c #677578",
"+. c #6A7B7B",
"@. c #727972",
"#. c #7D7E71",
"$. c #816E5C",
"%. c #82715E",
"&. c #837661",
"*. c #857A63",
"=. c #897D65",
"-. c #837C6A",
";. c #8E7F68",
":. c #7E8172",
">. c #798278",
",. c #8B8167",
"<. c #87806D",
"1. c #8D846A",
"2. c #90866B",
"3. c #92896D",
"4. c #988D6F",
"5. c #828375",
"6. c #8C8571",
"7. c #868976",
"8. c #898975",
"9. c #858679",
"0. c #86897A",
"q. c #8B8C7C",
"w. c #958D71",
"e. c #988E72",
"r. c #908F7D",
"t. c #8E907E",
"y. c #979072",
"u. c #9C9375",
"i. c #93927D",
"p. c #9D9579",
"a. c #9A997F",
"s. c #A09776",
"d. c #A09877",
"f. c #A09679",
"g. c #A59D7C",
"h. c #A89F7D",
"j. c #A7A07E",
"k. c #A9A17E",
"l. c #557182",
"z. c #5B7685",
"x. c #5D7985",
"c. c #5D7C8B",
"v. c #697D81",
"b. c #617D8B",
"n. c #67828D",
"m. c #728485",
"M. c #7D8D8B",
"N. c #638291",
"B. c #688896",
"V. c #6A8D9B",
"C. c #738B90",
"Z. c #6E919D",
"A. c #78949A",
"S. c #6C91A0",
"D. c #8E9180",
"F. c #84948E",
"G. c #929581",
"H. c #989781",
"J. c #9A9C84",
"K. c #939A8A",
"L. c #9A9E89",
"P. c #8A9E9A",
"I. c #9EA28C",
"U. c #A7A285",
"Y. c #ACA481",
"T. c #ADA581",
"R. c #A9A385",
"E. c #AAA486",
"W. c #A2A48C",
"Q. c #ACA789",
"!. c #ACAA8E",
"~. c #B0A784",
"^. c #B1A985",
"/. c #B0A788",
"(. c #B3AB8C",
"). c #B7B08F",
"_. c #A1A692",
"`. c #A4A893",
"'. c #ABAC92",
"]. c #B3AF90",
"[. c #B6B191",
"{. c #BBB493",
"}. c #BEB896",
"|. c #BBB79A",
" X c #BEB999",
".X c #C0BA97",
"XX c #C3BD99",
"oX c #C3BE9A",
"OX c #C6C19D",
"+X c #C7C19D",
"@X c #C8C39E",
"#X c #C9C49F",
"$X c #C7C3A0",
"%X c #CBC5A0",
/* pixels */
"U.E.E.E.R.E.E.E.E.R.R.E.R.R.E.E.R.E.E.R.U.R.E.U.R.R.E.R.R.E.R.w.3.3.3.3.3.3.3.3.1.2.2.1.3.3.1.2.1.1.1.1.2.2.1.1.1.1.2.2.3.3.3.Y ",
"oX+X#X#X%X%X%X#X#X#X#X#X#X#X#X#X#X%X%X+X#X#X#X@X#X%X%X@X%X#X+Xk.j.k.k.k.T.T.T.T.T.T.T.T.T.T.T.T.T.k.k.Y.T.T.T.T.T.T.T.T.T.T.T.3.",
"oXoX%.J I I $.I I J I I $.%.%.$.$.$.$.I I I I I I $.$.I (..X{.w.2.2.2.;.%.w e e e e e e e M I %.%.&.P < < < < w w < < Z k.k.g.2.",
"oXoX6.-.<.<.<.<.<.6.6.6.w.p.p.f.p.6.<.-.-.-.-.-.<.6.-.` (.oX.Xh.u.u.u.e.&.$ 0 a l a 0 9 & M 2.3.3.3.1.+ 2 6 6 9 9 4 = u k.k.h.2.",
"+X+XS m x x x  ...x m m ] oXoXoXoX] x z i ] ..y x x x .. X@X+X^.k.T.T.g.=.& o.O.+.O.o.~ 2 P k.k.k.k.d.+ ~ o.X.o.o.~ a u k.T.k.2.",
"+X+X> 4 & & + x ( = - = < +X+X+X+X8 = : $ y ) $ 4 = @ }  X@X@X^.T.T.T.g.,.+ 9 0 0 0 0 6 $ P k.k.T.k.d.O 6 9 9 9 9 6 - v T.T.T.3.",
"+XoX> j p 5 # x ' g j p < +XoX+XoX8 a h = y ' : c g + }  X@X@X^.k.T.T.h.,.O & & = O $ & + H k.k.k.k.d.o : : O $ = = $ i k.T.k.2.",
"+XoX> W j 0 $ A >.! ~ c < +X+X+X+Xy E ! 2 x  .: Q W + ..oX#X@X^.T.T.T.h.,.# g g h O 9 a & P k.T.T.T.d.O h j + 2 a f 2 u T.T.T.2.",
"+XoX> 0 9 2 + A } 0 a 0 < +X+X+XoXz a a = x  .- h a @ ..oX@X@X^.T.T.k.g.,.$ E g c O h c = H k.T.T.k.d.O g c + 9 c E 9 u T.T.k.2.",
"+XoXe > > > : D ] > > > i oX+X+XoXA 0 6 : ) 5.q a q 7 :..X+X+X~.T.T.T.g.,.$ h h a O g c - H k.k.T.k.d.$ E E $ 0 j j 4 u k.k.k.2.",
"+X+X!.W.W.W.!.W.W.W.W.W.W.].).[.].W.W.W.W.I.W.W.W.W.L.i.oX%X#X^.T.T.T.g.1.: 6 6 : : 6 6 : [ Y.T.T.T.h.3 6 0 > : 6 6 3 Z h.k.k.3.",
"+X{.G G G F G G G G F F F G G G G G G G G G G G G G G I }.@X@X^.T.T.d.4.u.s.d.s.s.u.u.u.4.d.k.k.T.T.k.d.g.g.g.g.g.g.g.y.*.2.k.3.",
"oXoXoXoXoXoXoXoX.X.X.X}.}.oXoXoXoXoXoX+XoXoXoXoXoX+X+XoX+X@X@XT.k.k.k.2.L F F F F B F B F 2.g.k.T.k.d.B B B B F F B b B %.d.k.2.",
"+X+X+X@X@X@X$X+X+X+X+X+X+X+X+X@X+X+X+X+X@X+X@X#X@X%X%X@X%X%X#X~.k.T.T.Y.T.T.Y.T.T.T.T.T.T.T.T.T.T.T.T.k.T.T.k.k.k.k.k.k.k.T.T.3.",
"+X+XoX+X+X+X+XoXoX+XoXoXoXoX+X+X+XoXoXoXoX+X+X+X+X+X+X+X@X#X@X^.T.T.T.k.k.Y.Y.Y.Y.T.T.T.k.T.k.k.T.k.k.k.k.k.k.k.k.k.k.k.T.k.k.3.",
"+X+X+X#X@X+X+X+X+X+X+XoX+X+X+X#X+X@X+XoXoX+XoXoX+X+X+XoX@X@X@X^.T.T.T.T.T.T.T.T.T.T.T.T.T.k.k.k.k.k.T.T.Y.Y.Y.Y.k.T.k.T.Y.T.T.3.",
"+X.X&.%.%.%.%.%.%.%.%.%.%.%.&.%.%.$.I I I I I I $.%.$.$.}.+X+XT.k.Y.T.T.T.T.Y.Y.T.T.T.k.k.k.k.k.k.k.k.k.k.k.k.k.k.k.T.k.k.Y.Y.3.",
"oX X{ [ -.-.-.-.-.-.-.-.-.-.-.-.-.-.{ -.{ [ { { { { { ` {.+XoXk.k.k.T.k.u.v M Z Z Z Z C M 1.h.k.k.k.g.v v v v M Z M v U h.g.k.3.",
"+XoXq.x x z x 5...x x x S !.!.!.'.D x x i ) ..y x x x .. X+X+XT.k.Y.Y.Y.3.. 4 9 4 6 6 6 $ P k.k.T.k.d.o : 2 2 : : 2 $ e k.g.T.2.",
"oXoX8.@ & + O ] ) & = & 7 oXoX+XoX7 & & + y ) + = = @ .. X+XoXT.k.k.Y.k.3.o 9 9 9 4 9 9 $ P h.h.k.k.d.X 2 4 2 2 2 4 = e k.h.h.1.",
"+XoXi.$ a $ O ..} 4 f 0 7 oXoXoXoX7 9 a - x  .$ j j @ 7. X+X+XT.k.T.T.k.3.  # $ # . + + O P k.j.k.k.d.  + + . O + $ + e k.k.h.,.",
"+XoXG.: W & O ..} 9 W h 8 +X+X+X+Xq c W 4 A :.= ! ! @ 7.oX@X+XT.T.T.T.k.3.O E E j O 9 j : P T.T.k.k.d.o p g O 2 a g 2 e T.T.h.1.",
"oXoXq.2 E = $ #.} p E j 8 +X+X+X+Xy j W 4 ) q.: W E * 7.oX@X+XT.k.k.T.h.3.O g p 0 X a h = P k.k.k.h.p.o g h O 4 j c 4 e k.h.g.1.",
"+X.X7.4 4 2 = 5. .2 2 4 y +X+XoXoXk 2 2 ; ) t.; 2 1 2 :. X+X@XT.k.k.T.k.3.+ j h 4 O s g & P k.k.k.k.d.O a a + 9 h g 2 e h.h.g.1.",
"+XoXi.L.I.I.I.W.I.L.L.I.W.}.}.}. X'.W.I.L.I.W.I.I.L.L.G.oX+X+XT.k.k.T.k.w.O = ; & $ # $ $ U k.h.k.h.p.& = = $ = = = & i h.h.g.1.",
"+X}.B n M b b b b b b b B V n n F n b b b b M b n n b F }.@X+XT.k.h.T.h.u.1.w.u.u.3.w.y.y.d.h.k.k.h.u.w.y.u.y.u.u.u.u.u.h.k.h.1.",
"+X+X[.[.[.[.[.[.[.(.(.[.[.[.).[.[.(.[.[.[.(.(.(.{.{.{.{.@X@X@X^.T.T.T.4.I G G P I I P P P 1.g.k.k.g.y.F G I G G F G G F %.k.h.1.",
"+X+X+X+X+X+X+X+X+X+XoX+X+XoXoX+XoX+X+X+XoXoXoX.X+X+X+X+X@X@X#X^.k.k.T.g.u.u.u.u.s.u.f.u.u.d.k.k.k.k.g.u.u.u.u.u.u.u.u.u.u.k.h.2.",
"oX+X+X+X+X+X+X+X+XoXoXoXoXoXoXoXoX+XoXoXoXoXoXoXoXoXoXoX+X+X@XT.k.k.k.h.h.h.h.h.h.h.h.h.g.h.k.k.h.j.h.h.h.g.g.g.g.g.g.h.h.k.h.1.",
"+X@X%X@X+X+X+X+X+X+X+X+X@X+X+X+X+X+X+XoXoXoXoXoX+X+X+X+X@X@X+XT.k.k.Y.k.k.k.h.j.k.h.h.k.h.h.k.k.h.h.h.k.j.h.g.g.h.g.h.k.k.k.g.2.",
"+X.X=.%.%.%.%.%.$.I I $.I $.%.%.%.%.$.I I $.%.%.%.&.&.*..X@X+XT.k.k.T.T.T.T.h.h.k.h.h.h.g.h.k.h.k.h.k.k.g.h.g.g.h.h.g.k.T.T.h.2.",
"oX.X-.[ { { { { [ [ [ [ [ *.-.-.-.{ { [ [ { -.{ [ { [ P {.+XoXk.g.h.k.j.u.M M Z Z M M M v ,.h.g.g.g.d.M v M v M M M v Y h.h.d.1.",
"+XoXt.A A S A 9. .A A A  .{.[.[.[.] A A A ..8.A A A A ..}.+XoXk.h.k.T.h.1.O & = & O = : $ P h.g.h.h.u.o & & O & - & $ t h.h.d.1.",
"+X.X..@ O + O ) x + $ + 8 oXoXoXoX8 $ & + i ] O & $ + | {.+XoXT.k.k.T.h.1.+ a g 0 O f E 2 P g.g.h.g.u.O a s + p g a 2 e h.h.g.1.",
"+XoX..@ + & $  .A = 4 : 8 +XoXoXoX8 9 g : x :.$ a p + ..{.+XoXT.k.Y.T.g.1.$ W E c O h W 2 H g.h.k.h.f.+ W Q + g ! E 4 e h.h.g.1.",
"+XoX:.@ ; 0 2 #.A 4 E p 8 @X+X+X+X8 j ! 6 A 0.- W W @ .. X+X+XT.h.k.k.g.,.& ! ~ ! O E W : P h.h.h.h.p.+ Q ! + s W W 9 e g.h.h.3.",
"+XoX9.$ 9 1 ; #.A 2 h p 8 +XoXoX+X8 g E 4 A 0.- E E $  . X+X+Xk.h.h.h.d.=.& E E j O h c ; P g.h.h.g.u.+ c E + g E j 2 e d.h.h.2.",
"+XoX9.& % & &  .) 2 - - r +XoXoXoXk ; ; ; ( 0.= 1 ; 2 } {.+X+Xk.g.g.g.u.[ + % # # + + O O P g.h.h.g.y.+ & & + & ; = # e d.k.j.3.",
"+X+XI.I.I.I.I.`.W._._._.'.oXoXoXoXW.W.W._.`.`._.I.W.I.#. X@X@XT.h.h.d.e.,.4.y.y.w.3.w.w.3.u.k.k.k.h.4.y.u.u.u.p.u.u.e.;.;.T.h.2.",
"+X}.F b b b n n b b b b n V V G F b n b b b n n F F F M }.+X@XT.h.h.k.2.I P P P H F F F F 1.h.h.h.g.u.I I I P P P P P I =.T.g.1.",
"oX+X(././.(.(././././././././././././.T.Q.Q././././.(./.+X@X+XT.k.T.j.s.u.y.w.e.w.w.w.w.e.u.g.h.h.g.g.w.w.e.u.u.e.w.e.u.u.h.g.1.",
"@X%X+X+X$X$X%X+X+X+X+X+X@X@X+X@X+X+X+X+XoX+X+X+X+X@X@X+X#X%X+XT.T.Y.T.h.j.T.j.h.h.h.j.h.h.h.h.h.k.k.T.d.g.h.h.h.h.d.h.h.j.j.h.3.",
"i.G.i.q.i.i.G.t.t.i.i.q.r.i.i.i.i.a.H.i.q.i.a.i.i.r.i.a.i.i.i.%.G G G F F G F F F F F F F F F F F F F F V F F F F F F G F G F b ",
"8.8.o._ 7.8.@.~ @.q.:.~ _ q.8._ _ q.a.@.~ @.q.9.~ ~ q.q.~ O.5.P H J P J F H F F F F F F F F F F F F F F F F F F F F F F F F J Z ",
"'.C.b.b.!.!.m.z.M.].K.z.n.].!.x.x.W.[.M.x.M.!.L.c.b.[.!.x.c.q.1.=.=.=.*.*.*.&.*.*.*.*.%.%.Y %.&.&.&.%.&.&.*.*.*.*.*.*.*.*.=.1.*.",
"'.S.N.V.|.}.A.V.P..X_.V.A. X|.Z.V.'. XP.V.P.{.`.V.Z.oX|.Z.V.G.w.2.1.1.=.=.=.=.=.=.=.=.*.&.&.&.*.=.*.*.*.*.*.=.=.*.=.=.=.,.,.3.=.",
"L.c.z.N.!.(.M.N.F.(.K.N.n.(.!.B.N.I.].M.c.M.E.K.c.b.[.'.B.B.G.u.e.w.3.*.M M Z Z M M M v v v H 2.1.,.,.M M Z Z Z Z Z M P w.w.p.1.",
"t.^ ^ / t.J.v./ m.J.0./ O.J.a.l.l.q.J.+.^ O.q.>./ / J.J.x.z.G.u.u.u.u.Z o O O + + o X X X X w u.w.2.1.  + # # . O + O 8 u.d.g.3.",
"i.o.T T ) ] ! T Q [ ( T E ] ] T T 7.7.~ T c ` ( T T | ] v.v.L.p.u.u.p.P o O $ + + . O O O X e d.d.u.u.. 1 2 2 o & 2 & 8 d.d.h.3.",
"{.8.O X X O O O X X O O X o O O X [ * O @ O O X O O + O { w./.h.d.d.g.P # 2 4 2 4 O # & # O t T.j.h.p.  O + O   O O X w g.g.h.w.",
"{.w.O X + $ $ # o O $ $ + $ $ $ O <.> & 9 9 ; O & - - O -.[.).h.d.d.d.P O 2 9 0 5 O & - & + e j.h.h.p.. a a 9 O 1 4 = w h.h.h.w.",
"}.1.O X 9 0 5 5 & $ p 9 p p 9 4 + i.> $ 4 4 = + 9 p p + w.{.{.T.h.h.d.P O 1 p 5 5 O 2 5 4 & t h.h.h.p.X j j j + 4 g 2 w h.h.h.w.",
"}.].@ O p p p p = & s p 9 9 s p + u., 2 c j 4 # a p 5 @ Q..X.XT.h.h.h.P O & 9 p 9 O 2 4 4 & e h.h.h.p.o E E g + 4 a 2 w h.h.U.w.",
" X(.@ + 9 h E E 2 $ 0 j T E g h @ i., 9 ! E 9 $ W W g @ Q.oX}.h.d.d.h.P + 4 a E a o 4 a a ; e h.g.d.u.o j E j $ g g : e g.d.g.1.",
"oX].@ - 5 5 j W 6 & g T E h p 9 + u., + & & $ O - & $ O !.oX.Xk.d.h.h.] + 5 4 5 2 X - 5 f 2 t g.d.d.p.  # ; ; # ; = # e d.d.h.3.",
"oX[.@ 4 g h W ! 9 & p p p 9 a p $ a.< $ & & $ O - & + X /.oX.XT.d.g.h.U # 5 4 5 p X 2 4 a 2 t g.d.d.p.[ [ [ [ [ -.[ [ *.y.u.h.w.",
"}.(.@ p j j E E 2 & h j j g a s + u., - 0 9 : # a a 9 @ Q.oX.Xg.u.u.u.P $ 4 5 p a X 0 j a & e d.d.u.e.w.w.e.e.w.u.u.u.p.d.d.d.3.",
"}.(.@ $ = = - : # + = - = & & = O i., 2 a p 2 $ j E g @ Q.oX.Xh.p.p.u.D $ p 9 p 9 . 9 j a & e d.p.u.u.u.u.p.3.2.3.u.p.g.h.d.d.1.",
"E.a.q 9 q q q q q q 9 9 9 9 0 0 9 i.7 6 h a 2 $ E ! j @ Q. X[.U.p.p.p.Z $ j f g p . a T j 2 e p.u.w.w.2.u.u.w.w.w.u.u.u.d.f.d.3.",
"P Z q q r r k r r r q q q q d d q P > : 6 2 & @ 6 9 6 @ P [ [ P P P K e $ 2 2 2 2 + 2 4 6 * < P K Z Z M K Z K K K K Z K P P P Z ",
"m m x x x m m x m m m m x m m m x N x z z i z z z y k y x x x m m m m x i z z z y y y y y y i N m m m x x x x x x x x m m m m y ",
"0.9.9.9.8.0.0.9.0.8.q.q.8.q.q.q.q.q.q.q.t.q.D.D.q.q.q.q.q.q.q.q.q.q.8.9.0.q.q.q.q.0.q.0.0.0.q.8.8.8.q.0.0.0.9.9.9.9.9.9.9.9.9.} ",
"9.9.9.9.8.0.9.9.5.9.9.0.9.0.8.0.0.0.8.0.q.q.q.q.q.q.q.q.q.q.8.8.8.8.9.5.9.8.9.9.5.5.5.5.5.5.9.9.9.5.5.:.:.5.5.5.:.5.5.#.5.5.9.} ",
"9.9.9.q.0.9.0.0.9.9.9.9.q.q.9.q.q.q.q.q.q.q.q.t.q.t.t.q.G.D.q.q.q.q.q.0.9.9.9.9.5.#.#.#.#.#.5.9.9.5..... .#.#.#.#.9.9.5.#.5.9.] "
};
