/* XPM */
static char *rcp71563532114119668[] = {
/* columns rows colors chars-per-pixel */
"64 64 66 1 ",
"  c #5C4D13",
". c #645414",
"X c #6C5A14",
"o c #705E15",
"O c #756415",
"+ c #786615",
"@ c #7E6B17",
"# c #816E19",
"$ c #867119",
"% c #8A751A",
"& c #8F791D",
"* c #927D1E",
"= c #967F20",
"- c #96801F",
"; c #99831F",
": c #968020",
"> c #9B8623",
", c #9D8827",
"< c #9C8728",
"1 c #A58E27",
"2 c #A78F28",
"3 c #A89027",
"4 c #A79028",
"5 c #AC952B",
"6 c #AF982D",
"7 c #B0972C",
"8 c #B39A2E",
"9 c #B69D32",
"0 c #B89F32",
"q c #BBA336",
"w c #BEA63A",
"e c #C0A737",
"r c #C2A937",
"t c #C0A73A",
"y c #C4AB3C",
"u c #C7AE3D",
"i c #C8AF3E",
"p c #C9B03F",
"a c #BEA740",
"s c #C7AF42",
"d c #C5AE45",
"f c #C8B042",
"g c #CAB346",
"h c #CBB54B",
"j c #CEB74B",
"k c #CDB74D",
"l c #CFB94F",
"z c #D0BA50",
"x c #D9C152",
"c c #DBC354",
"v c #DCC354",
"b c #DEC656",
"n c #DFC75A",
"m c #DFC85B",
"M c #DFC95F",
"N c #E0C95E",
"B c #E0CA5F",
"V c #E1CB62",
"C c #E1CB63",
"Z c #E1CC64",
"A c #E2CD68",
"S c #E2CF6D",
"D c #E3D06F",
"F c #E4D16F",
"G c #E3D172",
"H c #E4D172",
/* pixels */
" o++++++++++O+O++++++++++++++++++++++++OOOOOOOOOOOOOOOOOO+++++O ",
".@%><<<<<<<<<<<,,,,,,,,<,,<<<<<,<<<,<<<<<<<<,,<<<<<<<<<<<<<<:&#.",
"X%>qeyyyyyyyyyyuuuuuuuyeyyyyyyyyyyyyyyyyyyeuppyyyyyyyyyyyyye01*X",
"X*1y855555555555575787888qrqqq555555555558888877877555555558u3:X",
"X*1u87wwwwwwwwwttteteeyydhkhgfwwwwwwwwwwweyeeeeteetwwwwwww88p3-X",
"X*1u8qbbbbbbbbbbbbbbbbbnHHHHVbbbbbbbbbbbbbbbbbbbbbbbbbbbbbw9p5:X",
"X*1u8qbxxbbbbbbbbbbbbbZDHHFmbbbbbbbbbbbBnbbbbbbbbbbbbbbbbbq9p3=X",
"X&1u8qbxxbbbbbbbbbbbbMSHHSAbbbbbbbbbbnmMnbbbbbbbbbbbbbbbbbq9p3:X",
"X&1i8qbbbbbbbbbbbbbbnHHHHBbbbbbbbbbbbVVbbbbbbbbbbbbbbbbbbbq9p3-X",
"X*1i8qbbbbbbbbbbbbbZDHHSnbbbbbbbbbbnDBnbbbbbbbbbbbbbxxbbbbq9p3*X",
"X*1p8qbbbbbbbbbbbnVSHHAVbbbbbbbbbbbnZmbbbbbbbbbbbbbbxxbbbbq9p3:X",
"X*1p80bbbbbbbbbbbmHHHHMbbbbbbbbbbbbbbbbbbbbbbbbbbbbbbbbbbbq9p3-X",
"X*2p8qbbbbbbbbbbZHHHDmnbbbbbbbbbbbbbbbbbbbbbbbbbbbbbbbbbbbq9p3*X",
"X*1u8qbbbbbbbbbBSHHSZbbbbbbbbbbbbbbbbbbbbbbbbbbbbbbbbbbbbbq9p3:X",
"X*1y8qbbbbbbbbmHHHHMbbbbbbbbbbbbbbbbbbbbbbbbbbbbbbbbbbbbbbq8p3-X",
"X*1i8qbbbbbbbZSHHDMnbbbbbbbbbbbbbbbbbbbbbbbbvxbbbbbbbbbbbbq9p3*X",
"X*2p8qbbbbbbBAHHSAbbbbbbbbbbbbbbbbbbbbbbbbbbcxbbbbbbbbbbbBw9f3:X",
"X*2p8qbbbbbnHHHGBbbbbbbbbbbbbbbbbbbbbbbbbbbbbbbbbbbbbbbbbBw9p3*X",
"X*1p8qbbbbZDHHDnbbbbbbbbbbbbbbbbbbbbbbbbbbbbbbbbbbbbbbbbmFw9p3:X",
"X*2p8qbbnMSHHAZbbbbbbbbbbbbbbbbbbbbbbbbbbbbbbbbbbbbbbbbMVHa9i3:X",
"X*1p8qbbMHHHHBbbbbbbbbbbbbbbbbbbbbbbbbbbbbbbbbbbbbbbbbbAHHw8y3:X",
"X*1p8qbADHHGmbbbbbbbbbbbbbbbbbbbbbbbbbbbbbbbbbbbbbbbbnDHHHa8p3:X",
"X*2p8qBDHHSAbbbbbbbbbbbbbbbbbbbbbbbbbbbbbbbbbbbbbbbbmVHHHHw9f3-X",
"X*1p8wHHHHBbbbbbbbbbbbxxbbbbbbbbbbbbbbbbbbbbbbbbbbbbAHHHHHw8p3-X",
"X*2p8wHHDMnbbbbbbbbbbbbbbbbbbbbbbbbbbbbbbbbbbbbbbbnSFHHHHHa8p3-X",
"X*2p8wHAVbbbbbbbbbbbbbbbbbbbbbbbbbbbbbbbbbbbbbbbbmVHHHHHHAw8p3:X",
"X*4p8wHnbbbbbbbbbbbbbbbbbbbbbbbbbbbbbbbbbbbbbbbbbAHHHHHHDbw9p3-X",
"X*2p9wmbbbbbbbbbbbbbbbbbbbbbbbbbbbbbbbbbbbbbbbbnDDHHHHHVnbq9p3-X",
"X*4p8qbbbbbbbbbbbbbbbbbbbbbbbbbbbbbbbbbbbbbbbbMVHHHHHHAmbbq8p5:X",
"X*2p69bbbbbbbbbbbbbbbbbbbbbbbbbbbbbbbbbbbbbbbbAHHHHHHSbbbbq8f3-X",
"X*2p69bbbbbbbbbbbbbbbbbbbbbbbbbbbbbbbbbbbbbbnSHHHHHHVMbbbbw9f5:X",
"X*2f69bbbbbbbbbbbbbbbbbbbbbbbbbbbbbbbbbbbbbnVHHHHHHSMbbbbbw9f5:X",
"X*4f79bbbbbbbbbbbbbbbbbbbbbbbbbbbbbbbbbbbbbAHHHHHHDbbbbbbbq9f5:X",
"X*2p89bbbbbbbbbbbbbbbbbbbbbbbbbbbbbbbbbbbnSDHHHHHVnbbbbbbbq8u3=X",
"X*2p89bbbbbbbbbbbbbbbbbbbbbbbbbbbbbbbbbbMVHHHHHFAMbbbbbbbbq8u3-X",
"X*2p89bbbbbbbbbbbbbbbbbbbbbbbbbbbbbbbbbbAHHHHHHDbbbbbbbbbbq9f3:X",
"X*4p79bbbxbbbbbbbbbbbbbbbbbbbbbbbbbbbbnSHHHHHHVmbbbbbbbbbbq9p3*X",
"X*2p79bbbxbbbbbbbbbbbbbbbbbbbbbbbbbbbmVHHHHHHAMbbbbbbbbbbbq9f3-X",
"X*4p89bbbbbbbbbbbbbbbxbbbbbbbbbbbbbbbAHHHHHHDbbbbbbbbbbbbbw9p3:X",
"X*1p89bbbbbbbbbbbbbbbbbbbbbbbbbbbbbnADHHHHHVmbbbbbbbbbbbbbq9p3:X",
"X*2p79bbbbbbbbbbbbbbbbbbbbbbbbbbbbmMHHHHHHAMbbbbbbbbbbbbbbq9f3-X",
"X*1p69bbbbbbbbbbbbbbbbbbbbbbbbbbbbZHHHHHHDbbbbbbbbbbbbbbbbq8p3*X",
"X&1p59bbbbbbbbbbbbbbbbbbbbbbbbbbnFDHHHHHVnbbbbbbbbbbbbbbbbq9p3-X",
"X&1p59bbbbbbbbbbbbbbbbbbbbbbbbbMVHHHHHHAMbbbbbbbbbbbbbbbbbq9p3*X",
"X&1p69bbbbbbbbbbbbbbbbbbbbbbbbbAHHHHHHSbbbbbbbbbbbbbbbbbbbq9p3:X",
"X&1p89bbbbbbbbbbbbbbbbbbbbbbbnSHHHHHHVMbbbbbbbbbbbbbbbbbbbq9p3-X",
"X&1p89bbbbbbbbbbbbbbbbbbbbbbnVHHHHHHAMbbbbbbbbbbbbbbcbbbbbq8p3*X",
"X*1p89bbbbbbbbbbbbbbbbbbbbbbZHHHHHHDbbbbbbbbbbbbbbbbxxbbbbq8p3*X",
"X&1p89bbbbbbbbbbbbbbbbbbbbbAFHHHHHZMbbbbbbbbbbbbbbbbxxbbbbq8i3*X",
"X*1i89bbbbbbbbbbbbbbbbbbbMVHHHHHFAMbbbbbbbbbbbbbbbbbbbbbbbq8i3*X",
"X*1i89bbcxcbbbbbbbbbbbbbbAHHHHHHDbbbbbbbbbbbbbbbbbbbbbbbbbq8i3-X",
"X*1u89bbbbbbbbbbbbbbbbbnDHHHHHHVnbbbbbbbbbbbbbbbbbbbbbbbbbq8i3:X",
"X*1u89bbbbbbbbbbbbbbbbnVHHHHHHAmbbbbbbbbbbbbbbbbbbbbbbbbbbw9p3:X",
"X*1i80bbbbbbbbbbbbbbbbAHHHHHHFbbbbbbbbbbbbbxxbbbbbbbbbbbbbq8p3*X",
"X&1u89bbbbbbbbbbbbbbnAFHHHHHZMbbbbbbbbbbbbbbbbbbbbbbbbbxxbq8p3*X",
"X&1u89bbbbbbbbbbbbbnMHHHHHHSBbbbbbbbbbbbbbbbbbbbbbbbbbbxxbq8p3*X",
"X&1u79bbbbbbbbbbbbbAHHHHHHFbbbbbbbbbbbbbbbbbbbbbbbbbbbbbbbw9i3*X",
"X&1u88yyyyyyyyyyyugjllllzgsuuyyyyyyyyyyyyyyyyyyyyyyyyyyyyy88u3*X",
"X&1y08888888888889eereeeyq088888888888888888888888888888888qy3*X",
"X%>qyiiiuuiiiiuiiiiiiiipiiuiiuuuuuuyuippppippiipiiiiuuippppue1*X",
"X$-3566656566666666666666666666666666666886666666666566665653>&X",
"X$&-;>>>>>>>>;>>>>>>>>;>>>;>>>>>>>>>>>>>>>>>>>>>>>>>>>;;>>;;;*%X",
".XooooooooooooooXoooooooooooooooooooooooooooooooooooooooooooooX.",
" .............................................................. "
};
