/* XPM */
static char *rcp54445312114128808[] = {
/* columns rows colors chars-per-pixel */
"64 64 62 1 ",
"  c #163157",
". c #17345C",
"X c #18355E",
"o c #183762",
"O c #183963",
"+ c #1B3D6B",
"@ c #1F4672",
"# c #204774",
"$ c #254F7D",
"% c #26517F",
"& c #275482",
"* c #295987",
"= c #2B5D8D",
"- c #2F608F",
"; c #2F6595",
": c #306292",
"> c #356E9E",
", c #3670A1",
"< c #3975A6",
"1 c #3A77A8",
"2 c #3E7CAE",
"3 c #3F7FB3",
"4 c #407FB4",
"5 c #4181B5",
"6 c #4486BA",
"7 c #4688BC",
"8 c #4A8BBD",
"9 c #4D8EC1",
"0 c #4E91C3",
"q c #4E96C9",
"w c #5293C4",
"e c #5497C8",
"r c #539ACC",
"t c #5B9CCA",
"y c #559ED1",
"u c #5DA0CE",
"i c #56A0D3",
"p c #57A0D3",
"a c #60A0CC",
"s c #64A6D2",
"d c #67AEDE",
"f c #68AFDE",
"g c #6AB1DF",
"h c #6BB1E0",
"j c #6DB3E1",
"k c #6EB4E1",
"l c #72B7E3",
"z c #73B7E4",
"x c #73B8E3",
"c c #73B8E4",
"v c #75B9E4",
"b c #79BBE5",
"n c #7BBCE6",
"m c #7DBEE7",
"M c #7FBFE8",
"N c #7FC0E7",
"B c #7FC0E8",
"V c #80BFE8",
"C c #80C0E7",
"Z c #82C1E9",
"A c #86C3EA",
"S c #86C4EA",
/* pixels */
".O++++++++++++++++++++++++++++++++++++++++++++++++++++++++++++O.",
"o@$=-:::::::::::::::::::::::::::::::::::::::::::;:::::::::::=%#o",
"+*>9ryyyyyyyyyyyyyyyyyrrryyrryyyyyyyyyyyyrrryyyyrrryyyyyyyyr9,=+",
"+=<y63555553533533334333368777333333335335888865555555555535y1=+",
"+=<y65wwwwwwwwwwwwwwwwwwttuatewwwwwwwwwwwtatrtewwwwwwwwwww66i1=+",
"+=<y79jjjjjkjjkjkjjjjjjlSSASvjjjjjjjjjjhmASvkkkkkjjjjjjjkk06i<=+",
"+=<i79kdfjjjkkjjjjjkjkmZAAAlkkjkjkkjjjlZAZlkkkjjjjjkjjjjkk06y<=+",
"+=<y79kffkjkjjkjjjkkkvZSSZmjkjkjjkjjjlbSZmjkjjjjjjjjjjjjjk07y<=+",
"+=<i79kkjjjjkkkkjkkklSSASvkjjkkkkkjkjMSSvjjjjkkjjkjkkjjjkk96y<=+",
"+=<i79kjjjjjjkjjjkjmZASZlkkkjjkkkkklZSZlkkkkjkkjkjkjddkjjk06y1=+",
"+=<i79kjkkjkkjkjjlvZSAmbjjjjjkjjjjxbSMbjjjkjjkjkjjjjffjkkk96y<=+",
"+=<i79kjjjjjkkkjklSSSSlkkkkkkkkkkkmSSxkkkjkjjkjjjjjjjkjkjk96y<=+",
"+=<r69kjkjjkjjkkmZSAZlkjjjkjkkkklZSZlkjjkkkjjkjjkkjkkkkkkk97y1=+",
"+=<r69kjkkkkjjkvZASZnjjjkjjjjkjcbSZmkjjjjjkjjjkjjjjjjjjjjk06y<=+",
"+=<i79jjjjjkkjcSSSSvkkkkkjjkkkkZSSvkjjjjkjkjjjjjjjkjjjjjjk96y1=+",
"+=<i78kjkjjkkmZASZckjjjjkjjkklZAZzkjkjjjjjjjhdhjjjjjkjjjjk97y1=+",
"+=<i79kkkkjkvZSSZmkkjkkjjkjklbSZmkkkkkkjjkjjhdjjkkjkkjkjkk07y1=+",
"+=<i79kjjkklSSSSvjkkjkjjjkjkNSSxkkkkkjkjkkkkkjkjjjkkkkjkjk07y<=+",
"+=<i78kjjjmZAAZlkkkjkjjjkklZAZlkkkjjjjjjjjkjjjjjjjjjjjjjlAw7y<=+",
"+=<i79kjkvZSSZnjkkkjkkkjklbSZnjjjjjjkjjjkjjjjjjjjjjjkjklbSw7y<=+",
"+=<i79kkcSSSScjjjkkjjkkkkMSSvjkkjkjjkjjjjkkkkjjjjjjkjkkBSSw7y<=+",
"+=<i79kmZSSZlkjkjjkkjkjlZAAlkkjjjkkkjjkjkjjkjjjjkkkkklZASSw7y<=+",
"+=<i79vZASZmkjjjkjjjkklbSZmkkkjjkjjjjjjkjjjjjjkkjjjklbSSASw7y<=+",
"+=<i7wSSSSvkjjkjjkjjjkZSSvkjjjjkjjjkjjjjkjjjjjjjjjkkCSSSASw6y1=+",
"+=<i7wSSZlkjjjjjjkkklZSZzkkjjjjjjjjkjjjjjkjjjkjkkjlZAAASASw6y<=+",
"+=<i7wSZnjkjkjjkjjklbSZnjjjjjjjjkjjjjjjjjjjjjkkjjlbSSAAAAZw7y1=+",
"+=<i8wSlkjkjjjjkjkkmSSzjkjjkjjjjjjjjjkjjkkjkjjjjkmSAAASSZkw8i<=+",
"+=<i7wzkjjjkjkjkklZSZlkkjkjjjjjjjjjjjjjjjjjjjjjlZASASSSvlj07i1=+",
"+=<i79kjkkjjjjkklbSZnkkjjjjjjjjkjjjjjjjjjjkjjkcvSSAAAAmlkj96y1=+",
"+=<i68kjjjjjjkjkZSSvkkjjjjkjjjjjjjjjjkjjjjjjjjZSSASSSZjjjk96i1=+",
"+=<i68kkjjjjjjlZAZxkjjjjjjkjkjjjjjkjjjjjkjjjlZASASSSblkjjj06i<=+",
"+=<i68kjkjkjklbSZmkjjkkjjjjjjjjjjjjjjjjjjjjlvSSAAAAZlkjjjj96i1=+",
"+=<i68kkjjjkkZASxkjjjjjjjkjjjjjjjjjjjjjjjjjmAASAASZjjjjjkk97i1=+",
"+=<i68kjjjjlZSZlkkjjjjjjjjjjjjjjjjjjjjjjjlZAAASASblkjjjjjk96r<=+",
"+=<i68kkjjxbSZnjjkjjjjjjjjjjjjjjjjjjjjjjlbAAAAAAmxjjkjjjjk96r<=+",
"+=<i68kjjjZSSxjjjjjjjjjjjjjjjjjjjjjjjjjkmSSASSSZjjjjjkjjjk97y<=+",
"+=<r58kklZAZlkjjjjjjjjjjjjjkjjjjjkjkjklZASAASSblkjjjjjjjjj96y<=+",
"+=<r58klbSZmkkjjjjjjjhjjjjjjkjkjjjkjjlvASASAAZljjjjjjjjjjk97i1=+",
"+=<i68kZSSvkjkjjjjjjhdhjjjkkkjjjkjjjjmSASSSSZjjjjjjjjjjjjk97y<=+",
"+=<i68ZAZvkjjjjjjkkjjhjkjjjkjjjjjjjlmAASSSSnlkkjkjjjjjjkjk97y1=+",
"+=<i6wSZmjkkjjjkjjjjjjjjjjkjjjkjkklvSAASSSZxjjjjjjjjjjjjjk97i<=+",
"+=<i7wSljjjjkjkjjjjjjjjjjjjjjjkjjjmAAASSAZkjjkjjkkjjjjjjjk06y<=+",
"+=<i79ckjkjjjjjjjjjjjjkjjjjjjkjklZAAAAAAbljjjkkjjjjjjjjjjk07y<=+",
"+=<i79kkjjjjjjjjjjjjjjjjjjjjjjklvAASSAAmljjjjjjjjjjjjjjjjk97y<=+",
"+=<i68kkjjjjjjjjjjjjjkkjjjjkkjjVAAAASSZjkjjjjkjjjjjjjjkjjj97y1=+",
"+=<i68kkjkkjjjjjjjjjjjjjjjjjjlZAASAASbljjjjjjkjjkjjjjjjjjj96y<=+",
"+=<i68kkjjjjjjjjjjjjjjkjkkjjlvSASSAAZljjjjjjjjjjjjjjhhjjjj96y<=+",
"+=<i68kjjjjjjjjjjkjjjjjjjjkjmSAASAAZkjjjjjjjjjjjjjjjddjjjk97y<=+",
"+=<i68kjjjjjjjjjkjjjjjjkjjlZAASAASnxjjjjjjjjjjkjjjjjggkjjj96y<=+",
"+=<i68kjjhjjjjjjjjkjjkjjjlvSSSSSACvjjjjjkjjjjjjjjjjjjjjjkj96y<=+",
"+=<i68kjhdgjjjjjjjkkjjjjkmSAAAAAZjjjjjjjjjjjjkjjjjjjjjjjjj06y<=+",
"+=<y68kjjgjkjjjjjjjjkjjlZAAAAAAblkjkjjjjjjjjjkkjjjjjjjjjjj96y<=+",
"+=<i68kjjjjjjjjjjjkjkjlvSAAAAAZlkjjkjjjjjjjjjkjjjjjjjjjjjk07y<=+",
"+=<y68kjjjjjjjjjjjjjjkVSSSAASZjjjjjkjjjjjjjfdjkjjjjjjjjjjj96y1=+",
"+=<y68jjjjjjjkjjjjjjkmAAAAAAnljjjjjjjjjjjjjhgkjjjjjjjjjgfj06y<=+",
"+=<i68kjjjjkjjjjjkklvAAAASAZvkjjjjjjjjjjjjjjjjjjjjjjjjjffj06y<=+",
"+=<y68kjjjjjjjkjjkjmAASSSSAjjjjjjjjjjjjjjjkjkjjjjjkjkkjkjk07y<=+",
"+=<r65eeeeeeeeeeeeussssssateeeeeeeeeeeeeeeeeeeeeeeeeeeeeee65r<=+",
"+=<r65666666877777000000087766666666666666666666666666666656q<=+",
"+=>9ryyyyyyyyyyyyyyyyyyyyyyyyyyyyyyyyyyyyyyyyyyyyyyyyyyyyyyr9,=+",
"O&:1222222222222222222222222222222222222222222222222222222221:*O",
"O%=;;;;;;;:;;;;;;;;;;;;:;;;;;;:;;:;;;:;;;:::;::;;;;;;:;;:;:;;=&O",
"XO++++++++++++++++++++++++++++++++++++++++++++++++++++++++++++OX",
" XooooooooooooooooooooooooooooooooooooooooooooooooooooooooooooX "
};
