/* XPM */
static char *_630140aff57421bdbb8fca52276a8e5tpGh9BCmmYTeK3YY[] = {
/* columns rows colors chars-per-pixel */
"64 64 243 2 ",
"   c #1A3C3D",
".  c #293A3A",
"X  c #3D333B",
"o  c #363939",
"O  c #37342E",
"+  c #492D3B",
"@  c #542C39",
"#  c #5A2A36",
"$  c #463638",
"%  c #573733",
"&  c #50362D",
"*  c #79292D",
"=  c #6A382D",
"-  c #78352C",
";  c #6C2B33",
":  c #662834",
">  c #7C2431",
",  c #762832",
"<  c #673631",
"1  c #6B2A2E",
"2  c #7E1F30",
"3  c #18463E",
"4  c #1D563E",
"5  c #29473C",
"6  c #384739",
"7  c #28583D",
"8  c #385A3A",
"9  c #1A6A3E",
"0  c #13743E",
"q  c #137B3E",
"w  c #1B7A3D",
"e  c #0E713F",
"r  c #28673C",
"t  c #386A39",
"y  c #25783B",
"u  c #377638",
"i  c #58472F",
"p  c #444637",
"a  c #544A32",
"s  c #455936",
"d  c #575632",
"f  c #574E2E",
"g  c #67472B",
"h  c #76462A",
"j  c #66582E",
"k  c #73552B",
"l  c #58782F",
"z  c #466835",
"x  c #477834",
"c  c #547731",
"v  c #576732",
"b  c #66762D",
"n  c #767729",
"m  c #6E6A2A",
"M  c #1A3C47",
"N  c #143856",
"B  c #0F3F58",
"V  c #352E44",
"C  c #243C42",
"Z  c #293646",
"A  c #353542",
"S  c #2A304A",
"D  c #0E4C44",
"F  c #0D4C4C",
"G  c #0F444C",
"H  c #144544",
"J  c #1B4343",
"K  c #124B44",
"L  c #1C4B43",
"P  c #134A4B",
"I  c #0D5346",
"U  c #0C5C45",
"Y  c #0D544A",
"T  c #0C5C4B",
"R  c #125345",
"E  c #11544A",
"W  c #175844",
"Q  c #0E4453",
"!  c #0D4B53",
"~  c #0F425A",
"^  c #124353",
"/  c #0D5351",
"(  c #125251",
")  c #244541",
"_  c #265842",
"`  c #0C6345",
"'  c #0D6B44",
"]  c #0C6449",
"[  c #0D6A49",
"{  c #136544",
"}  c #126C43",
"|  c #196544",
" . c #0E7343",
".. c #0F7845",
"X. c #117542",
"o. c #117C42",
"O. c #197641",
"+. c #266C40",
"@. c #472D40",
"#. c #A9391E",
"$. c #B8381D",
"%. c #B62D1E",
"&. c #8B1D2D",
"*. c #841D2E",
"=. c #9A1B2B",
"-. c #851E30",
";. c #A31B29",
":. c #AA1927",
">. c #B21B24",
",. c #BA1B23",
"<. c #88262C",
"1. c #992628",
"2. c #883728",
"3. c #993723",
"4. c #842130",
"5. c #A62824",
"6. c #B72622",
"7. c #A43821",
"8. c #B33121",
"9. c #C61D1F",
"0. c #CB241E",
"q. c #CC2B1D",
"w. c #C5281E",
"e. c #D22B1D",
"r. c #C7371C",
"t. c #D4341C",
"y. c #D73B1B",
"u. c #C21C20",
"i. c #C62521",
"p. c #B9481B",
"a. c #B6591B",
"s. c #A8521D",
"d. c #AC671D",
"f. c #BA671C",
"g. c #B8771C",
"h. c #AB751E",
"j. c #864825",
"k. c #964B21",
"l. c #995922",
"z. c #875A25",
"x. c #876825",
"c. c #986724",
"v. c #897824",
"b. c #987423",
"n. c #A86822",
"m. c #A67921",
"M. c #B37121",
"N. c #A35F1F",
"B. c #C9471B",
"V. c #DC431A",
"C. c #DC4B19",
"Z. c #D4471A",
"A. c #C85719",
"S. c #DC5119",
"D. c #DD5C19",
"F. c #D85818",
"G. c #E14B1A",
"H. c #E35319",
"J. c #E55B19",
"K. c #E95D1A",
"L. c #E8551A",
"P. c #C66819",
"I. c #D76718",
"U. c #C7761B",
"Y. c #D37419",
"T. c #D87819",
"R. c #E46319",
"E. c #EA6419",
"W. c #EB6A19",
"Q. c #E26A18",
"!. c #E57718",
"~. c #F06F1B",
"^. c #14843D",
"/. c #178A3C",
"(. c #198D3B",
"). c #1B833C",
"_. c #1B933A",
"`. c #1D993B",
"'. c #278739",
"]. c #398635",
"[. c #369636",
"{. c #2C9438",
"}. c #3CA036",
"|. c #5E952F",
" X c #478734",
".X c #568731",
"XX c #499832",
"oX c #579731",
"OX c #5C8A2F",
"+X c #6A8A2D",
"@X c #78892A",
"#X c #68982E",
"$X c #77962B",
"%X c #649530",
"&X c #57A732",
"*X c #4AA534",
"=X c #78A82D",
"-X c #66AB31",
";X c #76B22F",
":X c #138342",
">X c #BB871E",
",X c #AC801F",
"<X c #878827",
"1X c #988624",
"2X c #8A9728",
"3X c #979827",
"4X c #A58722",
"5X c #A99723",
"6X c #B79621",
"7X c #B68C20",
"8X c #88A52B",
"9X c #97A629",
"0X c #87B42E",
"qX c #93B42B",
"wX c #A9A826",
"eX c #B7A624",
"rX c #B8B727",
"tX c #A7B829",
"yX c #C8881D",
"uX c #D48B1C",
"iX c #DB8C1A",
"pX c #D5841A",
"aX c #C7981F",
"sX c #D7951C",
"dX c #E78918",
"fX c #E99819",
"gX c #F29C19",
"hX c #F29518",
"jX c #DCA41E",
"kX c #EAA71D",
"lX c #F4A41A",
"zX c #F5AA1B",
"xX c #F8A91B",
"cX c #EAB11F",
"vX c #C59C20",
"bX c #C8A622",
"nX c #C6B625",
"mX c #D6B723",
"MX c #D8AE21",
"NX c #E7B621",
"BX c #B8C52A",
"VX c #CBC427",
"CX c #E8C324",
/* pixels */
"F F Y ] o.:X:X:Xo.o.o.:X:Xo.] ! N V 1 =.:.&.# S N N Q t g.J.t.0.0.y.J.U.b E B N M A : =.=., V M F ] o.:X:X:Xo.o.o.o...' T Y Y Y ",
"F Y ] ..^.o. .[ ] ] [ o.:X:X .T ! N @.-.>.>.&.# V N B W n Q.V.e.e.V.Q.4Xu Q N V @ > =.;.2 + M F ] X.:X:Xo. .[ [ [  .:X:XX.] Y Y ",
"/ T ..:Xo.[ Y D H H K Y ] o.:Xo.] ! N @ 5.0.u.=.# S N E c Y.H.t.y.J.pX+X| B V 1 1.6.,.&.+ J Y [ o.:Xo.[ I D 3 3 D I ` o./.o.[ T ",
"T ' :Xo.[ D M . X X . M K Y X.:XX.] ! C : 6.y.i.&.+ N Y x yXE.V.V.W.yXu Y M # :.q.t.6.: C E  .:X:Xo.U K   . . o .   H ` :X/.o.[ ",
"] ..:X[ D M $ , &.&.1 + . H Y [  . .T P $ 3.H.G.6.: Z F u yX~.H.S.~.>Xu F Z > 0.V.y.5.@ J ] o.:X..U H . $ : > 4.1 @ o H [ /./.o.",
"..:X:X` H X > :.,.,.6.<.# X J F T ] T K $ 3.L.L.w.> Z E x yX!.D.F.!.>Xu E Z > e.H.V.5.@ J T ' [ I J o # <.;.:.>.:.&.# C U ^._.^.",
"o./.:X` J @ ;.u.e.t.y.r.5.* % . J K K ) % #.J.K.t.<.A W OXsX!.f.d.T.yX X{ C > t.K.H.8.: . K I K . $ * 1.%.q.q.0.,.:.2 o U ^.`./.",
":X(.^.` J @ ;.0.V.L.L.H.V.r.8.1.* $ $ % 3.Z.E.K.y.<.. r <XsXyXn l >XsX@XO.J ; t.K.J.r.1.# X o $ - 7.r.Z.H.H.G.t.9.,.&.X U ^.`./.",
"o.(.(.' K + 1.q.L.E.W.W.E.R.H.Z.r.8.5.%.y.L.W.J.r.; _ x 5XsX4Xu y @XsX5X].W % $.J.W.H.r.6.5.5.%.B.F.R.Q.!.!.J.V.e.,.4.C ` /.`./.",
"[ :X_.q R Z ; i.J.W.Q.g.m.m.d.P.I.J.J.J.L.E.E.Z.3.6 | +XaX6X.X} [  X7XaX$X9 o 2.B.R.W.J.H.L.H.F.I.g.m.v.b.g.R.G.q.;.# L  ._._.o.",
"T X._./.[ J @ 5.H.W.Y.b +._ _ z m n.I.D.S.S.C.#.% W ].3XaX$XO.] ` O.+X6X6X X_ p h p.F.D.D.F.A.d.m t +.r u x.I.C.6.> X U ^.`.^.` ",
"! ] :X(.X.E A * B.E.Y.z E ! ! ( W 8 d j.3.3.2.% 5 y #XbX5X].' [ [ [ y <XvX3Xx 7 5 a h k.j.h a 8 W Y Y T | n I.y.1.X L ' _.(.' I ",
"B /  ./.^.[ H $ 3.S.Y.v P B B ~ Q ! P ) 6 5 ) W O.%XwXeXOX} ' ).w ' ' ].3XvX5X.X{ R ) ) 5 L K F ! ! ! / +.v.D.r.; ) U ^._.o.Y H ",
"Z ^ T  .:X..Y C < B.I.x.L ~ ~ / T T T Y Y Y T ' ].8XeX2Xy [ w XXoX'.' w |.eXbX8X'.] Y I Y ] [ [ T / ! Y t m.S.7.$ R  .^.o.` H M ",
": A H Y [  .T H $ 7.F.d._ Q ! [ :X(.'.'.O.X. .q XXwXeXOX} X.].3X5X#X'. .].3XMXwX[.o.' 0 ).'.(.^...] Y T x g.S.2.) U ....` K . @ ",
"=., $ J Y ] ] F Z 2.S.P.s ^ Y o.[.&X;X;X-XoX[.'.oXeXeX X` O.@XyXpX5X X..].3XMXwX[./.'.XX&X-X*X[./. .T | n Y.B.< K ` ' ` K . # &.",
";.=., $ J Y Y F C - S.I.j L Y '.-XrXmXmXmXnX8X[.XX9XeX.X[ y 1X!.Q.yX+Xq ].5XbX8X[.[.=XrXnXVXtX-X{. .T t m.I.p.$ D U U K . : =.;.",
"&.:.;.> @ . J H . 2.S.I.j.) Y ).;XnXcXzXzXcXnX=XXX$X6X+XX.u U.J.L.T.<Xq  XeXeX|.XX9XnXNXNXCXVX0X[.[ W v g.D.7.$ H D H . # =.>.&.",
": &.>.>.1.1 @ $ < #.H.R.k.5 Y X.&XtXkXfXdXfXjXeX8X$X5X3Xw x Y.H.V.!.1X).|.vX3X|.2XaXfXdXfXNXVX0X{.` L j P.D.$.- $ o $ 1 1.>.=.: ",
"V # =.,.i.6.5.5.%.Z.E.I.2.5 Y [ '.8XjXdXT.Y.yXbXeX$X2X3X'.x I.V.y.Q.1X].$X6X$X2XvXaXg.Y.fXNXrX-X).` L j f.E.C.$.5.1.5.6.u.;.: V ",
"N S # ;.i.y.y.V.G.E.W.F.- ) Y ] O.|.5XfX!.U.b.3XeX5X3X3X].c I.V.t.E.4X X2X6X3X6X5X@Xv.Y.fXMXqX[.' T K a a.R.E.G.V.V.y.e.>., V N ",
"B N S : 5.t.G.L.K.E.J.p.% K Y [  .'.$X6XdXpXv. X+X3X3X3X Xb F.y.t.E.m. X@X5X5X3X.Xu v.pXaX3XXXw ' ] R 6 j.A.D.J.J.J.Z.6.> V N B ",
"! ~ N S : 5.r.y.Z.r.#.= L I } '.'.'.].+X>XiX1Xu w ]..X.Xu m C.t.e.C.g.l c OXc u e u 1X>X<X.X].[.].y } W 6 h #.$.r.$.3.; V N ~ ! ",
"| / ~ N S + ; <.1.2.% 5 I {  X=X;X;X#X].+X7X4X].0 ' } 9 z N.y.w.u.r.A.m u 9 9 9 9 l 4Xv.z x @X3X3X$X].} R 6 % - = % $ Z N ~ / | ",
"@Xu ] ! ^ N C A 6 ) L 5 7 7 u %X9XrXwXOXx b b z 7 7 7 7 a 3.3.5.1.8.7.f 7 W 5 5 s j m d 8 z m x.b.v.b t 7 L L ) ) J G Q ! ] y OX",
"uX<Xx +.{ ] ] { U T _ z.f.c.8 u  XOX%Xu s U.U.U.f.f.f.k.$ & 3.Z.S.F.F.k.o a s.f.P.P.Y.P.f.z.g P.Y.Y.U.P.f.k U } ` ` ` { y  X<XyX",
"!.pXyX1X@X.X X]. Xu z U.gXU.6 W ] { { U z kXlXlXlXlXhXa.o h iXgXhXhXdXT.k.h !.gXgXlXlXlXlXm.g dXlXlXgXhXhXc.t .X X X XOX<X>XpX!.",
"H.R.!.!.pXyX6X6XaX<Xv Y.lXpX6 I ] ] U T z kXzXfXsXsXpXl.i Y.lXfXY.P.Y.dXU.h P.pXfXlXlXfXsXb.k dXlXgXuXpXT.x.v 6X6X5X7XaXiXdXQ.H.",
"i.i.y.S.D.Y.yXyX4Xl s Y.gXyX6 | u x c r s kXlXP.6 5 5 . a !.xXuX= O j.U.M.% $ = f.lXgXd.6 5 j dXlXg.5 5 5 L z 1X4X>X>XyXU.A.y.w.",
",.:.6.8.#.z.b l u | 6 Y.lXyXs b 4XyXg.f d kXgXf.. . . . a !.xXfXj.O O O $ @ @ & n.lXgXd.6 s k dXlXm.. . J F { u x l b n k.7.5.=.",
"=.4.* = p _ { { ] Y 6 Y.xXpXf d.I.Q.A.- f fXgXT.a.a.k.$ & P.gXzXpXa.j.& @ * 4.% c.lXhXf.h j.k dXlXiXa.a.g D T [ [ { | r s % ; > ",
"=., % 6 W U ] ] ] T 6 Y.xXuXg p.J.H.r.> g kXlXgXgXhXU.% : = s.iXlXfXfXU.2.> &.# c.zXhXa.2.3.j.dXxXlXgXlXb.H T ] [ [ ` { 7 p % 4.",
";.&.> = d t u w } T 6 T.xXyXi a.Q.W.A.; f kXlXfXuXpXn.< 4.@ O g P.T.dXhXY.3.* & c.lXhXf.j.k.h dXlXfXuXiXx.H T ' X.y u c j h <.=.",
"i.>.6.r.a.g.4X@Xc r p T.xXyX6 f c.h.c.p f kXlXU.O o o & = $ O O O & a.gXiXj.$ o c.lXgXf.f f k dXlXh.. 5 3 D { u OX<X4Xh.P.p.6.,.",
"y.t.V.J.~.pXiXuX7Xn a T.xXpX6 5 6 8 6 3 s kXxXU.O O O o & a.T.l.. O k gXiXh   o l.gXhXn.3 K d dXlXm.. . 5 3 r $X6XsXiXiX!.R.C.t.",
"L.K.W.T.yX1X1X4X6X1Xj T.lXdXP.f.f.f.l.  d kXzXfXU.A.A.k.& P.gXdXa.s.U.lXiXg H 5 c.lXhXn.K D j hXlXdXP.f.a.k t 2X3X3X5XaXuXT.!.J.",
"!.T.g.n c t +.t x c d T.lXgXgXgXlXlXyX. d kXzXxXlXlXgXf.o k.dXlXgXlXlXfXn.5 D 5 x.lXhXn.7 r m gXlXlXlXlXgXc.7 u u t t x b 1XyX!.",
"yXb.z W E Y Y Y E W 6 U.uXuXuXuXsXiXm.5 s uXsXuXuXpXpXn.o & l.T.pXpXT.c.5 D Y H j yXY.l.c n m pXuXuXuXyXyXz.H I R R I R | u n ,X",
"v 8 P Q Q M C C ) J J 5 7 7 8 z z 8 7 R 4 s 8 7 5 ) _ _ 7 p % % % % % 6 U ` ` U 4 r 8 s x c t s s 8 7 _ 7 5 3 . . . C M F W r t ",
"( ! B M Z $ * <.* < % 5 I } '.'.'.0 0 y  X+Xx ` U U W { { v p.8.5.$.k.t 0 0 w 0 0 '.+X$XoX].].[.[.).' T 5 $ = <.1.<., + Z M F P ",
"~ B Z + > 5.r.y.Z.r.%.- 6 Y ' X.o.).oX9XeX3X X0 y .X+X.Xw c I.V.q.V.d.u ].|.%XoX[.'.$XeXeX=XXX(.^.X.T L g #.r.t.t.q.,.&.@ A N Q ",
"N Z + > 6.t.H.K.E.E.C.$.- L Y [ w oXwXMXbX<X.X X$XwX5X2X'.c Y.G.t.C.d.u OX3X8X9X#X X+X6XjXnX8X{.o.[ R p k.S.E.E.J.G.e.:.&.# S N ",
"S $ > >.0.w.r.B.A.R.W.S.7.6 Y } [.qXMXkXyX1X1X5XeX2X2X3Xy c Y.H.y.J.h.u OX3X|.#X9X2X1X>XfXcXrX*X).' R g B.J.E.S.r.r.w.u.>.&.@ S ",
"+ , :.,.>.<.% % h p.E.E.p.p I O.-XnXNXkXiXiXsXbX3X%X3X3X0 x Y.H.y.D.m.y  X9X-XXX=XeXsXiXfXkXmX0X[. ._ h C.E.Z.5.* % ; 1.:.;.*.# ",
"> =.>.1.: A J K 5 h F.W.a.6 I y =XnXmXNXNXNXmX9X[.#XeX#X .u g.D.V.I.v.0 '.=XqX*X*XqXnXcXkXcXVXqX[.' L h S.J.7.% . M C $ > ;.;.-.",
":.:.=.: C K Y Y K a A.Q.d.5 Y O.&XtXVXVXVXBXqXXX[.8XeX X' r v.I.S.U.b } q |.rX-X{.*X0XVXVXVXBX;X[. .R g A.S.3.o D I I J X , =.=.",
":.4.# A Y ` [ U K a A.Y.m L Y  .'.&X;X;X-X*X{.(.&XtXwX].` { x h.U.1Xu ' q %XrX0X{./.[.-X;X;X&X}.(.' E 6 l.S.7.o D ` ' ` L X # > ",
"4.$ ) E  ...' I 5 h D.g.z K Y ] ..).{.{.'.)...w XXqXrX%XX.` w .X<Xx } ' '.8XrX0X{. .X.w '.'.).:XX.] F L m I.p.$ H U  ...` K Z @ ",
"A P T  .o. .U K $ 7.I.b._ G Q Y ] ] ' [ ` ` ` [ w oXrXwX'.' ` 0 y } ' w %XeXwXoX0 U I U U U ` ` ] Y Q F s f.B.* . D ` o.q ` H . ",
"^ Y  .:Xq ` K o 2.Z.I.b W Q Q F F F R R L 5 5 W ` y 8XeX$X'.' [ [ ` e  XwXbX$Xy W 5 6 p 6 5 K Y Y F G F r b.C.5.% M I X.^.0 I H ",
"T [ ^.^.' I C 1 %.H.P.z W F F K L 5 a h j.3.2.a 5 9 oXwXeX+Xy ` ` ` y 2XaX2Xy 4 % 2.#.#.s.j.s 7 U R Y I r b.H.r.<.$ K ` ^.^...T ",
"[ o.(.q U H $ 1.t.J.P.l r 7 7 v x.s.B.Z.S.C.Z.#.< 5 y $XsX6X.X0 ' 0  X6X6Xx W & 7.Z.S.H.H.D.f.x.m z r r u b.J.V.6.; . I  ././...",
" .^._.0 I C : >.y.K.I.b.x.x.c.P.D.S.C.C.L.E.K.C.3.$ 4 x 6XsX<Xw 0 ].1XuX<X| 6 2.r.J.K.L.H.H.D.I.I.d.v.n v.f.J.G.q.=.@ J ` /._.^.",
"..(._.' K X 4.,.V.K.E.I.I.D.D.S.r.5.1.3.$.E.~.E.$.< 5 9 @XsXyX Xu <XpX>Xu L % 8.V.E.G.t.%.5.#.$.Z.D.I.I.I.R.K.G.q.:., Z Y q _./.",
"o._.(.` H X 4.>.e.G.H.H.C.y.$.2.% $ o X = B.E.E.B., o I x yXuXv.n U.pXv.W . 1 r.H.L.t.1.; @ $ % - #.B.C.H.L.H.y.0.>.&.$ I q _.(.",
":X_./.` H o , :.u.q.q.q.6.1.: o J P P H X 7.H.K.Z.* o I u >XdXP.f.!.Y.l R . * t.G.V.6.# . J J J . $ 1 7.r.r.q.0.u.>.-.X I q _.(.",
"o._.(.` H C # 4.;.:.;.4.; X J R ` ] U D o 3.G.L.r., Z I u >X!.R.D.W.g.x Y C ; q.G.y.5.+ H Y U U I H o < <.1.;.>.>.=.: Z U ^.`./.",
"o.(._.' D M X @ : : # $ . K U ' o...` K $ #.G.G.8.: C I u ,XW.H.C.K.U.x Y M # 5.t.y.>.: J U ' .. .` K . $ @ : > 4.: X J ` /._.^.",
"[ :X_.q ` D M Z A Z M H I U q /.^.' I 5 1 w.y.r.<.$ M W c U.E.V.y.H.P.b U G V > 6.e.u.<.o R ' ^./.^.' I H C . X X o J ` q (./. .",
"T ' /./.q ` I K H F Y ` X.^.(.q [ I J + =.0.i.1.@ Z G W n T.H.e.0.V.I.v.| F N @.<.i.9.>.: C I [ ^.(.^.e ` I K K K R ' ^._./.X.` ",
"Y U ../.(.^.0 ` ` [  .^._._.^.[ I M + > >.,.=.: S N ! r b.E.y.0.9.t.D.g.z E B S @ 1.,.u.=.+ J I ' ^.(./.^.0 ' '  .q /._.(.q ` I ",
"Y Y ` ..(._._.(.(.(._.`._.^.' I H X > ;.>.=.# S N Q W l U.L.t.0.9.0.C.I.v.r F B S # =.,.>.4.$ M Y ] o.(._.`.`._._._._.(.o.` Y Y ",
"F Y Y T  .q /./.(.(.(.^...` Y G A : =.:.&.# V N B E t b.J.V.e.9.u.w.y.E.U.b W Q N S @ 4.;.=.; A G Y ] X.^.(.`.`._.(.^...` Y F F ",
"F F F Y Y ] ` ] [ ' ' ` Y ! Q N + *.;.&.# V N N ^ | b P.L.y.0.u.,.u.q.L.!.h.z E B N S @ *.=.-.@ N Q ! T ] '  . .' ' ` Y Y F F F "
};
