/* XPM */
static char *_19df0d04ee3456dc5b94eb0e1ffd869SsmhQ7jWjZ4hrbRj[] = {
/* columns rows colors chars-per-pixel */
"64 64 256 2 ",
"   c #070D2B",
".  c #060E33",
"X  c #070F37",
"o  c #081034",
"O  c #07113C",
"+  c #09123C",
"@  c #071036",
"#  c #14133B",
"$  c #100E34",
"%  c #29163A",
"&  c #33132F",
"*  c #332436",
"=  c #73251B",
"-  c #4C192F",
";  c #6B1A31",
":  c #572B30",
">  c #772737",
",  c #6D2E2E",
"<  c #731917",
"1  c #061143",
"2  c #091443",
"3  c #06144B",
"4  c #0A154B",
"5  c #0A194D",
"6  c #14154C",
"7  c #171448",
"8  c #061553",
"9  c #091553",
"0  c #091A54",
"q  c #05145B",
"w  c #0A155B",
"e  c #071A5B",
"r  c #091A5C",
"t  c #051A54",
"y  c #141553",
"u  c #171559",
"i  c #0D0F47",
"p  c #27164A",
"a  c #381849",
"s  c #281456",
"d  c #3A1757",
"f  c #2F0E52",
"g  c #0A225B",
"h  c #092556",
"j  c #132F57",
"k  c #262356",
"l  c #382556",
"z  c #302A4E",
"x  c #051664",
"c  c #0A1464",
"v  c #061A63",
"b  c #0A1C64",
"n  c #061B6C",
"m  c #091C6B",
"M  c #07166C",
"N  c #171565",
"B  c #061C74",
"V  c #0A1C73",
"C  c #061E7A",
"Z  c #0B1B7C",
"A  c #091577",
"S  c #181377",
"D  c #170F6B",
"F  c #271469",
"G  c #381569",
"H  c #251477",
"J  c #381376",
"K  c #370E6F",
"L  c #092264",
"P  c #07226D",
"I  c #09216C",
"U  c #0A2866",
"Y  c #0C3468",
"T  c #133867",
"R  c #062274",
"E  c #092274",
"W  c #07237C",
"Q  c #09257B",
"!  c #082979",
"~  c #0A3377",
"^  c #223E64",
"/  c #471758",
"(  c #531051",
")  c #6D1452",
"_  c #4D2A4D",
"`  c #6D3045",
"'  c #49156A",
"]  c #551367",
"[  c #571279",
"{  c #4E0F72",
"}  c #6A0C77",
"|  c #780D79",
" . c #661278",
".. c #6E0F6D",
"X. c #4E236A",
"o. c #1A5575",
"O. c #124770",
"+. c #2B5A6D",
"@. c #245772",
"#. c #2A506A",
"$. c #1A7678",
"%. c #36676C",
"&. c #2D6973",
"*. c #2F505B",
"=. c #56675B",
"-. c #717254",
";. c #4E7467",
":. c #554F52",
">. c #902F1B",
",. c #AD3617",
"<. c #89302D",
"1. c #A9312D",
"2. c #8D1A22",
"3. c #DB3738",
"4. c #CA2E37",
"5. c #E33835",
"6. c #E43534",
"7. c #BA4819",
"8. c #B34F1A",
"9. c #91502B",
"0. c #B45924",
"q. c #B44C24",
"w. c #BE7A24",
"e. c #B07133",
"r. c #A3622A",
"t. c #C74918",
"y. c #CA5719",
"u. c #D75319",
"i. c #F15B1D",
"p. c #D66819",
"a. c #D36E1A",
"s. c #E7781A",
"d. c #EC6E1A",
"f. c #D34C2F",
"g. c #E64B2C",
"h. c #E65728",
"j. c #E24533",
"k. c #F04E20",
"l. c #C77827",
"z. c #D07128",
"x. c #E66323",
"c. c #901153",
"v. c #AA0C57",
"b. c #B4164E",
"n. c #842742",
"m. c #B3254F",
"M. c #870D7A",
"N. c #9A0D77",
"B. c #88127A",
"V. c #97137B",
"C. c #921068",
"Z. c #AA166A",
"A. c #B81867",
"S. c #A61375",
"D. c #A80E6B",
"F. c #BA2067",
"G. c #C71D5B",
"H. c #C21D42",
"J. c #D72A47",
"K. c #CA2454",
"L. c #D22353",
"P. c #CB3147",
"I. c #C21A63",
"U. c #8B7445",
"Y. c #986B42",
"T. c #2F937A",
"R. c #28927C",
"E. c #758A59",
"W. c #4F8C6E",
"Q. c #689562",
"!. c #5EB267",
"~. c #B88A39",
"^. c #BAAA3C",
"/. c #DD841C",
"(. c #E8881A",
"). c #F28917",
"_. c #F6991A",
"`. c #E9951D",
"'. c #FBA41B",
"]. c #FCAC1C",
"[. c #F5A51E",
"{. c #FEB31E",
"}. c #FFB81E",
"|. c #CB8827",
" X c #D88823",
".X c #D69626",
"XX c #C79131",
"oX c #E39A21",
"OX c #E18420",
"+X c #D0A52E",
"@X c #F9AB20",
"#X c #FFB520",
"$X c #E3A023",
"%X c #91904E",
"&X c #A79448",
"*X c #AD9342",
"=X c #8DAE50",
"-X c #A5AD46",
";X c #0B1A83",
":X c #0C1A8C",
">X c #091985",
",X c #151989",
"<X c #0C1A91",
"1X c #151B91",
"2X c #281586",
"3X c #36128B",
"4X c #3B1492",
"5X c #2D0F8A",
"6X c #052483",
"7X c #092583",
"8X c #072A84",
"9X c #082984",
"0X c #05268C",
"qX c #062A8C",
"wX c #082B8B",
"eX c #08258B",
"rX c #08338B",
"tX c #062C94",
"yX c #092E92",
"uX c #042D9B",
"iX c #062597",
"pX c #063294",
"aX c #093293",
"sX c #06329C",
"dX c #08389B",
"fX c #172096",
"gX c #0534A3",
"hX c #063BA5",
"jX c #053CAB",
"kX c #0638A6",
"lX c #033EB2",
"zX c #0228A0",
"xX c #490E86",
"cX c #580E87",
"vX c #48138A",
"bX c #57128A",
"nX c #451493",
"mX c #5E1390",
"MX c #680E89",
"NX c #770E86",
"BX c #681289",
"VX c #761188",
"CX c #0C4E8B",
"ZX c #116F95",
"AX c #0642AC",
"SX c #0846A8",
"DX c #0956A9",
"FX c #0443B3",
"GX c #064AB5",
"HX c #0854B5",
"JX c #0C66A5",
"KX c #850E84",
"LX c #861185",
"PX c #961181",
"IX c #19918A",
"UX c #239F85",
/* pixels */
"    3 M M M n n B V >X<X1X;X8   . 4 6XuXuXC 8 2 G | v.c.G S <Xq 8 <XS ( c.v.| f $ 1 B iXuX0Xw .   O A <X:X;XZ B B M M M M 1 .   ",
"  O v r + o o o + 2 w ;X1X1X;Xq O O v tXgXuXm + p ..v.c.{ 2X1Xq 8 1X3X} b.v...p O v tXuXuXn 2 . 3 M :X:X>Xc 8 O X . o 3 x x 3 . ",
"3 x w O O 2 2 + o   . 3 M ,X1X,Xw o 2 e yXjXwX4 7 ..b.b.} 3X,X3 9 fXnXM.b.b. .p 4 8XgXyXm + o 3 Z :X>Xw 2 o   . @ X . . O q x 1 ",
"x v + o 0 b m b 9 2 o o 2 w A ,XV 4 o 3 8XFXdXv 2 / b.4.| 4X,X3 9 2XbXM.H.m.] 7 e dXjX8X4 o 9 V ;XM 8 o o + 8 v b v w 8 1 1 B M ",
"M 3 o 0 qXuXgXsXtX6Xv 1 o X 3 r m 8 o 4 8XFXSXm 3 d m.4.M.nXH 1 8 2XmXN.4.1./ 3 v hXjX6X3 o r V 9 O o o 4 B 0XuXsXuXtXC 8 O B 6X",
"B O 2 W jXFXFXlXkXgXtXwXR v 2 + + O 2 P dXGXAXW t / 4.3.M.nXN + 8 H mXN.3.t._ 3 v hXFXqXt o O O X 1 v W 0XuXgXkXlXFXlXgXn O 8 eX",
"B o 3 qXFXlXkXwXQ Q wXuXuXtXW b e e Q dXFXGXhXE h _ g.J.M.4XN 4 3 N vXLXP.u._ t b dXGXAXwXv 3 3 v W tXuXuX0XW W wXhXlXlX6XO O 6X",
"B . 3 qXFXuXR 0 2 2 2 3 n qXsXsXsXsXhXFXGXAXwXt z Y.6.F.MX2Xw 4 3 q 3XmXm.u.` j 4 8XjXFXAXsXpXpXtXuX0XB v 3 O O 4 W gXlX0X3 O C ",
"B o 2 9XjXqX8 + O + 2 + O 2 L wXsXkXFXFXjXwXL h :.f.J.B.3XS 4 b v 8 H 4XB.3.e.:.h L 9XhXlXjXkXsXW b 5 + 2 + O . o r tXjX6X1 O C ",
">X3 O E jX0X3 2 0 L E U h h 5 5 b Q aXaXE g Y +.Y.j.Z.mXS 9 4 Q 8Xt 9 2XBXP.x.U.+.Y b wXgXaXQ n e 0 h h U I m O o t uXjXW O O C ",
"0Xv + e sX0X3 4 R rXCXCXCXo.O.T g g 0 5 h T %.U.x.J.KX5Xw 2 m aXhX! 4 u nXV.5.z.E.@.T U g g g U Y O.o.CXCXCX8X4 O e uXuXn X 8 >X",
"uX6X4 t yXuXm 5 ! CXZXR.Q.E.Q.;.%.@.@.@.+.;.U.x.3.V.bXS 4 r wXSXSXpXb 5 H VXG.h.XXE.;.&.@.o.@.&.;.E.Q.W.IXZXrX0 2 E tX6X8 2 V :X",
"zXeXM 3 v tXwXr E CXUX!.^.+X+XXX*X&X&X&X&X~.x.k.K.MX2Xw 0 Q dXJXJXSXwXr c 4XB.P.x.XX&X%X&X&X*X*X+X$X+X-X!.IXCXt t qX0Xv 3 9 :X<X",
"<X<X;X3 1 6XtXm e CXT.-XoXd.h.j.j.j.j.g.h.h.3.Z.NX3Xc 2 r aXHXJXZXDXAXE 8 S bXV.K.j.h.h.h.h.h.g.g.i.).+X!.UXCX8 v tXB 1 1 Z <X>X",
"C :X<Xc + e tXQ r Y T.^.(.g.J.I.A.A.A.I.L.J.L.N.xXS 3 4 9XSXHXDXDXHXGX8X9 c 2XMXS.L.J.J.K.F.A.A.I.6.i..X=XR.~ 5 7XuXe o c <X:XA ",
"8 A :XZ 2 t uXtXb g %.^.d.6.A.V.VXBXBXLXV.A.I.N.xXA 9 b dXGXGXdXdXGXHXdXr w A cXPXS.S.Z.V.NXMXNXLXA.g..X=X$.h t pXsX3 O ;X<XM 1 ",
"O 3 V Z b 4 9XgXwXU #.%Xs.6.S.NXJ F F J [ B.N.M.xXA c E hXGXAX9XQ dXGXdXP c A xXKXLXVX[ ' F F J VXS.5..XE.o.g E gXwX1 2 ;X;X2   ",
"+ + 9 r v + I gXdXg T ;. X5.Z...y 5 6 6 s G { BXbX2Xc E hXFXrXr 0 8XAXdXE m 2XbXBX{ F y 7 6 4 u } S.j..X;.O.L sXjXwXO 2 M 9 o . ",
"v 4 o O 4 O m kXhXL h %.|.5.A...7 4 r e 0 6 u G [ vXD v pXuXP j h I sXaXm N 3XxXG 7 2 9 r r 2 f C.A.g.~.%.U P AXFX8X3 3 1 O 2 q ",
"0XR 2 O + 0 W jXhXL h +.Y.g.G.c.p 2 b W E P 0 6 F J F 9 Q C e O.T L 8XwXb F J F 7 2 b E E b 2 d C.G.h.*X+.h R AXFXqXq 1 X 1 B qX",
"kXsX9XE m E aXAXsXL h %.e.g.K.C./ # 0 9XaXaXQ L b N y w P n h $.$.Y I 7XM y y b b E yXaX9X0 7 ] Z.L.h.*X&.h R jXFXhXW v v Q sXgX",
"qXkXjXhXsXhXAXsXW 5 j ;.e.5.I.PX[ p 4 W dXhXdXyX9XE r r V q Y R.IXO.v m 8 q V 9XwXsXhXhX9Xt u  .S.A.g.~.;.j e tXFXGXkXgXgXkXkXtX",
"q 6XkXjXFXFXjX8Xv 5 #.E.l.5.A.LXBXF 2 R yXsXtX9XB C B n M q Y IXIXO.q n n B B B 9XtXsXtXm 2 J VXS.A.j.z.E.o.t n sXFXFXFXkXgX6Xx ",
"2 8 W tXuXyXR r t j -.l.g.K.V.MXvXG 7 8 Q 9XE r 2 i 6 w q q ! ZXZX~ q w u 6 i + 8 V wXW 8 s { bXMXV.K.h.~.;.Y v B qXuXgX0Xn 4 2 ",
"N 9 4 q w r 8 0 T =.e.f.m. .J S H ' s 8 E E b 6 s / ] G N q B CXCXP 9 u ' ] ] s + 8 m r 2 s G H S xXM.m.y.e.+.U b w x x 8 3 u F ",
"xXJ F N N F F G X.` <.> ] J H F G a p 6 6 k l l / ] ] / F c s k k p a d ( ( ] / z z z z p p s N F s / ) <.<.` X.' J H D N F J xX",
"VXVXVX| | B.C.C.; q. Xl.<.p _ l. X0.- a , 0..X.X.Xz.1.> p : 0.|.|.|.l.q.1.> 2.y..X.X.X.X.X|.q._ r..X X X Xa.7.; c.C.M.NXNXNXVXVX",
"cXVXKXN.N.D.v.c.; y.{.'.8.& : s.{.s.< : a.[.#X].].[.(.8.& > s.#X]._._.).`.r.2.d.{.].].{.{.{.p.: w.}.].'.'._.t.; c.C.N.N.PXKXMXcX",
"N K {  . ...] ( - y.].].(.>., s.]./.2.` (.].s.7.7.y.).a.> > s.@Xs.t.7./.#Xa.,.,.y.p.[._.p.y.,.- w.].p.7.,.>.= & a ] } } [ { J D ",
"V r u 7 7 7 6 # % y.'.].'.y., s.'.(.2.` (._.0.- & = s.s.<.n.s.].s.>.< a.}.s.2.- - 8.[._.<.- & a l.].t.; & & % + 4 y 6 u u u b C ",
"tXwXQ b 0 r v t p y.'.].].(.y.s.].(.2.` )._.8.& $ , ).).<.n.s.#Xs.>.= z.{.s.= # p 9._.(., y 4 s w.].y.>.< ; p r r 8 8 t m 7XwXtX",
"3 4 2 O + r 9XQ l y.'.].'.].).).].(.<.` )._.0.% 7 > ).).<.n.s.#X_.(.oX@X].p.; 4 u 9._.(.: y b 6 w.{._.`.(.7.d Q 9XW r 2 + 4 4 4 ",
"+ + 2 2 2 0 Q E a y.'.'.d.(.].].{.(.1.` (.'.0.% i , ).).<.n.s.@X'.)._.{.s.,.- b N 9._.(.: y P 6 w.{.[.]._.7.d V 6XW r 2 + 4 4 2 ",
"wXQ E r 4 5 0 5 % t.'._.t.7.(.'.].).1.` (.'.0.& # , ).).<.> s.@X).y.a.'.d.2.7 b N 9.[.(.: 9 b k |.].p.,.,.2.p r r 8 2 5 v 7XwXwX",
"W V N y y 7 6 2 % t.'._.7.>.p._.].`.1.` (.].w.- & 9.).).<.> s.].s.= 9._.).<.s F y 9.@X_.: 4 v k |.{.p.= - & # + 6 6 7 6 u b b V ",
"u F { [  . ...a & t.'._.7.- >.).{.(.>.: (.#X`.y.7.p._.(.> > s.#Xa.= 9._.].0.( f 7 9.@X_., p u k |.{.(.8.,.>.2.% a ..} } [ { F u ",
"xXNXM.V.N.D.D.c.- u.]._.7.& , (.{.(.>.: p.'.{.].'.].].w.& ; p.#Xs.= , l.#Xa.> f p 9.[._., p s k l.{.{.].@X_.t.- c.v.D.S.LXKXMXcX",
"VXKXKXM.M.N.D.c.; t.(.s.,.% - q./.a.<.- ,.y.oXoXoX(.p.<.p ( q. X0.- % 9. Xy.; f u <. X/.: s y 7 r.oX$XoXoX(.,.( c.v.C.M.KXNXNXVX",
"MXMXJ F N N G ' ' ` , > ( F u G l a p 5 % z _ a _ ) ) / F F k ^ z 6 9 p _ ( ( d s p z * p y w c k l l _ , <.) ' ' G F N D K { cX",
"F N y w v v b b T *.r.4.c.[ D D D F 6 3 0 m r 7 f ( ..' c x n CXCXR 8 u ] ..( f y r b t 4 s K S M D { C.4.0.*.g r 9 w w w 9 4 u ",
"2 4 m 9XdXhXwXP 5 T -.z.f.S.MXxXxX' 7 4 P Q m 5 + # 7 u x x ~ ZXZX~ q w 6 # # # 0 E 7XP 5 f [ xX5XcXS.P.e.=.j 4 m 8XyXtXqXv 1 + ",
"3 m yXkXFXFXjXpXb 0 ^ -.z.K.S.KXBX' # t Q wX9XE m V n n B x O.IXIX~ q M m b m E W 9XyX9Xr 7 { BXKXS.L.f.U.#.0 m dXFXlXlXkXtXv 8 ",
"C 0XgXsXsXjXGXFXaXg Y %.~.j.A.V. .s 2 E yXgXsXyX9XV w v W x O.IXIXY v Q r 9 m 7XtXgXgXsXE 4 G BXPXA.5.l.=.T r aXFXFXkXsXsXgXeX6X",
"uXtX9XE m wXAXGXSXg h +.~.g.G.C./ $ 4 Q yXsXyXQ b u w V 9Xv Y $.$.Y I wXm c w r 7XsXdXyXQ 5 # ] V.G.g.|.;.Y e AXFXhXW v v 0XtXtX",
"tXm 4 2 4 v wXFXAXL h +.~.g.K.C./ + e Q Q E v 6 u H D b pXW L O.O.g 8XsXb D H u r R 7X7XV r + d M.A.g. X;.Y L AXAX8X8 2 O 3 m 0X",
"e 2 + 4 w 4 P AXhXL g %.XXg.F...s 2 r r t + 7 F vX2XN b dXaXI j j b dXdXv N 5X2Xu 4 2 r e r 4 s | Z.g. X-.T L AXAXR 1 2 2   + x ",
"O   3 M r + I AXhXL T W.|.5.S.[ N 9 4 9 6 s { mXnXH 9 m dXAX8X0 t 8XGXSXR 9 S nXvXJ 7 6 4 4 w F MXS.j. XE.O.R hXAXP @ 4 n w O . ",
"  + V Z 2 4 E sXQ U @.%X X3.N.MXxXK F K [ VXVXBXnXS 9 m dXHXdXm P dXHXSXW w S vXVXVXcX{ K K J xXNXS.3.OX%Xo.P yXhXW 1 4 ;X;X9 . ",
"8 M :XZ 2 r yXtXb U &.&X(.6.A.V.KXNXNXLXV.S.PXVX5XA 3 r aXHXSXpXwXSXHXdXn 9 S vXNXPXV.B.LXLXNXKXN.A.5.s.%X$.U R sXqX8 2 Z :XV 1 ",
"A :X;Xw O P sXQ 8 T W.-X(.k.6.G.A.A.I.G.L.L.G.KX5XA w 0 9XSXHXSXSXHXGXrX9 9 A xXS.K.J.L.K.G.A.A.L.6.i./.=XR.~ e wXuXn + 9 :X:XM ",
":X<XV 3 4 wXsXe t O.T.=X.Xs.i.g.j.g.h.h.h.h.5.A.MX3XN 2 b dXDXDXDXGXdXE 9 S 4X| J.h.x.x.x.h.g.g.h.d.(.+X=XR.~ 0 E uX0X3 1 A <X>X",
"iXiXw + b uXwX4 e CXIX!.-X+XXXXX~.&X%X%X&X~.z.j.A.MX2X9 5 Q hXDXDXSXQ 0 N 3XVXF.h.XX&X%X&X&X*X~.XX+X+X=X!.IXrXe t qXuXB 1 4 :XiX",
"iX;X2 5 yXuXP O e dXZXIXT.W.W.;.%.@.o.@.+.;.-.e.j.Z.bXS 3 0 wXSXSXpXv 9 2XBXA.f.e.E.%.@.o.@.@.%.;.W.W.T.IXZXaXv 3 R uXuXq 1 C iX",
"6Xv + b hXtX8 o r rXCXCXCXCXO.U 0 0 e g 0 Y @.E.e.P.KX3Xc 4 m aXpXn 4 D nXC.g.e.;.o.U 0 0 g 0 0 U O.o.CXCXCX8Xt O v tXgXB 1 x 0X",
"B O 2 W jX0X8 + 8 m P U g 0 0 b m 6XgXaXQ L g #.-.f.A.cXH w 8 Q R 3 w 5XVXH.z.%X#.g b yXsXW P v e t 0 e L R v 3 1 8 tXkX6X1 1 >X",
"B   2 8XjXtXv 2 O O + O o 4 n 0XsXkXFXFXjXyXb h *.e.J.V.vXS 3 r e 1 S vXC.g.e.*.5 r qXkXFXkXgXuX0Xn 3 O O O O O O r tXlXuX1 O C ",
"B o 4 8XFXkXwXr 2 o O 8 B tXtXqXwXwXpXjXFXFXyXr j U.g.A.MX2Xw 4 4 w 2XmXm.u.:.g r wXjXFXjXsX9X9XtXuX0Xv 4 1 O 1 8 W kXFXtX3 O C ",
"B o 8 7XFXFXkXwXR m R 0XtX0XR r 4 4 e wXjXGXhXb h :.u.3.M.4XN 4 3 S 4XMXP.t._ e P gXFXdX9Xb 8 3 v 6X0XtXeXC v v 6XkXlXlX6X1 O B ",
"B 1 2 E jXFXFXFXkXgXsXqXC 8 o O o o O r qXFXhXm t _ 4.3.M.nXS 2 4 S nX| P.q._ q P gXkX9X0 + O + o + v B eXtXuXkXjXFXFXjXB O 3 C ",
"B q o 0 qXsXhXhXtXqXW e + . o 8 v 4   1 W FXhXm 3 l 1.4.| 4X,X8 8 ,XnX| 4.1.G 8 n sXsXE 2 o 9 V q O o @ 4 m W sXkXkXgXtXq X q B ",
"q M 1 o t m E m r 4 2 . O 3 c Z V 8   1 W jXdXv 1 ' b.b.} 5X1Xq r fX4X| b.m.J 3 v sXsXE 2 o w A >XA w O   o 3 v Q E n 8 1 3 M q ",
"1 M v + o O 2 2 O o o O c ;X:XZ w O   3 9XsXQ 3 i ] v.v.} 5XfXv r fX4X} b.b.{ 7 t 9XsX9Xe O O 9 >X<X:XA 9 X . O 2 + 1 O 1 x x 1 ",
". 3 M M 3 O . o + 4 w A 1X1X>Xc 2 o 4 R uXtXb 2 f ..v.C.{ ,X1Xv r 1X5XcXC.v...s 2 b qXtXQ 9 O . w Z <X<X>XM 3 O O O X 8 M x 1   ",
"  . 3 B B M M c M V >X:X<X>Xq X o 8 >XiXiXQ 8 7 { M.C...K Z iXx r :XS { C.D.M.' y 1 v tXiX6X9 X . 3 Z <X<X>XC B B B M B M 3 .   "
};
